<svg width="234" height="207" viewBox="0 0 234 207" fill="none" xmlns="http://www.w3.org/2000/svg">
<g clip-path="url(#clip0_133_1418)">
<path d="M0.00011644 74.6168C1.64465 74.8337 3.22594 75.3404 4.83252 75.722C8.02671 76.482 11.2067 77.3085 14.393 78.1018C18.8538 79.2117 23.3177 80.3121 27.7785 81.422C32.622 82.627 37.4655 83.8382 42.3105 85.04C42.5888 85.1096 42.883 85.1191 43.1692 85.1571C44.4437 85.6559 45.7815 85.9029 47.1145 86.1752C48.9741 86.6518 50.8305 87.1411 52.6948 87.605C57.8293 88.8843 62.9637 90.1637 68.1044 91.4161C68.6579 91.5507 68.8239 91.7058 68.6468 92.2933C68.3432 93.3003 68.1408 94.3389 67.8973 95.365C67.8578 95.5565 67.8182 95.7465 67.7787 95.9381C67.6901 96.3245 67.6016 96.7108 67.513 97.0971C67.3565 97.2301 67.3691 97.428 67.3249 97.6022C65.3356 105.63 63.3527 113.657 61.3571 121.683C60.6914 124.362 59.9956 127.035 59.3125 129.711C59.0785 129.681 58.8413 129.67 58.612 129.616C54.7742 128.716 50.9602 127.724 47.1382 126.758C41.4614 125.323 35.7609 123.982 30.0746 122.583C26.9594 121.816 23.8585 120.999 20.745 120.225C16.4091 119.147 12.0701 118.083 7.72943 117.019C5.15352 116.387 2.57603 115.768 -0.00146484 115.144C-0.00146484 101.635 -0.00146484 88.1243 -0.00146484 74.6152L0.00011644 74.6168Z" fill="#6ED04F"/>
<path d="M189.733 85.1777C190.864 85.249 191.903 84.8136 192.967 84.5555C198.278 83.2635 203.577 81.9145 208.884 80.5987C214.191 79.283 219.502 77.9878 224.809 76.672C227.591 75.9817 230.367 75.2692 233.144 74.563C233.426 74.4918 233.704 74.4126 234 74.4569V114.986C233.187 115.09 232.42 115.374 231.629 115.57C225.25 117.155 218.864 118.716 212.483 120.293C206.74 121.712 200.998 123.138 195.257 124.567C190.919 125.645 186.583 126.729 182.246 127.811C182.214 127.74 182.168 127.672 182.151 127.597C179.869 118.371 177.598 109.142 175.301 99.9187C174.907 98.3417 174.622 96.733 174.055 95.2003C173.756 93.476 173.307 91.7882 172.836 90.1051C172.829 89.9119 172.823 89.7204 172.817 89.5272C178.147 88.213 183.479 86.8988 188.811 85.5878C189.052 85.5292 189.27 85.4675 189.344 85.1952C189.474 85.1888 189.605 85.1825 189.735 85.1746L189.733 85.1777Z" fill="#4E6A84"/>
<path d="M0 115.146C2.57749 115.771 5.15499 116.39 7.7309 117.02C12.0699 118.084 16.4106 119.148 20.7464 120.226C23.8584 121.001 26.9609 121.818 30.076 122.584C35.7623 123.984 41.4628 125.325 47.1397 126.759C50.9616 127.725 54.7757 128.718 58.6135 129.617C58.8412 129.671 59.0799 129.681 59.314 129.712C59.072 130.817 58.8301 131.921 58.5882 133.026C58.1802 134.629 57.788 136.236 57.3595 137.833C57.1776 138.511 57.2662 139.469 56.727 139.787C56.1909 140.104 55.3876 139.589 54.7045 139.429C52.2298 138.85 49.7614 138.25 47.2899 137.656C47.2345 137.654 47.1792 137.651 47.1238 137.65C45.5758 137.04 43.9328 136.79 42.3326 136.378C39.1004 135.548 35.854 134.769 32.6156 133.968C29.4514 133.185 26.2873 132.399 23.1231 131.615C18.811 130.545 14.4988 129.47 10.1851 128.404C6.79003 127.568 3.39502 126.742 0 125.911C0 122.323 0 118.733 0 115.146Z" fill="#40772C"/>
<path d="M182.246 127.812C186.583 126.731 190.919 125.646 195.257 124.568C200.998 123.142 206.74 121.713 212.483 120.295C218.865 118.718 225.25 117.156 231.629 115.572C232.418 115.375 233.187 115.092 234 114.987V125.752C233.612 125.825 233.222 125.882 232.839 125.976C229.243 126.867 225.647 127.762 222.053 128.659C218.027 129.665 214.003 130.675 209.977 131.679C206.28 132.6 202.583 133.517 198.886 134.434C196.871 134.934 194.855 135.43 192.839 135.927C192.436 136.027 192.069 136.161 192.099 136.684C191.941 136.302 191.738 136.185 191.278 136.309C189.382 136.815 187.458 137.216 185.568 137.745C184.844 137.947 184.643 137.745 184.483 137.083C184.003 135.097 183.59 133.093 182.972 131.142C182.73 130.031 182.488 128.919 182.246 127.809V127.812Z" fill="#33455A"/>
<path opacity="0.28" d="M0.00011644 125.911C3.39513 126.742 6.79015 127.568 10.1836 128.406C14.4973 129.472 18.8095 130.547 23.1216 131.617C26.2858 132.402 29.4499 133.188 32.6141 133.97C35.8541 134.771 39.0989 135.55 42.3311 136.38C43.9313 136.79 45.5743 137.042 47.1224 137.651C47.1461 139.831 47.2378 142.012 47.0702 144.189C45.141 143.571 43.1581 143.166 41.1957 142.677C31.0407 140.15 20.881 137.637 10.7244 135.118C7.40843 134.294 4.09406 133.462 0.778108 132.641C0.526684 132.58 0.259447 132.584 -0.00146484 132.559C-0.00146484 130.342 -0.00146484 128.126 -0.00146484 125.911H0.00011644Z" fill="#85D663"/>
<path d="M192.099 136.687C192.069 136.165 192.436 136.03 192.839 135.93C194.855 135.433 196.87 134.936 198.886 134.437C202.583 133.52 206.281 132.604 209.977 131.682C214.003 130.678 218.027 129.668 222.053 128.663C225.647 127.765 229.243 126.869 232.839 125.979C233.22 125.884 233.612 125.828 234 125.756V132.404C232.42 132.55 230.924 133.077 229.397 133.452C222.067 135.248 214.746 137.08 207.421 138.897C202.803 140.044 198.182 141.188 193.563 142.336C193.283 142.406 193.01 142.503 192.733 142.587C192.674 142.571 192.617 142.555 192.559 142.539C192.548 142.227 192.546 141.915 192.526 141.605C192.448 140.466 192.191 139.342 192.249 138.191C192.197 137.685 192.402 137.151 192.089 136.673L192.097 136.69L192.099 136.687Z" fill="#808080"/>
<path d="M189.343 85.1981C189.269 85.4704 189.05 85.5322 188.81 85.5908C183.478 86.9018 178.147 88.216 172.815 89.5301C172.798 88.7648 172.409 88.3811 171.648 88.379C168.723 88.379 165.799 88.3774 162.874 88.379C154.917 88.3838 146.96 88.3901 139.001 88.3964C138.095 88.1384 137.42 87.4765 136.632 87.0142C133.854 85.3833 130.94 85.0904 127.891 86.0563C126.787 86.4062 125.71 86.8384 124.613 87.2074C123.343 87.6333 122.116 88.1954 120.785 88.4249C120.74 88.4059 120.695 88.3996 120.646 88.4012C117.546 88.4012 114.447 88.398 111.346 88.3964C110.674 88.2824 109.997 88.1938 109.332 88.0513C107.997 87.7663 106.733 88.2144 105.443 88.3885C91.7777 88.3854 78.1122 88.387 64.4468 88.3648C63.7542 88.3648 63.6862 88.6783 63.6862 89.2293C63.6862 89.7866 63.6988 90.1682 64.4547 90.1682C77.1192 90.1476 89.7853 90.1508 102.45 90.1476C102.424 90.45 102.186 90.5846 101.979 90.7382C100.008 92.206 98.0333 93.6674 96.0677 95.1431C95.84 95.3141 95.5981 95.3552 95.3387 95.3822C86.191 95.3758 77.0417 95.3711 67.894 95.3647C68.1391 94.3387 68.3399 93.3001 68.6435 92.2931C68.8206 91.7041 68.6546 91.5505 68.1011 91.4159C62.9604 90.1635 57.8259 88.8841 52.6915 87.6048C50.8288 87.1409 48.9708 86.6516 47.1112 86.175C47.1127 62.9141 47.1159 39.6532 47.1159 16.3923C47.1159 15.7337 47.0969 15.075 47.0874 14.4163C47.0874 14.4163 47.0495 14.4179 47.0511 14.4163C47.3151 14.2691 47.2883 14.0711 47.1539 13.8526C47.157 10.5039 47.1602 7.15351 47.1618 3.80474C47.2851 3.63532 47.2756 3.45165 47.2155 3.26165C47.5855 3.06215 47.9825 3.14607 48.3714 3.15557C48.7114 3.17774 49.0514 3.22049 49.3898 3.22049C81.4661 3.22365 113.542 3.22524 145.619 3.22049C145.932 3.22049 146.245 3.17615 146.558 3.15399C147.033 3.15399 147.507 3.15082 147.983 3.15082C148.095 3.23157 148.204 3.23157 148.313 3.14607C148.739 3.12074 149.164 3.0954 149.589 3.07007C149.923 3.3044 150.306 3.20149 150.665 3.20149C158.143 3.2094 165.622 3.21099 173.1 3.20782C174.522 3.20782 175.942 3.1904 177.363 3.1809C177.542 3.1144 177.719 3.11915 177.896 3.18565L177.947 3.20149L177.997 3.18724C178.234 3.1144 178.472 3.11599 178.709 3.18724C181.816 3.18724 184.922 3.1904 188.029 3.19199C188.321 3.12232 188.614 3.11282 188.906 3.18724C189.023 3.24582 189.141 3.30282 189.258 3.3614C189.344 3.57832 189.319 3.79524 189.264 4.01216C189.267 5.47833 189.27 6.94609 189.273 8.41227C189.276 8.67511 189.284 8.93952 189.284 9.20236C189.284 33.8265 189.281 58.4507 189.283 83.0764C189.283 83.4168 189.313 83.7588 189.329 84.0993C189.333 84.465 189.338 84.8308 189.344 85.1965L189.343 85.1981ZM118.114 58.8022C100.328 58.8022 82.5414 58.8022 64.7535 58.8022C63.5312 58.8022 63.3747 59.0017 63.5676 60.2399C63.6119 60.5264 63.7257 60.6705 64.0151 60.6689C64.3045 60.6689 64.5954 60.6737 64.8848 60.6737C100.432 60.6737 135.978 60.6737 171.525 60.6737C171.683 60.6737 171.843 60.6579 171.999 60.6753C172.581 60.7434 172.79 60.4932 172.79 59.9105C172.79 58.8354 172.785 58.8006 171.71 58.8006C153.845 58.8006 135.979 58.8006 118.112 58.8006L118.114 58.8022ZM118.185 83.3076C136.024 83.3076 153.86 83.306 171.699 83.3171C172.343 83.3171 172.739 83.2712 172.678 82.4447C172.603 81.444 172.667 81.4377 171.606 81.4377C135.982 81.4377 100.359 81.4377 64.7377 81.4377C64.5005 81.4377 64.2633 81.4392 64.0262 81.444C63.8317 81.4472 63.6799 81.4962 63.5945 81.7084C63.2181 82.6537 63.6546 83.3076 64.6713 83.3076C82.5098 83.3076 100.347 83.3076 118.185 83.3076ZM118.195 66.6746C100.543 66.6746 82.8909 66.6746 65.239 66.6746C64.8437 66.6746 64.4484 66.6746 64.053 66.6809C63.8665 66.6841 63.702 66.7078 63.604 66.9216C63.2244 67.7544 63.664 68.4542 64.5844 68.4542C70.4857 68.4542 76.3871 68.4542 82.2884 68.4542C112.059 68.4542 141.83 68.4542 171.601 68.4606C172.271 68.4606 172.722 68.4622 172.719 67.5343C172.716 66.6144 172.238 66.6698 171.623 66.6698C153.813 66.6761 136.003 66.6746 118.193 66.6746H118.195ZM118.114 75.4336C135.976 75.4336 153.84 75.4289 171.702 75.4479C172.433 75.4479 172.695 75.2911 172.716 74.4995C172.741 73.5526 172.2 73.6555 171.609 73.6555C136.594 73.6587 101.58 73.6587 66.5657 73.6587C65.8019 73.6587 65.0366 73.6904 64.2744 73.6524C63.702 73.6239 63.5549 73.8629 63.5581 74.3934C63.5644 75.4305 63.5391 75.4336 64.6033 75.4336C82.4402 75.4336 100.276 75.4336 118.112 75.4336H118.114ZM118.19 52.8013C133.418 52.8013 148.644 52.7997 163.872 52.8076C164.506 52.8076 164.963 52.8298 164.955 51.9305C164.947 51.0929 164.604 50.9377 163.914 51.0216C163.732 51.0438 163.546 51.0248 163.361 51.0248C133.065 51.0248 102.769 51.0248 72.4734 51.0248C72.2362 51.0248 71.999 51.0264 71.7618 51.0327C71.5657 51.0375 71.4187 51.0865 71.3696 51.3256C71.1562 52.3675 71.5088 52.8029 72.5872 52.8029C87.7881 52.8029 102.989 52.8029 118.19 52.8013Z" fill="#FDFEFD"/>
<path d="M47.0904 14.4148C47.0999 15.0735 47.1189 15.7321 47.1189 16.3908C47.1189 39.6517 47.1157 62.9126 47.1141 86.1735C45.7827 85.9012 44.4434 85.6542 43.1688 85.1554C43.1388 83.1762 42.8099 81.2256 42.5996 79.2638C41.8611 72.3747 41.0847 65.4887 40.3162 58.6012C39.5398 51.636 38.7539 44.6741 37.9775 37.7089C37.1805 30.5617 36.3883 23.4145 35.5882 16.2673C35.5407 15.8509 35.6482 15.6292 36.1052 15.5817C39.7675 15.2001 43.4266 14.8043 47.0873 14.4116L47.0904 14.4148Z" fill="#ECE1D8"/>
<path d="M177.364 3.18419C175.943 3.19369 174.523 3.21111 173.101 3.21111C165.623 3.21269 158.144 3.21111 150.666 3.20478C150.307 3.20478 149.924 3.30769 149.591 3.07336C151.443 2.65377 153.337 2.56827 155.214 2.35611C162.111 1.57393 169.011 0.813929 175.911 0.0475909C176.904 -0.0632431 176.879 -0.0521597 177.002 0.958013C177.093 1.70377 176.947 2.49227 177.364 3.18419Z" fill="#ECE1D8"/>
<path d="M189.343 85.1983C189.338 84.8325 189.333 84.4668 189.327 84.101C189.48 83.8017 189.414 83.4787 189.415 83.1668C189.419 59.0541 189.419 34.9413 189.415 10.8286C189.415 10.0401 189.507 9.24685 189.355 8.46151C189.374 8.40134 189.393 8.34117 189.412 8.28101C189.797 8.39184 189.74 8.71168 189.741 8.99351C189.746 10.048 189.743 11.1025 189.743 12.1586C189.743 36.3141 189.743 60.4696 189.743 84.6267C189.743 84.8119 189.736 84.9956 189.733 85.1793C189.604 85.1856 189.472 85.1919 189.343 85.1983Z" fill="#036FA8"/>
<path d="M146.56 3.15575C146.247 3.1795 145.934 3.22225 145.62 3.22225C113.544 3.22542 81.4677 3.22384 49.3914 3.22225C49.0514 3.22225 48.7114 3.18109 48.373 3.15734C48.6861 3.13517 48.9992 3.09242 49.3107 3.09242C81.3871 3.08925 113.465 3.08767 145.541 3.09084C145.881 3.09084 146.22 3.13359 146.56 3.15575Z" fill="#B5C9BB"/>
<path d="M188.03 3.19373C184.923 3.19373 181.817 3.19056 178.71 3.18898C180.459 3.02114 182.211 3.13198 183.96 3.12723C185.317 3.12406 186.676 3.01956 188.03 3.19373Z" fill="#ECE1D8"/>
<path d="M189.411 8.27956C189.392 8.33973 189.373 8.3999 189.354 8.46006C189.328 8.43948 189.302 8.42523 189.273 8.41256C189.27 6.94639 189.267 5.47863 189.264 4.01245C189.455 5.14613 189.31 6.2893 189.352 7.42614C189.363 7.71114 189.39 7.99456 189.409 8.27798L189.411 8.27956Z" fill="#ECE1D8"/>
<path d="M47.2169 3.26343C47.2786 3.45185 47.2865 3.63551 47.1632 3.80651C47.0889 3.61651 47.0351 3.4281 47.2169 3.26343Z" fill="#B5C9BB"/>
<path d="M47.1553 13.8528C47.2897 14.0713 47.3166 14.2708 47.0525 14.4165C47.0873 14.228 47.1205 14.0396 47.1553 13.8528Z" fill="#B5C9BB"/>
<path d="M189.259 3.3631C189.142 3.30451 189.025 3.24751 188.908 3.18893C189.101 3.09234 189.246 3.09393 189.259 3.3631Z" fill="#ECE1D8"/>
<path d="M148.315 3.14795C148.206 3.23345 148.095 3.23345 147.984 3.1527C148.095 3.15112 148.206 3.14953 148.315 3.14795Z" fill="#B5C9BB"/>
<path d="M178 3.19103L177.948 3.20545L177.897 3.18942L177.948 3.15576L178 3.19103Z" fill="#ECE1D8"/>
<path d="M47.168 190.027C47.1601 189.87 47.1443 189.711 47.1443 189.555C47.1443 174.879 47.1443 160.203 47.1443 145.525C47.1443 145.314 47.1601 145.104 47.1696 144.895C47.2613 144.841 47.353 144.786 47.4431 144.732C50.3005 145.441 53.1642 146.127 56.0105 146.877C56.7269 147.066 56.9356 146.825 57.0779 146.19C57.4732 144.445 57.9413 142.716 58.3255 140.968C58.4631 140.344 58.6718 140.158 59.3218 140.335C61.477 140.922 63.6561 141.418 65.805 142.026C66.5213 142.229 66.7285 142.004 66.8645 141.369C67.0874 140.341 67.3831 139.329 67.6282 138.305C67.7421 137.83 67.9587 137.721 68.4205 137.916C70.6959 138.88 72.9793 139.822 75.2611 140.77C75.2231 140.805 75.1915 140.854 75.1472 140.872C66.8534 144.189 61.8423 153.108 63.5153 161.921C64.9543 169.506 69.385 174.725 76.7617 177.038C83.9803 179.301 90.4683 177.577 95.9649 172.41C98.8191 169.726 100.611 166.378 101.313 162.486C101.367 162.359 101.422 162.233 101.476 162.106C102.416 161.976 102.796 162.413 103.081 163.32C103.792 165.597 105.177 167.378 107.431 168.365C109.333 169.198 111.313 169.258 113.316 168.889C113.849 168.791 114.167 168.889 114.526 169.326C115.827 170.916 117.527 171.747 119.596 171.845C122.119 171.965 124.357 171.09 126.493 169.891C126.945 169.638 127.179 169.706 127.491 170.042C128.01 170.602 128.552 171.144 129.102 171.674C131.25 173.745 134.412 174.165 136.9 172.708C137.184 172.542 137.542 172.418 137.559 171.995C137.72 171.962 137.882 171.929 138.043 171.896C138.93 171.851 139.728 171.522 140.472 171.069C143.04 169.505 144.332 167.09 144.958 164.242C145.208 163.561 145.956 163.631 146.417 163.27C147.502 162.905 148.587 162.543 149.781 162.142C149.333 163.285 148.832 164.242 148.764 165.334C148.313 165.667 147.79 165.532 147.308 165.504C146.574 165.459 146.42 165.79 146.433 166.444C146.446 167.063 146.526 167.421 147.289 167.408C149.684 167.367 152.081 167.388 154.479 167.396C154.806 167.396 155.17 167.28 155.448 167.575C155.277 167.807 155.103 168.039 154.934 168.271C153.241 170.588 151.47 172.857 150.483 175.605C150.304 176.104 150.125 176.6 150.149 177.138C150.163 177.463 150.23 177.784 150.552 177.944C150.869 178.099 151.109 177.876 151.335 177.707C151.846 177.323 152.238 176.825 152.608 176.31C154.556 173.595 156.147 170.705 156.873 167.404C159.914 167.399 162.953 167.397 165.994 167.388C166.272 167.388 166.577 167.478 166.808 167.222C167.491 167.334 168.174 167.313 168.854 167.195C169.423 167.6 170.067 167.372 170.673 167.383C172.461 167.418 172.461 167.396 172.475 165.638C174.235 164.527 175.885 163.265 177.463 161.91C177.681 161.723 177.939 161.564 177.937 161.224C177.937 160.988 177.972 160.722 177.758 160.567C177.486 160.369 177.344 160.665 177.18 160.79C176.658 161.191 176.164 161.629 175.641 162.027C173.666 163.525 171.651 164.972 169.24 165.689C166.78 166.42 166.03 165.782 166.171 163.235C166.199 162.706 166.489 161.967 165.951 161.694C165.322 161.376 164.798 161.99 164.325 162.397C163.822 162.831 163.343 163.292 162.708 163.874C162.831 162.879 162.905 162.122 162.705 161.366C162.475 160.504 162.352 160.45 161.632 160.96C160.309 161.898 159.286 163.145 158.19 164.318C158.143 164.27 158.097 164.223 158.049 164.174C158.324 163.434 158.623 162.701 158.565 161.884C158.445 160.23 157.273 159.584 155.81 160.355C154.907 160.831 154.268 161.602 153.644 162.358C152.853 163.314 152.093 164.288 151.074 165.011C150.712 165.268 150.268 165.518 149.844 165.198C149.381 164.848 149.747 164.438 149.883 164.063C150.17 163.274 150.587 162.533 150.733 161.691C150.839 161.075 150.636 160.795 149.978 160.868C149.445 160.926 148.963 161.135 148.462 161.286C148.465 160.687 148.898 160.238 149.017 159.679C149.523 159.66 150.027 159.642 150.533 159.623C150.794 159.815 151.046 160.434 151.324 159.637C153.38 159.631 155.434 159.62 157.489 159.62C162.18 159.617 166.87 159.62 171.561 159.614C171.859 159.614 172.214 159.728 172.412 159.368C172.852 158.567 172.361 157.748 171.441 157.748C165.486 157.748 159.531 157.75 153.574 157.742C153.223 157.742 152.826 157.872 152.534 157.538C152.576 156.643 152.431 156.548 151.655 156.924C151.226 157.131 150.899 157.46 150.552 157.769C150.178 157.756 149.803 157.742 149.428 157.729C149.373 156.677 149.373 156.656 150.38 156.65C151 156.645 151.575 156.472 152.153 156.295C154.944 155.435 157.077 152.069 156.754 149.195C156.653 148.29 156.324 147.444 156.13 146.48C157.149 146.732 158.038 146.603 158.897 146.356C161.439 145.622 163.092 143.426 163.174 140.72C163.187 140.327 163.204 140.02 163.677 139.876C166.952 138.878 170.22 137.862 173.486 136.837C173.875 136.715 174.049 136.779 174.14 137.203C174.306 137.976 174.558 138.729 174.724 139.5C174.846 140.067 175.073 140.2 175.657 140.037C177.812 139.437 179.988 138.915 182.148 138.332C182.757 138.167 183.052 138.286 183.203 138.946C183.603 140.72 184.099 142.472 184.488 144.247C184.645 144.96 184.899 145.05 185.554 144.814C186.765 144.377 188.011 144.038 189.243 143.66C189.248 144.029 189.257 144.398 189.257 144.767C189.257 158.1 189.259 171.432 189.257 184.765C189.257 185.528 189.243 186.29 189.408 187.042C189.163 187.87 189.287 188.719 189.321 189.552C189.351 190.304 189.15 190.509 188.37 190.514C177.762 190.581 167.153 190.313 156.545 190.642C155.703 190.343 154.828 190.498 153.971 190.497C121.884 190.487 89.7963 190.489 57.7073 190.492C56.8644 190.492 56.0216 190.503 55.1788 190.509C55.0776 190.506 54.978 190.502 54.8768 190.498L54.8625 190.495C54.2854 190.262 53.705 190.293 53.1231 190.475C51.4375 190.475 49.7502 190.475 48.0646 190.475C47.7641 190.327 47.4653 190.18 47.1648 190.033L47.168 190.027Z" fill="#FDFEFD"/>
<path opacity="0.28" d="M156.547 190.638C167.154 190.307 177.763 190.576 188.372 190.51C189.152 190.505 189.351 190.299 189.322 189.547C189.289 188.714 189.164 187.865 189.409 187.037C189.801 187.01 190.195 186.996 190.586 186.955C192.858 186.721 195.129 186.482 197.401 186.244C197.561 187.736 197.703 189.23 197.89 190.72C197.956 191.248 197.771 191.415 197.268 191.468C194.993 191.707 192.724 192 190.447 192.221C189.901 192.275 189.707 192.448 189.737 192.986C189.773 193.643 189.713 194.307 189.754 194.964C189.792 195.568 189.539 195.762 188.968 195.717C188.522 195.682 188.073 195.709 187.626 195.709C178.747 195.709 169.866 195.724 160.987 195.701C157.711 195.694 154.493 196.273 151.25 196.58C148.082 196.881 144.925 197.269 141.764 197.622C138.158 198.026 134.553 198.434 130.948 198.838C127.916 199.177 124.885 199.505 121.854 199.845C118.274 200.247 114.697 200.662 111.117 201.059C108.06 201.398 104.999 201.71 101.942 202.052C97.396 202.559 92.853 203.088 88.3068 203.596C84.8311 203.986 81.3554 204.353 77.8798 204.738C74.1954 205.145 70.511 205.563 66.8266 205.969C63.7953 206.304 60.7624 206.634 57.7295 206.956C56.7032 207.065 56.6969 207.049 56.5878 206.026C56.4376 204.616 56.1403 203.218 56.1703 201.789C56.64 201.93 57.0922 201.804 57.5476 201.705C57.7058 201.688 57.8639 201.671 58.022 201.653C61.1403 201.387 64.2475 201.031 67.35 200.616C67.456 200.605 67.5619 200.596 67.6694 200.584C69.4689 200.464 71.2605 200.263 73.041 199.98C73.147 199.97 73.2529 199.961 73.3589 199.951C73.5692 199.942 73.7795 199.945 73.9882 199.923C77.7058 199.516 81.425 199.115 85.141 198.694C88.6989 198.292 92.2537 197.867 95.81 197.453C95.9159 197.442 96.0218 197.432 96.1278 197.421C96.988 197.34 97.8498 197.274 98.7085 197.177C103.53 196.629 108.35 196.075 113.169 195.523C113.321 195.504 113.471 195.483 113.623 195.464C114.376 195.448 115.125 195.394 115.861 195.219C116.049 195.258 116.232 195.261 116.401 195.149C116.809 195.196 117.206 195.127 117.6 195.03C117.787 195.06 117.968 195.051 118.135 194.949C118.258 194.938 118.38 194.929 118.503 194.918C118.712 194.918 118.924 194.934 119.131 194.911C123.076 194.476 127.02 194.034 130.965 193.596C138.41 192.769 145.856 191.952 153.301 191.108C154.387 190.985 155.499 190.993 156.553 190.638H156.547Z" fill="#85D663"/>
<path d="M197.401 186.243C195.129 186.48 192.858 186.719 190.586 186.954C190.195 186.993 189.801 187.009 189.409 187.036C189.245 186.284 189.259 185.522 189.259 184.759C189.262 171.426 189.259 158.094 189.259 144.761C189.259 144.392 189.249 144.023 189.245 143.654C190.35 143.28 191.454 142.908 192.559 142.534C192.618 142.55 192.674 142.566 192.733 142.582C192.768 144.772 193.149 146.928 193.38 149.097C194.08 155.67 194.834 162.236 195.56 168.805C196.171 174.328 196.77 179.852 197.369 185.377C197.401 185.663 197.391 185.954 197.401 186.243Z" fill="#ECE1D8"/>
<path opacity="0.28" d="M48.0662 190.467C49.7519 190.467 51.4391 190.467 53.1247 190.467C53.7051 190.473 54.2854 190.481 54.8641 190.487L54.8784 190.491C54.9986 191.445 55.1535 192.397 55.2294 193.355C55.2943 194.172 55.5836 194.981 55.3686 195.814C54.3281 195.59 53.2734 195.735 52.2266 195.712C50.9647 195.685 49.7013 195.682 48.4394 195.717C47.8227 195.735 47.6029 195.516 47.6092 194.897C47.625 193.502 47.5839 192.107 47.5649 190.714C47.6361 190.437 47.9049 190.562 48.0662 190.468V190.467Z" fill="#85D663"/>
<path d="M55.3701 195.815C55.5851 194.981 55.2958 194.173 55.2309 193.356C55.155 192.399 55.0001 191.447 54.8799 190.492C54.9811 190.495 55.0807 190.5 55.1819 190.503C55.2278 191.339 55.2847 192.18 55.3717 193.008C55.465 193.909 55.5108 194.834 55.8144 195.708C55.7559 197.256 56.0848 198.764 56.2762 200.287C56.3758 201.085 56.5466 201.748 57.5475 201.702C57.0937 201.8 56.6399 201.927 56.1702 201.786C55.9773 200.184 55.7875 198.581 55.5915 196.979C55.5662 196.773 55.5171 196.571 55.4792 196.366C55.5077 196.167 55.5298 195.967 55.3479 195.819L55.3717 195.814L55.3701 195.815Z" fill="#CCD7D6"/>
<path d="M47.4431 144.732C47.3514 144.786 47.2597 144.841 47.1696 144.895C47.1364 144.659 47.1047 144.425 47.0715 144.189C47.2391 142.012 47.1474 139.831 47.1237 137.651C47.1791 137.654 47.2344 137.656 47.2882 137.657C47.4669 137.973 47.4289 138.319 47.4305 138.66C47.4368 140.683 47.44 142.707 47.4447 144.732H47.4431Z" fill="#CCD7D6"/>
<path d="M48.0663 190.467C47.905 190.56 47.6362 190.435 47.565 190.712C47.3389 190.537 46.9973 190.429 47.1665 190.025C47.467 190.172 47.7658 190.32 48.0663 190.467Z" fill="#CCD7D6"/>
<path d="M55.3464 195.82C55.5283 195.97 55.5061 196.168 55.4777 196.368C55.4334 196.186 55.3907 196.002 55.3464 195.82Z" fill="#036FA8"/>
<path d="M67.5129 97.097C67.6014 96.7107 67.69 96.3243 67.7785 95.938C70.2469 96.6679 72.7011 97.306 75.3371 97.2632C81.2511 97.1667 87.1666 97.2474 93.0822 97.2553C90.9965 98.8086 88.8966 100.343 86.8314 101.923C85.3324 103.069 83.7337 103.231 81.999 102.605C80.0951 101.92 78.1881 101.241 76.2779 100.572C75.9253 100.449 75.4715 100.207 75.443 100.919C75.0524 101.725 75.0002 102.618 74.782 103.468C73.7178 107.596 72.6726 111.727 71.5863 115.849C70.326 120.625 69.2064 125.44 67.826 130.186C67.5255 131.801 67.1191 133.387 66.5657 134.934C66.6147 134.174 66.7001 133.413 66.7048 132.653C66.7238 129.177 66.8946 125.708 67.0037 122.236C67.1286 118.317 67.1934 114.395 67.3358 110.476C67.4401 107.582 67.4638 104.684 67.5287 101.79C67.5334 101.581 67.5967 101.374 67.6014 101.165C67.6267 99.8093 67.8402 98.4476 67.5129 97.1002V97.097Z" fill="#FDFEFD"/>
<path d="M67.5128 97.097C67.8401 98.4461 67.6282 99.8061 67.6013 101.161C67.5966 101.37 67.5333 101.578 67.5286 101.787C67.4638 104.683 67.44 107.58 67.3357 110.473C67.1934 114.392 67.1285 118.314 67.0036 122.233C66.8929 125.705 66.7237 129.174 66.7047 132.649C66.7 133.411 66.6146 134.171 66.5656 134.931C65.65 134.86 64.7803 134.568 63.8901 134.38C62.1032 134.003 60.3954 133.314 58.5864 133.023C58.8284 131.918 59.0703 130.814 59.3122 129.709C59.9953 127.033 60.6911 124.361 61.3568 121.682C63.3524 113.656 65.3353 105.628 67.3246 97.6005C67.3673 97.4248 67.3562 97.2285 67.5128 97.0955V97.097Z" fill="#CCD7D6"/>
<path d="M93.0823 97.2553C87.1667 97.2473 81.2511 97.1682 75.3371 97.2632C72.7011 97.3059 70.2469 96.6678 67.7786 95.9379C67.8181 95.7463 67.8576 95.5563 67.8972 95.3647C77.0449 95.3711 86.1942 95.3758 95.3419 95.3806C95.2897 95.6957 95.0826 95.9221 94.8264 96.044C94.1749 96.3528 93.661 96.8468 93.0823 97.2537V97.2553Z" fill="#B5C9BB"/>
<path d="M172.836 90.1082C173.307 91.7912 173.756 93.4791 174.055 95.2034C173.833 95.4804 173.911 95.8098 173.916 96.1185C173.939 97.5657 173.99 99.0113 174.036 100.457C174.142 103.848 174.264 107.24 174.355 110.631C174.463 114.629 174.574 118.627 174.687 122.625C174.784 126.044 174.822 129.464 175.026 132.879C174.438 131.844 174.384 130.635 173.963 129.546C173.933 129.391 173.909 129.234 173.871 129.082C171.8 121.032 169.708 112.989 167.668 104.931C167.233 103.215 166.575 101.559 166.31 99.7982C166.177 98.606 166.129 98.5743 165.037 98.9115C163.985 99.2377 162.931 99.5544 161.879 99.8853C160.457 100.333 159.042 100.329 157.628 99.8536C155.989 99.3011 154.654 98.207 153.184 97.3535C153.501 97.173 153.851 97.2316 154.189 97.2316C157.69 97.2285 161.191 97.2269 164.691 97.2332C165.198 97.2332 165.676 97.2633 165.541 96.5049C165.473 96.1185 165.786 96.0425 166.08 95.9634C166.624 95.8177 167.165 95.6546 167.708 95.4994C167.423 95.3617 167.167 95.3617 166.911 95.3617C162.383 95.3617 157.856 95.3554 153.329 95.3601C152.33 95.3601 151.33 95.3902 150.331 95.406C150.032 95.3886 149.79 95.2445 149.542 95.0878C147.541 93.8353 145.525 92.6098 143.538 91.34C142.959 90.9711 142.292 90.7162 141.846 90.1509C151.808 90.1509 161.771 90.1509 171.734 90.1509C172.1 90.1509 172.467 90.1224 172.836 90.1082Z" fill="#FDFEFD"/>
<path d="M175.026 132.879C174.822 129.464 174.784 126.044 174.687 122.625C174.573 118.627 174.463 114.629 174.355 110.631C174.264 107.24 174.142 103.848 174.036 100.457C173.992 99.0113 173.939 97.5657 173.916 96.1185C173.911 95.8114 173.833 95.482 174.055 95.2034C174.622 96.7345 174.909 98.3431 175.301 99.9217C177.598 109.145 179.869 118.374 182.151 127.6C182.17 127.675 182.214 127.743 182.246 127.814C182.488 128.925 182.73 130.037 182.972 131.147C182.685 131.16 182.387 131.122 182.116 131.191C180.225 131.677 178.343 132.205 176.449 132.673C175.99 132.787 175.538 133.085 175.027 132.881L175.026 132.879Z" fill="#CCD7D6"/>
<path d="M172.836 90.1083C172.469 90.1225 172.102 90.151 171.733 90.151C161.771 90.1526 151.808 90.151 141.846 90.151C140.78 89.7583 139.897 89.068 139.002 88.3951C146.959 88.3887 154.916 88.3824 162.874 88.3777C165.799 88.3761 168.723 88.3777 171.648 88.3777C172.409 88.3777 172.798 88.7614 172.815 89.5288C172.821 89.7219 172.828 89.9135 172.834 90.1067L172.836 90.1083Z" fill="#B5C9BB"/>
<path d="M58.5865 133.026C60.3955 133.318 62.1033 134.005 63.8901 134.383C64.7804 134.572 65.6501 134.863 66.5656 134.934C67.1207 133.387 67.5271 131.801 67.8259 130.186C67.9524 130.529 68.2023 130.7 68.5438 130.841C73.7368 132.987 78.9234 135.151 84.1116 137.311C84.1084 137.623 84.0562 137.881 83.7827 138.12C83.4285 138.43 83.1581 138.839 82.8529 139.205C82.7279 139.276 82.603 139.347 82.4781 139.418C80.0935 139.383 77.7943 139.817 75.5774 140.694C75.4714 140.72 75.3671 140.747 75.2611 140.772C72.9793 139.822 70.6959 138.88 68.4205 137.917C67.9603 137.723 67.7437 137.832 67.6283 138.307C67.3832 139.33 67.0875 140.341 66.8645 141.371C66.7269 142.005 66.5198 142.23 65.805 142.028C63.6561 141.418 61.4771 140.924 59.3218 140.337C58.6734 140.159 58.4631 140.346 58.3256 140.97C57.9413 142.718 57.4733 144.447 57.0779 146.192C56.934 146.827 56.7253 147.067 56.0106 146.879C53.1643 146.128 50.3005 145.443 47.4432 144.734C47.4384 142.71 47.4353 140.687 47.4289 138.661C47.4289 138.321 47.4653 137.974 47.2866 137.659C49.7582 138.251 52.2266 138.853 54.7013 139.433C55.3844 139.592 56.1877 140.107 56.7237 139.79C57.2629 139.471 57.1744 138.513 57.3562 137.837C57.7848 136.239 58.1785 134.632 58.5849 133.029L58.5865 133.026Z" fill="#C6C1BB"/>
<path d="M175.026 132.879C175.538 133.083 175.989 132.786 176.447 132.672C178.343 132.203 180.223 131.676 182.115 131.19C182.385 131.12 182.684 131.158 182.97 131.145C183.588 133.096 184 135.101 184.482 137.086C184.643 137.75 184.844 137.951 185.567 137.748C187.456 137.218 189.381 136.819 191.277 136.312C191.737 136.188 191.941 136.307 192.097 136.687L192.089 136.67C192.04 137.186 192.031 137.699 192.249 138.188C192.191 139.338 192.448 140.462 192.526 141.602C192.546 141.912 192.548 142.224 192.559 142.536C191.454 142.91 190.35 143.282 189.245 143.655C188.013 144.035 186.767 144.373 185.555 144.81C184.901 145.046 184.646 144.955 184.49 144.243C184.101 142.466 183.603 140.715 183.204 138.942C183.055 138.28 182.76 138.163 182.149 138.327C179.989 138.91 177.814 139.434 175.658 140.033C175.073 140.196 174.847 140.063 174.725 139.496C174.559 138.723 174.308 137.97 174.142 137.199C174.05 136.774 173.876 136.711 173.487 136.833C170.22 137.857 166.952 138.872 163.678 139.871C163.206 140.015 163.188 140.322 163.176 140.715C163.093 143.421 161.441 145.617 158.898 146.352C158.041 146.6 157.152 146.729 156.131 146.475C156.325 147.44 156.653 148.285 156.756 149.191C157.078 152.065 154.945 155.432 152.154 156.291C151.577 156.468 151.001 156.64 150.381 156.645C149.374 156.652 149.374 156.672 149.429 157.725C148.669 157.728 147.91 157.742 147.149 157.731C146.409 157.72 146.566 158.259 146.574 158.673C146.58 159.079 146.384 159.633 147.132 159.633C147.76 159.633 148.389 159.658 149.017 159.674C148.898 160.233 148.465 160.683 148.462 161.281C148.15 161.427 147.839 161.571 147.529 161.717C146.798 161.94 146.068 162.162 145.279 162.404C145.359 160.573 145.119 158.856 145.052 157.128C147.026 155.643 148.846 154.041 149.382 151.455C150.076 151.439 150.805 151.178 151.435 151.647C151.635 151.795 151.775 152.003 152.02 151.81C152.222 151.65 152.219 151.404 152.183 151.159C152.111 150.681 151.798 150.438 151.376 150.293C150.734 150.071 150.086 150.147 149.436 150.244C149.289 149.511 149.836 149.547 150.266 149.541C151.876 149.515 153.27 148.906 154.404 147.828C156.631 145.712 157.345 143.157 156.332 140.196C156.144 139.643 156.144 139.415 156.89 139.477C160.143 139.746 163.092 137.039 163.158 133.755C163.171 133.104 163.425 132.849 164.025 132.667C167.345 131.652 170.653 130.593 173.965 129.548C174.387 130.637 174.439 131.844 175.027 132.881L175.026 132.879Z" fill="#C6C1BB"/>
<path d="M192.251 138.188C192.032 137.699 192.042 137.187 192.091 136.67C192.404 137.148 192.2 137.681 192.251 138.188Z" fill="#33455A"/>
<path d="M82.8529 139.203C83.1597 138.837 83.4285 138.429 83.7827 138.118C84.0563 137.879 84.1084 137.621 84.1116 137.309C84.5417 137.339 84.7726 137.026 85.024 136.763C86.3713 135.357 87.709 133.941 89.061 132.54C92.9541 128.501 96.8504 124.465 100.747 120.429C103.582 117.492 106.419 114.555 109.254 111.618C110.162 110.677 110.997 109.802 112.521 109.745C116.193 109.605 119.766 108.792 123.179 107.431C124.354 106.963 125.301 106.599 126.126 107.884C126.247 108.071 126.495 108.176 126.68 108.323C130.503 111.383 134.572 113.896 139.602 114.427C142.069 114.686 144.37 114.218 146.549 113.122C147.33 112.729 148.122 112.254 148.462 111.342L148.457 111.35C148.513 111.295 148.568 111.239 148.623 111.184L148.615 111.193C148.672 111.121 148.728 111.046 148.785 110.973C149.045 110.441 149.389 109.968 149.428 109.319C149.531 107.58 148.702 106.371 147.409 105.359C145.9 104.179 144.42 102.965 142.923 101.773C141.814 100.891 140.69 100.026 139.585 99.1411C138.089 97.9425 136.629 96.6964 135.103 95.5374C133.734 94.4971 132.432 93.3618 130.747 92.7697C129.049 92.1728 127.296 91.8688 125.555 91.4856C123.479 91.0296 121.401 90.5831 119.325 90.1287C118.952 90.0463 118.419 90.1287 118.277 89.7534C118.15 89.4209 118.87 89.6204 118.9 89.2087C119.096 89.1897 119.292 89.1707 119.488 89.1502C119.904 89.109 120.283 89.0077 120.483 88.5849C120.541 88.5738 120.6 88.5612 120.657 88.5501C120.701 88.5089 120.744 88.4677 120.788 88.425C122.119 88.1954 123.348 87.6333 124.616 87.2074C125.714 86.8385 126.79 86.4062 127.894 86.0563C130.943 85.0905 133.856 85.3834 136.636 87.0142C137.423 87.4766 138.098 88.1384 139.004 88.3965C139.898 89.0694 140.782 89.7597 141.847 90.1524C142.292 90.7177 142.961 90.9726 143.539 91.3415C145.527 92.6113 147.543 93.8384 149.544 95.0893C149.792 95.2444 150.034 95.3901 150.333 95.4059C151.191 96.1913 152.282 96.633 153.184 97.355C154.654 98.2085 155.989 99.3041 157.629 99.8551C159.042 100.33 160.458 100.335 161.879 99.8868C162.929 99.5559 163.984 99.2392 165.037 98.9131C166.13 98.5758 166.176 98.6059 166.31 99.7997C166.267 99.9216 166.191 100.044 166.188 100.167C166.13 102.039 166.315 103.901 166.432 105.763C166.49 106.684 166.451 107.606 166.528 108.524C166.841 112.219 167.01 115.923 167.118 119.626C167.216 122.975 165.314 125.575 162.15 126.734C161.568 126.946 160.911 127.025 160.445 127.505C160.309 127.429 160.144 127.382 160.042 127.274C158.34 125.516 156.394 124.028 154.631 122.34C153.275 121.042 150.037 120.641 148.588 122.516C148.407 122.752 148.384 123.141 148.007 123.216C147.948 123.271 147.888 123.327 147.829 123.382L147.836 123.376C146.425 124.389 145.975 125.888 145.747 127.502C145.14 127.226 144.681 126.747 144.216 126.302C143.092 125.227 141.73 124.733 140.236 124.661C137.904 124.549 136.149 125.551 135.048 127.643C134.686 127.665 134.485 127.931 134.319 128.187C133.522 129.413 132.877 130.703 132.97 132.223C133.008 132.833 132.812 133.105 132.173 133.037C131.87 133.004 131.539 132.964 131.259 133.167C130.918 133.175 130.576 133.194 130.234 133.186C128.592 133.15 127.323 133.808 126.335 135.134C125.155 136.714 124.839 138.448 125.198 140.346C124.999 140.614 125.116 140.889 125.16 141.172C125.279 141.928 125.622 142.609 125.839 143.331C125.589 143.34 125.397 143.199 125.184 143.098C122.798 141.967 120.176 142.48 118.405 144.355C117.772 145.025 117.553 145.904 117.069 146.643C116.811 146.795 116.849 147.051 116.841 147.292L116.847 147.283C116.307 148.336 116.311 149.46 116.454 150.59C116.691 152.481 117.409 154.199 118.418 155.799C118.756 156.335 118.803 156.737 118.269 157.229C117.088 158.317 115.986 159.492 114.834 160.614C114.116 161.314 113.37 161.827 112.26 161.94C108.416 162.329 104.66 160.652 103.244 156.708C103.079 156.252 103.142 155.985 103.47 155.674C105.476 153.776 107.486 151.879 109.469 149.955C113.797 145.755 118.111 141.537 122.429 137.323C122.598 137.159 122.779 136.992 122.902 136.796C123.07 136.527 123.062 136.234 122.815 136.003C122.58 135.781 122.3 135.726 122.026 135.928C121.816 136.085 121.624 136.269 121.436 136.451C118.614 139.174 115.774 141.88 112.975 144.627C109.798 147.745 106.605 150.847 103.392 153.926C102.572 154.713 101.839 155.093 100.631 154.954C97.5351 154.596 95.2407 153.147 93.7116 150.459C92.6078 148.518 92.6426 148.369 94.2192 146.868C94.2571 146.831 94.2951 146.795 94.333 146.759C97.2426 144.013 100.152 141.269 103.06 138.524C104.132 137.512 105.203 136.498 106.276 135.488C108.617 133.291 110.962 131.096 113.301 128.897C113.609 128.607 113.846 128.265 113.452 127.883C113.068 127.51 112.695 127.651 112.345 127.983C111.506 128.78 110.658 129.571 109.812 130.361C107.467 132.554 105.121 134.744 102.777 136.939C99.4343 140.069 96.0456 143.153 92.7786 146.361C91.4836 147.633 89.9355 148.054 88.3305 148.011C84.1053 147.895 81.7049 143.937 82.7185 140.099C82.7944 139.809 83.0474 139.537 82.8513 139.204L82.8529 139.203Z" fill="#FEA474"/>
<path d="M118.898 89.2073C118.868 89.6174 118.149 89.4194 118.275 89.7519C118.418 90.1272 118.95 90.0449 119.324 90.1272C121.4 90.5816 123.478 91.0281 125.554 91.4841C127.295 91.8673 129.047 92.1713 130.745 92.7682C132.432 93.3604 133.732 94.4941 135.102 95.5359C136.628 96.6949 138.087 97.941 139.583 99.1396C140.69 100.025 141.813 100.889 142.921 101.771C144.419 102.963 145.9 104.178 147.407 105.357C148.701 106.369 149.529 107.579 149.427 109.317C149.389 109.968 149.044 110.44 148.783 110.973C148.726 111.046 148.671 111.119 148.614 111.192L148.622 111.182C148.566 111.238 148.511 111.293 148.456 111.349L148.46 111.341C147.561 111.887 146.643 112.376 145.605 112.631C142.374 113.42 139.398 112.59 136.507 111.227C132.681 109.422 129.385 106.841 126.261 104.034C125.728 103.554 125.382 103.578 124.858 103.996C123.591 105.007 122.141 105.717 120.638 106.29C116.194 107.984 111.645 108.079 107.039 107.104C106.607 107.012 106.275 106.907 106.071 107.506C105.299 109.764 104.116 111.825 102.896 113.862C99.9719 118.74 96.4788 123.198 92.7248 127.448C90.6802 129.761 88.0474 130.658 85.0192 129.872C83.4205 129.457 81.8788 128.811 80.3291 128.222C76.7238 126.853 74.8563 124.101 74.918 120.26C74.9464 118.547 75.0255 116.835 75.0872 115.123C75.2342 111.015 75.3955 106.906 75.5252 102.797C75.5458 102.175 75.6865 101.535 75.4414 100.919C75.4699 100.207 75.9237 100.449 76.2763 100.573C78.1865 101.241 80.0935 101.92 81.9974 102.606C83.7321 103.231 85.3307 103.071 86.8298 101.923C88.895 100.343 90.9949 98.8102 93.0806 97.2554C93.6578 96.8485 94.1717 96.3545 94.8232 96.0457C95.0809 95.9238 95.2865 95.6958 95.3387 95.3823C95.5996 95.357 95.84 95.3158 96.0677 95.1448C98.0316 93.6691 100.007 92.2077 101.978 90.74C102.186 90.5848 102.426 90.4518 102.45 90.1494C103.448 89.5635 104.445 88.9761 105.443 88.3903C106.733 88.2161 107.997 87.768 109.331 88.053C109.997 88.1955 110.674 88.2858 111.346 88.3982C111.893 88.5502 112.432 88.7766 112.989 88.8415C114.384 89.003 115.702 89.5746 117.14 89.5382C117.76 89.5224 118.278 89.1265 118.897 89.2089L118.898 89.2073Z" fill="#FEC287"/>
<path d="M118.115 58.8008C135.981 58.8008 153.846 58.8008 171.713 58.8008C172.787 58.8008 172.793 58.8372 172.793 59.9107C172.793 60.4934 172.584 60.7435 172.002 60.6755C171.846 60.6565 171.686 60.6739 171.528 60.6739C135.981 60.6739 100.435 60.6739 64.8878 60.6739C64.5985 60.6739 64.3075 60.6691 64.0181 60.6691C63.7288 60.6691 63.6165 60.5266 63.5706 60.24C63.3777 59.0019 63.5327 58.8024 64.7566 58.8024C82.5429 58.8024 100.329 58.8024 118.117 58.8024L118.115 58.8008Z" fill="#B5C9BB"/>
<path d="M118.187 83.3077C100.348 83.3077 82.5113 83.3077 64.6729 83.3077C63.6545 83.3077 63.2181 82.6537 63.596 81.7085C63.6814 81.4947 63.8332 81.4472 64.0277 81.4441C64.2649 81.4393 64.5021 81.4377 64.7393 81.4377C100.362 81.4377 135.986 81.4377 171.607 81.4377C172.668 81.4377 172.605 81.4441 172.679 82.4447C172.741 83.2713 172.344 83.3172 171.7 83.3172C153.862 83.3061 136.025 83.3077 118.187 83.3077Z" fill="#B5C9BB"/>
<path d="M118.196 66.6746C136.006 66.6746 153.816 66.6746 171.626 66.6698C172.241 66.6698 172.719 66.6144 172.722 67.5343C172.725 68.4622 172.275 68.4606 171.604 68.4606C141.833 68.4527 112.062 68.4527 82.2916 68.4543C76.3902 68.4543 70.4889 68.4543 64.5875 68.4543C63.6688 68.4543 63.2276 67.756 63.6072 66.9216C63.7036 66.7094 63.8696 66.6841 64.0562 66.6809C64.4516 66.6746 64.8469 66.6746 65.2422 66.6746C82.8941 66.6746 100.546 66.6746 118.198 66.6746H118.196Z" fill="#B5C9BB"/>
<path d="M118.114 75.4337C100.277 75.4337 82.4417 75.4337 64.6048 75.4337C63.5406 75.4337 63.5659 75.4321 63.5596 74.3934C63.5565 73.8614 63.7035 73.6223 64.2759 73.6524C65.0381 73.692 65.8035 73.6587 66.5672 73.6587C101.582 73.6587 136.596 73.6588 171.61 73.6556C172.202 73.6556 172.743 73.5511 172.717 74.4995C172.697 75.2912 172.433 75.4495 171.704 75.4479C153.841 75.4305 135.978 75.4337 118.115 75.4337H118.114Z" fill="#B5C9BB"/>
<path d="M118.19 52.8031C102.989 52.8031 87.7881 52.8031 72.5872 52.8031C71.5088 52.8031 71.1562 52.3677 71.3696 51.3259C71.4187 51.0852 71.5641 51.0377 71.7618 51.0329C71.999 51.0266 72.2362 51.025 72.4734 51.025C102.769 51.025 133.065 51.025 163.361 51.025C163.546 51.025 163.732 51.044 163.914 51.0218C164.604 50.9379 164.947 51.0931 164.955 51.9307C164.963 52.83 164.507 52.8094 163.872 52.8079C148.644 52.7984 133.418 52.8015 118.19 52.8015V52.8031Z" fill="#B5C9BB"/>
<path d="M105.445 88.3887C104.447 88.9746 103.449 89.562 102.451 90.1478C89.7868 90.151 77.1208 90.1478 64.4562 90.1684C63.7004 90.1684 63.6893 89.7868 63.6877 89.2295C63.6877 88.6785 63.7557 88.3634 64.4483 88.365C78.1138 88.3872 91.7793 88.3856 105.445 88.3887Z" fill="#B5C9BB"/>
<path d="M189.273 8.41406C189.301 8.42515 189.33 8.44098 189.354 8.46156C189.505 9.2469 189.414 10.0402 189.414 10.8287C189.418 34.9414 189.418 59.0541 189.414 83.1669C189.414 83.4788 189.48 83.8018 189.325 84.101C189.309 83.7606 189.279 83.4186 189.279 83.0782C189.279 58.4541 189.279 33.8299 189.281 9.20415C189.281 8.94132 189.275 8.6769 189.27 8.41406H189.273Z" fill="#4E6A84"/>
<path d="M118.898 89.2074C118.28 89.1266 117.763 89.5209 117.141 89.5367C115.704 89.5732 114.385 89.0032 112.99 88.8401C112.432 88.7752 111.895 88.5487 111.347 88.3967C114.447 88.3967 117.548 88.3999 120.647 88.4015C120.647 88.4506 120.647 88.4996 120.655 88.5487C120.596 88.5598 120.538 88.5725 120.481 88.5836C120.068 88.6279 119.708 88.7656 119.486 89.1488C119.29 89.1678 119.094 89.1868 118.898 89.2074Z" fill="#B5C9BB"/>
<path d="M120.657 88.5494C120.65 88.5001 120.647 88.4508 120.649 88.4016C120.696 88.3984 120.744 88.4063 120.788 88.4254C120.744 88.4667 120.701 88.5081 120.657 88.551V88.5494Z" fill="#FEC287"/>
<path d="M55.8129 195.709C55.5093 194.837 55.4651 193.911 55.3702 193.01C55.2832 192.182 55.2263 191.341 55.1804 190.505C56.0232 190.498 56.8661 190.487 57.7089 190.487C89.7963 190.486 121.884 190.483 153.973 190.492C154.83 190.492 155.704 190.337 156.547 190.638C155.492 190.992 154.382 190.985 153.294 191.108C145.851 191.952 138.405 192.769 130.959 193.596C127.013 194.034 123.07 194.474 119.124 194.911C118.917 194.933 118.705 194.916 118.497 194.918C118.369 194.856 118.236 194.75 118.128 194.949C117.961 195.051 117.78 195.06 117.594 195.03C117.184 194.962 116.762 194.772 116.395 195.149C116.226 195.261 116.042 195.258 115.854 195.218C115.087 195.108 114.344 195.207 113.617 195.464C113.465 195.483 113.315 195.503 113.163 195.522C112.839 195.355 112.494 195.42 112.157 195.446C111.036 195.534 109.915 195.63 108.794 195.722C108.572 195.722 108.351 195.725 108.13 195.727C107.927 195.727 107.726 195.728 107.524 195.73C95.1015 195.728 82.6789 195.727 70.2564 195.722C65.4398 195.722 60.6232 195.714 55.8082 195.711L55.8129 195.709Z" fill="#C6C1BB"/>
<path d="M137.557 171.994C137.538 172.418 137.183 172.54 136.898 172.706C134.411 174.163 131.248 173.745 129.101 171.673C128.55 171.142 128.01 170.601 127.489 170.04C127.178 169.704 126.944 169.635 126.492 169.89C124.355 171.09 122.118 171.964 119.594 171.844C117.524 171.745 115.826 170.914 114.524 169.324C114.166 168.886 113.848 168.789 113.315 168.887C111.311 169.256 109.332 169.196 107.429 168.363C105.176 167.377 103.791 165.596 103.079 163.319C102.796 162.412 102.417 161.976 101.474 162.104C101.575 161.135 101.677 160.165 101.776 159.196C102.374 160.317 103.055 161.379 104.072 162.168C106.338 163.927 108.936 164.145 111.642 163.71C112.189 163.621 112.481 163.716 112.837 164.145C114.475 166.123 116.642 166.899 119.156 166.657C121.59 166.422 123.762 165.423 125.799 164.122C127.537 163.012 127.504 163.021 129.007 164.451C131.109 166.449 133.527 167.002 136.273 165.936C137.289 165.542 137.959 164.726 138.743 164.044C139.181 164.489 139.404 165.03 139.452 165.648C139.455 165.691 139.452 165.733 139.442 165.776C138.237 166.702 137.013 167.616 136.409 169.085C135.847 170.457 136.243 171.421 137.557 171.991V171.994Z" fill="#C6C1BB"/>
<path d="M147.527 161.716C147.839 161.571 148.15 161.427 148.46 161.281C148.963 161.131 149.444 160.922 149.977 160.863C150.635 160.79 150.838 161.07 150.731 161.686C150.585 162.529 150.168 163.27 149.882 164.058C149.746 164.435 149.379 164.844 149.842 165.193C150.266 165.515 150.71 165.265 151.073 165.007C152.091 164.283 152.853 163.309 153.642 162.353C154.267 161.598 154.906 160.827 155.808 160.35C157.271 159.579 158.443 160.225 158.563 161.88C158.623 162.697 158.323 163.43 158.048 164.169C157.973 164.283 157.766 164.399 157.929 164.528C158.032 164.611 158.109 164.403 158.188 164.313C159.283 163.14 160.307 161.894 161.631 160.955C162.35 160.443 162.474 160.499 162.703 161.362C162.904 162.117 162.829 162.875 162.706 163.87C163.342 163.287 163.821 162.826 164.324 162.393C164.795 161.986 165.32 161.37 165.949 161.69C166.487 161.962 166.198 162.701 166.169 163.23C166.028 165.779 166.778 166.416 169.238 165.684C171.648 164.967 173.664 163.52 175.639 162.022C176.163 161.625 176.656 161.186 177.178 160.785C177.341 160.66 177.483 160.364 177.757 160.562C177.97 160.717 177.934 160.983 177.935 161.219C177.937 161.56 177.679 161.718 177.461 161.905C175.883 163.262 174.234 164.522 172.474 165.634C171.31 166.253 170.095 166.756 168.852 167.19C168.173 167.31 167.489 167.329 166.806 167.217C166.137 166.861 165.635 166.356 165.364 165.635C165.261 164.745 165.521 163.876 165.567 162.861C164.234 163.556 163.391 164.609 162.523 165.634C162.214 165.8 162.096 166.142 161.852 166.364C161.604 166.59 161.549 167.2 161.164 167.038C160.804 166.888 160.965 166.349 160.979 165.968C160.979 165.942 160.97 165.917 160.963 165.892C161.764 164.948 161.906 163.765 162.142 162.619C162.173 162.465 162.151 162.271 161.983 162.212C161.789 162.142 161.64 162.301 161.506 162.419C160.388 163.409 159.33 164.457 158.411 165.64C157.815 166.153 157.33 166.764 156.871 167.398C156.144 170.7 154.555 173.588 152.606 176.304C152.238 176.818 151.844 177.317 151.333 177.7C151.107 177.87 150.865 178.093 150.551 177.938C150.228 177.78 150.162 177.458 150.147 177.132C150.124 176.594 150.302 176.096 150.481 175.599C151.468 172.852 153.237 170.582 154.932 168.265C155.103 168.032 155.276 167.801 155.446 167.569C155.612 167.371 155.783 167.176 155.944 166.973C156.087 166.796 156.311 166.622 156.114 166.364C155.927 166.12 155.684 166.25 155.467 166.324C154.585 166.626 153.879 166.411 153.362 165.623C153.302 165.233 153.244 164.844 153.169 164.365C152.755 164.839 152.413 165.228 152.07 165.619C151.697 165.898 151.34 166.204 150.946 166.451C149.679 167.247 148.865 166.823 148.761 165.328C148.827 164.237 149.328 163.279 149.777 162.136C148.584 162.537 147.499 162.899 146.414 163.263C146.438 162.497 147.184 162.248 147.527 161.71V161.716ZM155.592 169.141C155.529 169.16 155.438 169.16 155.405 169.203C153.962 171.076 152.559 172.979 151.499 175.105C151.098 175.91 151.054 176.145 151.055 176.763C153.063 174.462 154.67 172.007 155.581 169.134C155.68 169.131 155.701 169.063 155.693 168.984C155.693 168.971 155.631 168.963 155.598 168.954C155.597 169.016 155.593 169.079 155.592 169.141ZM154.184 163.837C154.175 164.972 154.645 165.315 155.53 164.997C156.272 164.731 156.854 164.248 157.32 163.628C157.885 162.875 157.817 161.968 157.031 161.352C156.425 160.877 156.012 161.577 155.522 161.8C155.203 161.946 155.117 162.564 154.578 162.267C154.468 162.207 154.488 162.34 154.477 162.394C154.366 162.932 154.259 163.471 154.186 163.837H154.184ZM167.665 165.471C167.474 165.488 167.263 165.543 167.26 165.756C167.255 166.004 167.496 165.982 167.668 165.98C167.839 165.98 168.081 166.009 168.073 165.757C168.067 165.551 167.858 165.49 167.665 165.471Z" fill="#312C3E"/>
<path d="M75.2612 140.77C75.3671 140.745 75.4715 140.718 75.5775 140.693C75.8289 140.846 76.2764 140.807 76.1783 141.304L76.1404 141.269C76.0613 141.321 75.9838 141.374 75.9048 141.424C75.549 141.594 75.1948 141.766 74.8374 141.929C67.4639 145.305 63.1422 153.124 64.2333 161.121C65.3797 169.529 71.9595 175.935 80.5316 176.991C88.4697 177.968 96.4536 173.15 99.5355 165.556C100 164.41 100.252 163.211 100.581 162.032C100.973 161.941 101.18 162.15 101.31 162.484C100.608 166.376 98.8176 169.725 95.9618 172.409C90.4668 177.575 83.9772 179.3 76.7587 177.037C69.382 174.725 64.9512 169.505 63.5123 161.919C61.8408 153.106 66.8503 144.187 75.1442 140.87C75.1885 140.853 75.2201 140.804 75.258 140.769L75.2612 140.77Z" fill="#6ED04F"/>
<path d="M152.533 157.533C152.828 157.867 153.223 157.738 153.574 157.738C159.529 157.745 165.484 157.742 171.441 157.744C172.361 157.744 172.851 158.562 172.412 159.364C172.214 159.725 171.858 159.609 171.561 159.609C166.871 159.617 162.179 159.612 157.489 159.615C155.434 159.615 153.379 159.627 151.324 159.633C151.586 159.194 150.611 158.98 151.121 158.49C151.466 158.157 151.866 157.921 152.303 157.734C152.393 157.696 152.458 157.601 152.535 157.532L152.533 157.533Z" fill="#B5C9BB"/>
<path d="M165.366 165.639C165.636 166.357 166.139 166.864 166.808 167.22C166.578 167.477 166.272 167.385 165.993 167.387C162.953 167.396 159.913 167.398 156.873 167.402C157.331 166.768 157.817 166.158 158.413 165.645C158.965 165.634 159.516 165.604 160.067 165.621C160.38 165.632 160.772 165.461 160.965 165.897C160.97 165.922 160.981 165.947 160.981 165.973C160.966 166.353 160.805 166.891 161.166 167.043C161.55 167.205 161.605 166.595 161.854 166.369C162.097 166.147 162.216 165.805 162.524 165.639C163.471 165.639 164.418 165.639 165.366 165.639Z" fill="#B5C9BB"/>
<path d="M153.362 165.628C153.879 166.416 154.584 166.633 155.467 166.329C155.683 166.255 155.929 166.126 156.114 166.369C156.311 166.627 156.087 166.801 155.944 166.978C155.783 167.181 155.612 167.376 155.446 167.573C155.168 167.279 154.804 167.395 154.477 167.395C152.08 167.385 149.682 167.366 147.287 167.407C146.525 167.42 146.444 167.062 146.431 166.443C146.419 165.787 146.572 165.458 147.306 165.502C147.787 165.531 148.31 165.666 148.762 165.333C148.867 166.828 149.681 167.252 150.948 166.456C151.341 166.209 151.699 165.903 152.072 165.624C152.502 165.624 152.932 165.626 153.362 165.628Z" fill="#B5C9BB"/>
<path d="M144.956 164.241C144.33 167.089 143.038 169.504 140.47 171.068C139.727 171.521 138.93 171.848 138.041 171.894C137.875 171.299 138.267 170.99 138.658 170.678C138.819 170.59 138.979 170.501 139.14 170.414C139.195 170.355 139.251 170.297 139.306 170.238L139.298 170.26C139.607 170.292 139.842 170.121 140.089 169.977C142.266 168.706 143.485 166.723 144.233 164.389C144.458 164.261 144.695 164.201 144.954 164.242L144.956 164.241Z" fill="#312C3E"/>
<path d="M144.956 164.24C144.697 164.199 144.459 164.259 144.235 164.388C143.726 164.339 143.373 164.736 142.921 164.847C142.478 164.486 141.925 164.584 141.42 164.484C142.19 163.887 143.063 163.463 143.944 163.073C144.459 162.845 144.633 162.527 144.636 161.995C144.648 160.448 144.505 158.911 144.407 157.37C144.602 157.231 144.784 157.058 145.054 157.126C145.12 158.854 145.361 160.572 145.28 162.402C146.069 162.161 146.8 161.938 147.53 161.715C147.189 162.253 146.442 162.502 146.417 163.268C145.955 163.629 145.207 163.56 144.957 164.24H144.956Z" fill="#33455A"/>
<path d="M138.658 170.678C138.267 170.988 137.873 171.299 138.041 171.894C137.88 171.927 137.718 171.961 137.557 171.994C136.243 171.424 135.848 170.46 136.409 169.088C137.012 167.619 138.237 166.704 139.442 165.779C139.556 166.12 139.671 166.46 139.785 166.801C139.788 166.84 139.779 166.877 139.758 166.91C138.971 167.394 138.285 168.002 137.698 168.71C137.325 169.161 136.77 169.651 137.089 170.292C137.402 170.92 138.098 170.673 138.658 170.678Z" fill="#33455A"/>
<path d="M149.017 159.672C148.389 159.658 147.76 159.633 147.132 159.631C146.386 159.631 146.58 159.077 146.574 158.672C146.567 158.257 146.411 157.719 147.149 157.73C147.91 157.741 148.669 157.727 149.43 157.723C149.804 157.736 150.179 157.75 150.554 157.763C150.176 158.377 150.181 158.995 150.532 159.617C150.026 159.636 149.521 159.653 149.015 159.672H149.017Z" fill="#B5C9BB"/>
<path d="M101.311 162.486C101.181 162.152 100.974 161.943 100.582 162.033L100.528 162.006C100.954 160.364 100.905 158.691 100.852 157.017C101.415 157.636 101.455 158.477 101.776 159.199C101.675 160.168 101.574 161.139 101.474 162.108C101.42 162.234 101.365 162.361 101.311 162.488V162.486Z" fill="#409122"/>
<path d="M150.532 159.619C150.179 158.996 150.174 158.379 150.554 157.765C150.9 157.456 151.227 157.126 151.656 156.919C152.432 156.544 152.576 156.639 152.535 157.533C152.459 157.601 152.393 157.696 152.303 157.736C151.866 157.923 151.466 158.159 151.121 158.491C150.612 158.982 151.586 159.196 151.324 159.634C151.045 160.429 150.792 159.812 150.533 159.62L150.532 159.619Z" fill="#312C3E"/>
<path d="M168.854 167.192C170.098 166.758 171.311 166.254 172.475 165.635C172.461 167.393 172.461 167.415 170.672 167.38C170.067 167.369 169.423 167.597 168.854 167.192Z" fill="#B5C9BB"/>
<path d="M54.8656 190.489C54.2853 190.483 53.705 190.475 53.1262 190.468C53.7081 190.286 54.2885 190.256 54.8656 190.489Z" fill="#CCD7D6"/>
<path d="M55.8128 195.709C60.6294 195.714 65.446 195.72 70.261 195.72C82.6835 195.723 95.1061 195.725 107.529 195.728C107.448 196.023 107.211 196.024 106.967 196.051C103.737 196.409 100.508 196.768 97.2804 197.148C96.893 197.194 96.417 196.951 96.1245 197.421C96.0185 197.432 95.9126 197.441 95.8066 197.452C95.5457 197.256 95.2595 197.331 94.9717 197.364C93.2275 197.56 91.4834 197.76 89.7392 197.945C87.0811 198.227 84.4214 198.485 81.7664 198.781C79.1889 199.067 76.6146 199.387 74.0402 199.69C73.7888 199.72 73.4963 199.633 73.3587 199.953C73.2528 199.962 73.1468 199.972 73.0409 199.981C72.7594 199.777 72.4352 199.837 72.1316 199.869C70.7891 200.011 69.4498 200.177 68.1088 200.329C67.9175 200.352 67.7467 200.382 67.6677 200.586C67.5617 200.597 67.4558 200.607 67.3482 200.618C67.0051 200.393 66.6446 200.51 66.2809 200.55C64.4877 200.746 62.6866 200.885 60.9014 201.137C59.9384 201.273 58.9089 201.097 58.0203 201.655C57.8621 201.672 57.704 201.69 57.5459 201.707C56.5449 201.753 56.3757 201.088 56.2745 200.291C56.0832 198.768 55.7543 197.261 55.8128 195.712V195.709Z" fill="#ECE1D8"/>
<path d="M73.3557 199.949C73.4949 199.63 73.7858 199.717 74.0372 199.687C76.6131 199.384 79.1859 199.064 81.7634 198.778C84.4199 198.483 87.0797 198.225 89.7362 197.942C91.482 197.757 93.2261 197.557 94.9687 197.361C95.2565 197.327 95.5427 197.253 95.8036 197.449C92.2473 197.864 88.6926 198.289 85.1347 198.691C81.4187 199.112 77.6995 199.512 73.9819 199.919C73.7732 199.942 73.5628 199.938 73.3525 199.948L73.3557 199.949Z" fill="#CCD7D6"/>
<path d="M96.1245 197.419C96.417 196.947 96.893 197.193 97.2804 197.147C100.508 196.767 103.738 196.409 106.967 196.05C107.211 196.023 107.448 196.021 107.529 195.727C107.731 195.727 107.932 195.725 108.134 195.724C108.357 195.937 108.579 195.923 108.798 195.719C109.92 195.625 111.041 195.53 112.162 195.443C112.499 195.416 112.843 195.351 113.168 195.519C108.348 196.072 103.526 196.628 98.7067 197.174C97.8481 197.272 96.9863 197.337 96.1261 197.418L96.1245 197.419Z" fill="#CCD7D6"/>
<path d="M58.0188 201.652C58.9075 201.094 59.9369 201.27 60.8999 201.134C62.6852 200.882 64.4862 200.743 66.2794 200.546C66.6431 200.507 67.0037 200.39 67.3468 200.614C64.2459 201.029 61.1371 201.386 58.0188 201.652Z" fill="#CCD7D6"/>
<path d="M67.6663 200.583C67.7453 200.378 67.9145 200.348 68.1074 200.326C69.4484 200.174 70.7877 200.008 72.1302 199.865C72.4338 199.834 72.7564 199.774 73.0395 199.978C71.2574 200.261 69.4673 200.461 67.6678 200.583H67.6663Z" fill="#CCD7D6"/>
<path d="M113.62 195.462C114.347 195.206 115.09 195.106 115.857 195.217C115.122 195.393 114.372 195.446 113.62 195.462Z" fill="#CCD7D6"/>
<path d="M116.398 195.146C116.763 194.769 117.185 194.959 117.597 195.027C117.203 195.124 116.806 195.193 116.398 195.146Z" fill="#CCD7D6"/>
<path d="M118.129 194.948C118.237 194.748 118.37 194.856 118.498 194.916C118.374 194.927 118.253 194.937 118.129 194.948Z" fill="#CCD7D6"/>
<path d="M75.4444 100.918C75.6895 101.534 75.5488 102.172 75.5282 102.796C75.397 106.904 75.2373 111.013 75.0902 115.122C75.0286 116.833 74.9495 118.547 74.921 120.258C74.8578 124.099 76.7269 126.851 80.3322 128.221C81.8818 128.81 83.4236 129.456 85.0223 129.871C88.0504 130.656 90.6833 129.76 92.7279 127.447C96.4818 123.197 99.9749 118.738 102.899 113.86C104.119 111.824 105.302 109.762 106.074 107.504C106.278 106.906 106.61 107.01 107.042 107.102C111.648 108.079 116.199 107.984 120.641 106.288C122.144 105.715 123.595 105.006 124.861 103.994C125.385 103.576 125.731 103.554 126.264 104.032C129.39 106.838 132.684 109.42 136.51 111.225C139.399 112.589 142.377 113.418 145.608 112.63C146.646 112.376 147.564 111.886 148.463 111.339C148.123 112.251 147.33 112.726 146.55 113.119C144.371 114.215 142.07 114.683 139.603 114.424C134.573 113.895 130.505 111.38 126.681 108.32C126.496 108.173 126.248 108.068 126.128 107.881C125.302 106.596 124.355 106.96 123.18 107.428C119.768 108.789 116.194 109.602 112.522 109.742C110.998 109.799 110.162 110.676 109.255 111.615C106.42 114.553 103.583 117.489 100.748 120.426C96.8519 124.462 92.9556 128.498 89.0625 132.537C87.7105 133.94 86.3727 135.355 85.0254 136.76C84.774 137.023 84.5431 137.336 84.113 137.306C78.9248 135.146 73.7382 132.982 68.5453 130.837C68.2037 130.696 67.9539 130.525 67.8274 130.181C69.2079 125.436 70.3274 120.621 71.5877 115.844C72.674 111.722 73.7193 107.59 74.7835 103.464C75.0033 102.613 75.0539 101.719 75.4444 100.915V100.918Z" fill="#EE6E31"/>
<path d="M101.776 159.197C101.455 158.475 101.415 157.635 100.853 157.016C100.255 156.867 99.6492 156.924 99.0467 156.963C98.7621 156.924 98.4774 156.883 98.1928 156.843C97.6299 156.587 97.0163 156.507 96.4233 156.362C96.1197 156.214 95.8525 155.979 95.4904 155.969C95.4777 155.945 95.4698 155.914 95.4509 155.901C93.0552 154.394 91.5593 152.266 91.0138 149.476C90.96 149.202 90.8098 148.918 90.4777 149.069C89.8832 149.336 89.1874 149.332 88.6577 149.761C86.1624 150.221 83.9265 149.838 82.2139 147.766C81.613 147.185 81.4644 146.326 80.9489 145.693C80.9236 145.408 80.99 145.107 80.8177 144.844C80.8082 144.233 80.8003 143.621 80.7908 143.009C80.9837 142.026 81.3553 141.114 81.8977 140.273C82.1791 140.049 82.3926 139.778 82.4764 139.418C82.6013 139.347 82.7263 139.276 82.8512 139.205C83.0457 139.537 82.7943 139.809 82.7184 140.099C81.7032 143.937 84.1051 147.896 88.3303 148.011C89.9369 148.055 91.4834 147.634 92.7785 146.361C96.0454 143.153 99.4341 140.069 102.777 136.939C105.12 134.744 107.467 132.555 109.812 130.362C110.658 129.57 111.504 128.78 112.345 127.983C112.695 127.653 113.068 127.51 113.452 127.884C113.846 128.267 113.609 128.607 113.3 128.897C110.962 131.096 108.617 133.291 106.276 135.488C105.201 136.497 104.132 137.512 103.06 138.524C100.15 141.269 97.2409 144.013 94.3329 146.759C94.2949 146.795 94.257 146.832 94.219 146.868C92.6441 148.371 92.6077 148.519 93.7114 150.459C95.2405 153.146 97.535 154.596 100.631 154.954C101.841 155.093 102.573 154.713 103.392 153.927C106.605 150.845 109.798 147.745 112.975 144.628C115.774 141.88 118.614 139.175 121.436 136.451C121.626 136.269 121.816 136.084 122.026 135.929C122.299 135.726 122.581 135.781 122.815 136.003C123.06 136.234 123.07 136.527 122.902 136.796C122.779 136.994 122.598 137.159 122.429 137.324C118.111 141.537 113.798 145.753 109.469 149.955C107.486 151.879 105.476 153.776 103.47 155.675C103.141 155.985 103.079 156.252 103.243 156.708C104.66 160.653 108.416 162.329 112.26 161.94C113.37 161.827 114.116 161.314 114.834 160.615C115.984 159.492 117.088 158.317 118.269 157.229C118.803 156.737 118.756 156.335 118.417 155.8C117.409 154.2 116.691 152.483 116.453 150.59C116.311 149.46 116.305 148.336 116.847 147.283C116.589 149.727 117.396 151.729 119.298 153.298C119.866 153.765 120.38 154.299 120.908 154.812C123.286 157.125 125.658 159.444 128.04 161.755C130.263 163.911 134.787 164.047 136.795 160.982C138.19 158.854 138.648 155.439 135.589 152.669C132.254 149.65 129.082 146.452 125.838 143.331C125.622 142.609 125.279 141.928 125.16 141.173C125.116 140.889 124.997 140.614 125.198 140.346C125.46 141.375 126.023 142.211 126.806 142.919C130.03 145.831 133.245 148.754 136.466 151.667C138.81 153.787 142.535 153.689 144.515 151.48C146.321 149.465 146.776 145.506 144.037 143.184C140.987 140.596 138.084 137.835 135.125 135.139C134.012 134.124 132.788 133.348 131.256 133.167C131.537 132.963 131.866 133.004 132.17 133.037C132.807 133.106 133.003 132.832 132.967 132.224C132.874 130.704 133.519 129.415 134.316 128.188C134.483 127.93 134.684 127.665 135.045 127.643C134.869 128.083 134.633 128.509 134.529 128.965C134.039 131.095 134.287 133.079 135.97 134.635C138.579 137.048 141.218 139.428 143.875 141.787C145.029 142.811 146.061 143.991 147.54 144.623C150.149 145.741 153.079 144.989 154.575 142.761C156.314 140.17 156.052 137.059 153.882 135.056C151.871 133.199 149.803 131.403 147.806 129.532C147.103 128.875 146.239 128.371 145.745 127.501C145.973 125.887 146.422 124.388 147.834 123.374C147.766 123.653 147.706 123.933 147.627 124.21C147.122 125.996 147.481 127.527 148.9 128.786C150.906 130.566 152.886 132.377 154.894 134.154C155.619 134.795 156.305 135.488 157.238 135.867C158.895 136.54 160.973 136.144 161.96 134.922C163.405 133.131 163.584 130.995 162.331 129.402C161.783 128.705 161.077 128.134 160.443 127.504C160.908 127.022 161.566 126.945 162.148 126.733C165.312 125.574 167.214 122.972 167.116 119.625C167.009 115.922 166.838 112.217 166.526 108.523C166.449 107.604 166.488 106.683 166.43 105.761C166.313 103.899 166.128 102.036 166.186 100.166C166.19 100.042 166.265 99.9203 166.308 99.7983C166.575 101.557 167.233 103.214 167.666 104.932C169.706 112.989 171.798 121.033 173.87 129.082C173.909 129.234 173.932 129.391 173.962 129.546C170.65 130.591 167.342 131.65 164.022 132.665C163.422 132.849 163.168 133.104 163.155 133.753C163.089 137.037 160.14 139.745 156.887 139.475C156.139 139.414 156.139 139.643 156.329 140.194C157.341 143.155 156.628 145.711 154.401 147.826C153.267 148.904 151.873 149.512 150.263 149.539C149.833 149.545 149.286 149.509 149.433 150.242C149.415 150.646 149.398 151.05 149.381 151.453C148.844 154.039 147.024 155.641 145.051 157.126C144.779 157.058 144.597 157.231 144.403 157.369C143.943 157.443 143.484 157.532 143.022 157.59C141.504 157.782 140.146 157.263 138.814 156.626C138.8 156.617 138.788 156.606 138.773 156.596C138.789 156.604 138.803 156.613 138.819 156.621C138.881 156.791 138.928 156.967 139.006 157.13C140.049 159.362 140.097 161.568 138.833 163.74C138.803 163.841 138.772 163.943 138.742 164.044C137.957 164.727 137.287 165.544 136.272 165.936C133.525 167.002 131.106 166.449 129.006 164.451C127.502 163.021 127.535 163.012 125.797 164.122C123.761 165.423 121.588 166.422 119.154 166.657C116.642 166.899 114.475 166.123 112.835 164.145C112.481 163.718 112.189 163.623 111.64 163.71C108.934 164.147 106.335 163.927 104.07 162.168C103.054 161.378 102.374 160.315 101.774 159.196L101.776 159.197ZM118.221 163.45C120.056 163.463 121.39 162.898 122.614 162.016C122.979 161.753 123.07 161.487 122.695 161.124C121.77 160.23 120.878 159.302 120.125 158.252C119.847 157.864 119.537 157.837 119.206 158.16C117.93 159.411 116.667 160.675 115.388 161.924C115.062 162.242 115.132 162.424 115.508 162.63C116.45 163.142 117.443 163.438 118.22 163.45H118.221Z" fill="#EE6E31"/>
<path d="M153.182 97.3553C152.281 96.6332 151.188 96.1915 150.331 95.4062C151.33 95.3903 152.33 95.3618 153.327 95.3602C157.855 95.3571 162.382 95.3602 166.909 95.3618C167.165 95.3618 167.421 95.3618 167.706 95.4996C167.164 95.6547 166.624 95.8178 166.079 95.9635C165.785 96.0427 165.472 96.1171 165.54 96.505C165.674 97.2634 165.196 97.2349 164.689 97.2333C161.188 97.227 157.687 97.2286 154.188 97.2318C153.849 97.2318 153.5 97.1747 153.182 97.3537V97.3553Z" fill="#B5C9BB"/>
<path d="M82.4781 139.417C82.3943 139.776 82.1808 140.045 81.8994 140.272C81.5325 140.286 81.1609 140.27 80.7988 140.321C79.4579 140.511 78.0853 140.576 76.8519 141.234C76.6274 141.258 76.4028 141.28 76.1783 141.302C76.2747 140.805 75.8272 140.845 75.5774 140.691C77.7944 139.814 80.0935 139.38 82.4781 139.415V139.417Z" fill="#409122"/>
<path d="M149.38 151.455C149.398 151.051 149.415 150.647 149.433 150.244C150.083 150.147 150.731 150.071 151.373 150.293C151.795 150.438 152.108 150.681 152.179 151.159C152.216 151.404 152.22 151.65 152.016 151.81C151.771 152.003 151.632 151.795 151.431 151.647C150.802 151.179 150.073 151.439 149.379 151.455H149.38Z" fill="#33455A"/>
<path d="M125.837 143.331C129.08 146.452 132.252 149.652 135.587 152.669C138.647 155.439 138.188 158.854 136.793 160.982C134.785 164.047 130.26 163.911 128.038 161.755C125.657 159.445 123.286 157.123 120.906 154.812C120.378 154.299 119.864 153.765 119.297 153.298C117.394 151.729 116.588 149.726 116.846 147.283L116.839 147.292C117.04 147.12 116.963 146.851 117.067 146.643C117.551 145.905 117.771 145.025 118.403 144.355C120.174 142.481 122.796 141.968 125.182 143.098C125.396 143.199 125.587 143.34 125.837 143.331Z" fill="#FEC287"/>
<path d="M145.745 127.502C146.239 128.373 147.103 128.876 147.806 129.534C149.804 131.405 151.871 133.201 153.882 135.058C156.052 137.061 156.314 140.174 154.575 142.762C153.079 144.99 150.147 145.741 147.54 144.624C146.063 143.991 145.029 142.813 143.874 141.789C141.218 139.429 138.577 137.05 135.97 134.637C134.287 133.08 134.039 131.096 134.529 128.967C134.633 128.511 134.869 128.085 135.045 127.645C136.145 125.553 137.9 124.551 140.233 124.662C141.727 124.733 143.09 125.227 144.213 126.302C144.678 126.747 145.136 127.227 145.744 127.502H145.745Z" fill="#FEC287"/>
<path d="M131.257 133.169C132.79 133.348 134.013 134.124 135.127 135.14C138.084 137.837 140.987 140.598 144.039 143.185C146.778 145.508 146.322 149.466 144.516 151.482C142.537 153.692 138.811 153.789 136.468 151.669C133.246 148.754 130.03 145.833 126.808 142.921C126.023 142.213 125.462 141.377 125.199 140.348C124.84 138.449 125.157 136.716 126.336 135.135C127.325 133.812 128.593 133.152 130.236 133.188C130.577 133.196 130.919 133.175 131.26 133.169H131.257Z" fill="#FEC287"/>
<path d="M160.445 127.507C161.079 128.135 161.784 128.707 162.333 129.405C163.585 130.998 163.406 133.134 161.961 134.925C160.974 136.149 158.897 136.543 157.239 135.87C156.306 135.492 155.622 134.798 154.896 134.157C152.886 132.38 150.908 130.569 148.901 128.789C147.481 127.531 147.124 126 147.628 124.214C147.706 123.938 147.766 123.656 147.835 123.378L147.829 123.384C147.888 123.328 147.948 123.273 148.006 123.218C148.384 123.143 148.406 122.754 148.588 122.518C150.037 120.643 153.275 121.044 154.63 122.342C156.393 124.03 158.34 125.518 160.041 127.276C160.146 127.383 160.309 127.431 160.445 127.507Z" fill="#FEC287"/>
<path d="M119.488 89.1488C119.709 88.7656 120.068 88.6278 120.482 88.5835C120.285 89.0078 119.904 89.1092 119.488 89.1488Z" fill="#FEC287"/>
<path d="M117.067 146.643C116.962 146.849 117.04 147.12 116.839 147.292C116.847 147.052 116.809 146.797 117.067 146.643Z" fill="#EE6E31"/>
<path d="M123.199 29.0196C123.199 27.8859 123.901 27.3524 125.305 27.4189C126.657 27.4822 127.317 28.6206 126.722 29.8477C126.493 30.3195 126.131 30.5745 125.615 30.6077C125.353 30.6251 125.09 30.622 124.828 30.6235C123.741 30.6235 123.198 30.0889 123.199 29.0196Z" fill="#FDFEFD"/>
<path d="M108.799 195.72C108.579 195.924 108.357 195.939 108.135 195.725C108.356 195.725 108.577 195.722 108.799 195.72Z" fill="#ECE1D8"/>
<path d="M139.785 166.799C139.671 166.459 139.556 166.118 139.442 165.778C139.452 165.735 139.455 165.694 139.452 165.649C140.056 165.368 140.59 164.978 141.099 164.552L141.419 164.484C141.925 164.584 142.478 164.486 142.921 164.847C141.876 165.497 140.832 166.148 139.787 166.799H139.785Z" fill="#312C3E"/>
<path d="M141.099 164.554C140.59 164.981 140.056 165.369 139.452 165.651C139.406 165.032 139.181 164.492 138.743 164.047C138.773 163.946 138.805 163.844 138.835 163.743C139.614 163.943 140.264 164.508 141.099 164.554Z" fill="#FDFEFD"/>
<path d="M154.184 163.835C154.257 163.469 154.365 162.931 154.475 162.393C154.486 162.339 154.467 162.206 154.576 162.266C155.116 162.562 155.201 161.945 155.521 161.799C156.011 161.576 156.423 160.876 157.029 161.351C157.815 161.967 157.883 162.874 157.318 163.626C156.852 164.248 156.27 164.73 155.528 164.996C154.643 165.314 154.173 164.972 154.183 163.835H154.184Z" fill="#FDFEFD"/>
<path d="M160.965 165.896C160.773 165.461 160.38 165.632 160.067 165.621C159.516 165.602 158.964 165.634 158.413 165.645C159.331 164.462 160.389 163.414 161.507 162.424C161.642 162.305 161.79 162.147 161.985 162.217C162.151 162.277 162.174 162.472 162.143 162.624C161.907 163.77 161.765 164.953 160.965 165.896Z" fill="#FDFEFD"/>
<path d="M155.581 169.133C154.67 172.007 153.063 174.461 151.055 176.761C151.055 176.144 151.098 175.908 151.499 175.104C152.56 172.977 153.961 171.074 155.405 169.201C155.438 169.158 155.528 169.158 155.592 169.139L155.581 169.131V169.133Z" fill="#FDFEFD"/>
<path d="M165.365 165.638C164.418 165.638 163.471 165.638 162.524 165.638C163.392 164.614 164.235 163.561 165.568 162.866C165.522 163.881 165.263 164.75 165.365 165.64V165.638Z" fill="#FDFEFD"/>
<path d="M153.362 165.628C152.932 165.628 152.502 165.628 152.072 165.624C152.415 165.233 152.756 164.842 153.171 164.37C153.244 164.849 153.304 165.238 153.364 165.628H153.362Z" fill="#ECE1D8"/>
<path d="M167.665 165.471C167.858 165.488 168.066 165.551 168.073 165.757C168.081 166.009 167.839 165.979 167.668 165.981C167.496 165.981 167.257 166.004 167.26 165.756C167.263 165.544 167.474 165.488 167.665 165.471Z" fill="#FDFEFD"/>
<path d="M155.593 169.142C155.595 169.08 155.598 169.016 155.6 168.954C155.633 168.964 155.693 168.972 155.695 168.984C155.703 169.064 155.682 169.132 155.582 169.135L155.593 169.143V169.142Z" fill="#FDFEFD"/>
<path d="M158.193 164.313C158.114 164.404 158.036 164.611 157.934 164.529C157.771 164.399 157.978 164.283 158.052 164.169C158.1 164.217 158.146 164.264 158.193 164.313Z" fill="#FDFEFD"/>
<path d="M76.1798 141.304C76.4044 141.282 76.6289 141.258 76.8519 141.236C78.0726 142.032 79.4737 142.428 80.7924 143.008C80.8019 143.619 80.8098 144.232 80.8193 144.843C80.0318 144.933 79.2618 145.115 78.5107 145.356C71.3806 147.642 67.3152 155.225 69.3866 162.362C71.5182 169.711 78.9676 174.027 86.2716 171.988C91.9563 170.401 95.2849 166.522 96.4535 160.754C97.018 160.895 97.505 161.172 97.9177 161.582C97.1919 165.32 95.3766 168.416 92.4386 170.84C92.1682 171.063 91.9753 171.228 92.271 171.595C92.5366 171.924 92.7438 171.829 92.9905 171.62C96.0518 169.033 98.087 165.835 98.7843 161.843L98.8349 161.821C99.4057 161.813 99.9481 162.079 100.525 162.005L100.579 162.031C100.25 163.213 99.9987 164.41 99.5338 165.558C96.4519 173.153 88.4664 177.969 80.53 176.992C71.9578 175.938 65.3781 169.53 64.2317 161.123C63.1406 153.124 67.4622 145.305 74.8358 141.931C75.1931 141.768 75.5473 141.594 75.9031 141.426C75.9822 141.374 76.0597 141.321 76.1387 141.271L76.1767 141.306L76.1798 141.304ZM65.8209 158.132C65.8351 160.086 65.9869 161.471 66.3569 162.826C66.4312 163.099 66.3822 163.49 66.9198 163.354C67.4559 163.219 67.3041 162.92 67.2266 162.576C65.8129 156.213 67.5524 150.87 72.4211 146.546C72.6726 146.323 72.9999 146.16 72.6567 145.737C72.2788 145.272 72.059 145.669 71.8313 145.862C67.8797 149.217 65.9442 153.523 65.8209 158.13V158.132Z" fill="#FDFEFD"/>
<path d="M76.1419 141.269C76.0628 141.321 75.9853 141.374 75.9062 141.424C75.9853 141.372 76.0628 141.32 76.1419 141.269Z" fill="#4E6A84"/>
<path d="M139.785 166.799C140.83 166.148 141.874 165.498 142.919 164.847C143.373 164.738 143.726 164.339 144.233 164.388C143.485 166.722 142.266 168.704 140.089 169.975C139.842 170.119 139.606 170.29 139.298 170.259C139.477 169.146 139.95 168.072 139.758 166.908C139.779 166.875 139.788 166.839 139.785 166.799Z" fill="#FDFEFD"/>
<path d="M139.758 166.908C139.95 168.072 139.478 169.146 139.298 170.259L139.306 170.237C139.251 170.295 139.195 170.354 139.14 170.412C138.979 170.501 138.819 170.59 138.658 170.677C138.099 170.672 137.402 170.919 137.089 170.29C136.77 169.649 137.326 169.158 137.698 168.709C138.283 168.001 138.969 167.393 139.758 166.908Z" fill="#C6C1BB"/>
<path d="M141.099 164.554C140.264 164.508 139.614 163.943 138.835 163.743C140.098 161.571 140.051 159.365 139.007 157.133C138.931 156.97 138.882 156.794 138.821 156.625L138.816 156.629C140.147 157.264 141.506 157.785 143.024 157.594C143.485 157.535 143.944 157.446 144.404 157.372C144.502 158.912 144.645 160.45 144.633 161.997C144.63 162.529 144.456 162.847 143.941 163.075C143.06 163.465 142.189 163.89 141.417 164.486C141.311 164.51 141.204 164.532 141.098 164.555L141.099 164.554Z" fill="#C6C1BB"/>
<path d="M100.529 162.004C99.9498 162.079 99.409 161.813 98.8381 161.821C99.1275 160.211 99.2082 158.591 99.0469 156.962C99.6509 156.922 100.255 156.865 100.854 157.014C100.906 158.687 100.954 160.361 100.53 162.004H100.529Z" fill="#C6C1BB"/>
<path d="M80.9506 145.691C81.4661 146.325 81.6148 147.181 82.2157 147.764C81.9089 147.818 81.6021 147.873 81.2954 147.927C81.0598 147.943 80.821 147.937 80.5901 147.978C75.5759 148.855 71.7887 153.19 71.6385 158.219C71.4788 163.512 74.9655 168.108 80.0098 169.256C85.0541 170.404 90.1822 167.882 92.3375 163.208C93.3574 160.993 93.4871 158.687 93.1139 156.32C93.2246 156.553 93.3226 156.792 93.4491 157.015C94.0326 158.041 94.4943 159.162 95.587 159.794C95.6107 159.953 95.6345 160.111 95.6582 160.269C95.6092 160.445 95.5459 160.619 95.5127 160.798C94.2081 167.998 87.4545 172.74 80.2849 171.313C75.1363 170.289 71.6938 167.119 70.2754 162.066C68.8728 157.072 70.2153 152.682 73.9392 149.07C75.8921 147.177 78.3004 146.165 80.9522 145.691H80.9506Z" fill="#FDFEFD"/>
<path d="M80.9505 145.691C78.2986 146.165 75.8903 147.177 73.9375 149.07C70.2135 152.682 68.871 157.071 70.2736 162.066C71.692 167.119 75.1345 170.289 80.2831 171.313C87.4527 172.74 94.2064 167.997 95.5109 160.798C95.5441 160.619 95.6074 160.445 95.6564 160.269C96.0233 160.097 96.1861 160.402 96.398 160.589C96.417 160.644 96.436 160.7 96.4549 160.755C95.2864 166.522 91.9578 170.403 86.2731 171.989C78.9675 174.028 71.5197 169.712 69.3881 162.364C67.3166 155.226 71.3821 147.644 78.5121 145.357C79.2632 145.117 80.0333 144.934 80.8208 144.844C80.9931 145.107 80.9267 145.406 80.952 145.693L80.9505 145.691Z" fill="#6ED04F"/>
<path d="M81.2937 147.927C81.6005 147.873 81.9072 147.818 82.214 147.764C83.9281 149.837 86.1625 150.22 88.6577 149.761C89.4879 150.289 90.1884 150.969 90.8004 151.724C91.4408 152.514 92.1097 153.307 92.3153 154.357C91.9168 154.65 91.085 154.148 91.0265 155.063C90.1837 153.333 89.0546 151.846 87.4275 150.769C86.9168 150.432 86.4345 150.357 86.0534 150.897C85.6644 151.448 85.8178 151.93 86.3617 152.314C87.3564 153.019 88.2593 153.812 88.7906 154.946C88.3526 155.079 87.9114 155.055 87.4686 154.968C85.2358 154.53 83.8396 153.07 82.8133 151.155C83.604 150.443 83.5613 149.879 82.6758 149.309C82.6852 148.378 82.078 148.065 81.2953 147.927H81.2937Z" fill="#409122"/>
<path d="M118.221 163.45C117.445 163.436 116.452 163.141 115.509 162.63C115.133 162.426 115.063 162.242 115.389 161.924C116.667 160.675 117.932 159.411 119.208 158.16C119.537 157.837 119.847 157.864 120.127 158.252C120.879 159.302 121.771 160.23 122.696 161.124C123.071 161.487 122.981 161.753 122.616 162.016C121.392 162.898 120.057 163.463 118.223 163.45H118.221Z" fill="#FEA474"/>
<path d="M92.3169 154.354C92.1114 153.304 91.4441 152.513 90.8021 151.721C90.1901 150.966 89.4896 150.286 88.6594 149.758C89.1892 149.328 89.8849 149.333 90.4795 149.066C90.8116 148.917 90.9618 149.199 91.0155 149.473C91.5611 152.262 93.057 154.39 95.4526 155.898C95.4716 155.91 95.4795 155.942 95.4922 155.966C95.6108 157.239 95.829 158.51 95.5854 159.791C94.4912 159.159 94.0311 158.037 93.4476 157.012C93.3211 156.789 93.223 156.55 93.1123 156.317C92.7217 155.714 92.8245 154.91 92.3169 154.354Z" fill="#C6C1BB"/>
<path d="M80.7924 143.008C79.4736 142.428 78.0726 142.032 76.8518 141.236C78.0852 140.576 79.4578 140.511 80.7987 140.321C81.1608 140.27 81.5324 140.286 81.8993 140.272C81.3569 141.112 80.9853 142.024 80.7924 143.008Z" fill="#C6C1BB"/>
<path d="M96.4551 160.754C96.4361 160.698 96.4172 160.643 96.3982 160.588C96.7429 159.18 96.6117 157.769 96.4235 156.358C97.0165 156.506 97.6284 156.583 98.1929 156.84C98.2546 158.406 98.1771 159.967 98.0411 161.528C98.0048 161.555 97.9637 161.572 97.9194 161.582C97.5067 161.172 97.0196 160.895 96.4551 160.754Z" fill="#C6C1BB"/>
<path d="M98.041 161.53C98.177 159.97 98.2545 158.407 98.1928 156.841C98.4774 156.882 98.7621 156.922 99.0467 156.963C99.208 158.592 99.1274 160.212 98.838 161.823L98.7874 161.843C98.6482 161.479 98.3889 161.4 98.0426 161.53H98.041Z" fill="#409122"/>
<path d="M96.4233 156.36C96.6115 157.771 96.7427 159.182 96.398 160.589C96.1845 160.402 96.0233 160.097 95.6564 160.269C95.6327 160.111 95.609 159.953 95.5852 159.794C95.8288 158.512 95.6105 157.242 95.4919 155.969C95.8541 155.978 96.1213 156.214 96.4249 156.362L96.4233 156.36Z" fill="#409122"/>
<path d="M138.823 156.623C138.807 156.615 138.792 156.606 138.776 156.598C138.791 156.607 138.804 156.619 138.818 156.628L138.823 156.623Z" fill="#C6C1BB"/>
<path d="M65.8208 158.132C65.9441 153.524 67.8796 149.219 71.8313 145.864C72.059 145.671 72.2788 145.273 72.6567 145.739C72.9998 146.162 72.6725 146.325 72.4211 146.548C67.5523 150.872 65.8129 156.214 67.2266 162.578C67.3025 162.921 67.4543 163.221 66.9198 163.355C66.3822 163.491 66.4312 163.099 66.3569 162.828C65.9853 161.473 65.835 160.087 65.8208 158.133V158.132Z" fill="#6ED04F"/>
<path d="M98.041 161.53C98.3873 161.401 98.6466 161.479 98.7858 161.843C98.0884 165.836 96.0533 169.033 92.992 171.622C92.7453 171.831 92.5381 171.926 92.2725 171.597C91.9752 171.229 92.1681 171.066 92.4401 170.841C95.3765 168.416 97.1918 165.322 97.9192 161.583C97.9635 161.574 98.0046 161.557 98.041 161.53Z" fill="#6ED04F"/>
<path d="M92.3168 154.354C92.8244 154.91 92.7216 155.714 93.1122 156.317C93.4854 158.684 93.3573 160.99 92.3358 163.205C90.1821 167.879 85.0524 170.403 80.0081 169.253C74.9638 168.104 71.4786 163.509 71.6368 158.216C71.7886 153.187 75.5742 148.853 80.5884 147.974C80.8193 147.933 81.058 147.94 81.2937 147.924C82.0764 148.062 82.6836 148.375 82.6741 149.306C81.3791 149.316 80.1093 149.485 78.9233 150.036C78.4141 150.272 78.1453 150.69 78.3857 151.255C78.615 151.794 79.0609 151.999 79.608 151.76C80.6343 151.311 81.7507 151.388 82.8117 151.152C83.8379 153.067 85.2358 154.526 87.467 154.965C87.9098 155.052 88.3509 155.076 88.7889 154.943L88.7336 154.984C88.789 155.052 88.8443 155.119 88.8996 155.187L88.8807 155.161C88.849 155.454 88.9249 155.693 89.2096 155.831L89.2064 155.88C89.1969 156.042 89.2175 156.189 89.3819 156.271H89.3772C89.3471 156.458 89.344 156.635 89.5322 156.751C89.9022 157.715 89.8532 158.713 89.7425 159.709C89.6428 160.611 89.9148 161.13 90.6122 161.18C91.4961 161.241 91.4993 160.559 91.5926 159.952C91.8282 158.409 91.5799 156.911 91.1704 155.429C91.1988 155.275 91.1656 155.144 91.0296 155.052L91.0265 155.058C91.085 154.143 91.9167 154.645 92.3152 154.352L92.3168 154.354ZM78.645 166.913C79.132 166.897 79.4135 166.617 79.5495 166.177C79.6997 165.687 79.4578 165.375 79.0498 165.147C77.6868 164.386 76.6131 163.33 75.8904 161.941C75.6026 161.387 75.2658 161.005 74.5985 161.32C74.0119 161.598 73.879 162.172 74.2427 162.86C75.0982 164.478 76.3189 165.749 77.9097 166.661C78.1374 166.791 78.3667 166.924 78.645 166.913ZM73.2323 157.809C73.207 158.247 73.3714 158.637 73.9391 158.687C74.5795 158.744 75.0191 158.477 75.1077 157.798C75.2785 156.49 75.7418 155.296 76.5087 154.227C76.8645 153.73 77.1001 153.258 76.4897 152.794C76.0169 152.435 75.4002 152.56 74.9796 153.128C73.966 154.496 73.4315 156.053 73.2323 157.81V157.809ZM82.9809 167.855C83.7035 167.779 84.5116 167.701 85.2785 167.407C85.824 167.198 86.0691 166.8 85.892 166.229C85.7133 165.657 85.2959 165.458 84.7235 165.619C83.9644 165.833 83.1944 165.964 82.4037 165.985C81.9926 165.996 81.7064 166.227 81.6004 166.618C81.5008 166.989 81.5546 167.351 81.8534 167.633C82.1539 167.917 82.5334 167.853 82.9825 167.853L82.9809 167.855Z" fill="#6ED04F"/>
<path d="M89.2079 155.882L89.2111 155.833C89.1795 155.571 89.1036 155.332 88.8822 155.163L88.9012 155.188C88.8948 155.081 88.8727 154.986 88.7351 154.986L88.7905 154.944C88.2608 153.809 87.3563 153.016 86.3632 152.313C85.8177 151.927 85.6643 151.447 86.0549 150.896C86.4375 150.356 86.9198 150.43 87.429 150.768C89.0561 151.843 90.1852 153.329 91.028 155.062L91.0312 155.055C91.0786 155.18 91.1245 155.307 91.1703 155.432C91.5799 156.914 91.8281 158.412 91.5925 159.956C91.4992 160.562 91.4961 161.245 90.6121 161.183C89.9132 161.134 89.6412 160.613 89.7424 159.712C89.8531 158.716 89.9021 157.718 89.5321 156.754C89.5242 156.582 89.5068 156.411 89.3771 156.276H89.3819C89.3645 156.127 89.3408 155.982 89.2079 155.883V155.882Z" fill="#FDFEFD"/>
<path d="M82.8134 151.156C81.7523 151.39 80.6359 151.314 79.6097 151.764C79.0626 152.003 78.6151 151.798 78.3873 151.258C78.147 150.693 78.4158 150.275 78.925 150.039C80.1125 149.488 81.3807 149.319 82.6758 149.309C83.5629 149.881 83.604 150.445 82.8134 151.156Z" fill="#FDFEFD"/>
<path d="M78.645 166.913C78.3667 166.924 78.1374 166.793 77.9097 166.661C76.3205 165.749 75.0982 164.479 74.2427 162.86C73.879 162.173 74.0119 161.598 74.5985 161.321C75.2658 161.006 75.601 161.389 75.8904 161.941C76.6131 163.33 77.6868 164.384 79.0498 165.148C79.4578 165.376 79.6997 165.686 79.5495 166.177C79.4135 166.617 79.1321 166.897 78.645 166.913Z" fill="#FDFEFD"/>
<path d="M73.2307 157.81C73.43 156.053 73.9644 154.498 74.978 153.128C75.3987 152.56 76.0154 152.435 76.4882 152.794C77.0985 153.258 76.8629 153.73 76.5071 154.227C75.7402 155.296 75.2785 156.49 75.1061 157.798C75.0176 158.477 74.578 158.745 73.9376 158.688C73.3699 158.637 73.207 158.247 73.2307 157.809V157.81Z" fill="#FDFEFD"/>
<path d="M82.9793 167.857C82.5302 167.857 82.1507 167.92 81.8503 167.637C81.5514 167.355 81.4977 166.992 81.5973 166.622C81.7032 166.231 81.9894 165.999 82.4006 165.988C83.1912 165.968 83.9613 165.836 84.7203 165.623C85.2943 165.461 85.7118 165.661 85.8889 166.232C86.0676 166.804 85.8209 167.201 85.2754 167.41C84.51 167.703 83.7004 167.781 82.9777 167.858L82.9793 167.857Z" fill="#FDFEFD"/>
<path d="M88.8807 155.163C89.1021 155.331 89.178 155.572 89.2096 155.833C88.925 155.697 88.8507 155.456 88.8807 155.163Z" fill="#4E6A84"/>
<path d="M89.3772 156.274C89.5068 156.409 89.5242 156.58 89.5321 156.753C89.344 156.637 89.3471 156.46 89.3772 156.274Z" fill="#4E6A84"/>
<path d="M91.1704 155.431C91.1245 155.305 91.0771 155.179 91.0312 155.054C91.1657 155.147 91.2004 155.277 91.1704 155.431Z" fill="#4E6A84"/>
<path d="M89.208 155.882C89.3409 155.98 89.3662 156.126 89.382 156.275C89.2175 156.191 89.197 156.043 89.208 155.882Z" fill="#4E6A84"/>
<path d="M88.7351 154.986C88.8716 154.986 88.8954 155.081 88.9018 155.189C88.8462 155.121 88.7907 155.054 88.7351 154.986Z" fill="#4E6A84"/>
<path d="M73.8508 38.2679C73.4776 38.5639 73.0728 38.8189 72.6301 39.0294C72.1873 39.24 71.7034 39.4031 71.1769 39.5108C70.6503 39.62 70.0605 39.6739 69.4074 39.6739C68.4191 39.6739 67.502 39.4949 66.6544 39.1339C65.8084 38.7745 65.0779 38.2837 64.4627 37.6599C63.846 37.0376 63.3653 36.3013 63.019 35.4543C62.6727 34.6072 62.4988 33.7015 62.4988 32.7388V32.6992C62.4988 31.7366 62.6727 30.8341 63.019 29.9933C63.3653 29.151 63.846 28.4131 64.4627 27.7782C65.0779 27.1417 65.8163 26.6414 66.675 26.274C67.5336 25.9083 68.4839 25.7246 69.5213 25.7246C70.1506 25.7246 70.7246 25.7769 71.2433 25.8782C71.7635 25.9811 72.2347 26.122 72.657 26.3025C73.0807 26.4814 73.4713 26.7015 73.8318 26.9565C74.1908 27.213 74.5244 27.4964 74.8328 27.8051L72.9479 29.9822C72.4213 29.5072 71.8869 29.1335 71.3413 28.8644C70.7942 28.5952 70.1822 28.4606 69.5023 28.4606C68.9394 28.4606 68.4159 28.5699 67.9352 28.7884C67.4529 29.0069 67.0402 29.3093 66.6939 29.6925C66.3476 30.0788 66.0788 30.5253 65.8859 31.032C65.693 31.5402 65.5981 32.0817 65.5981 32.6612V32.6992C65.5981 33.2772 65.693 33.8234 65.8859 34.338C66.0788 34.851 66.3445 35.3007 66.6844 35.687C67.0244 36.0733 67.434 36.3773 67.9147 36.6022C68.397 36.827 68.9251 36.9394 69.5023 36.9394C70.2724 36.9394 70.9223 36.7985 71.4552 36.5151C71.9881 36.2333 72.5162 35.8469 73.0428 35.3593L74.9277 37.2656C74.5814 37.6393 74.2224 37.9734 73.8508 38.2679Z" fill="black"/>
<path d="M90.4733 35.4082C90.1143 36.249 89.6178 36.9868 88.9821 37.6233C88.3465 38.2598 87.5906 38.7602 86.7114 39.1259C85.8322 39.4932 84.874 39.6753 83.8351 39.6753C82.7961 39.6753 81.8395 39.4932 80.9682 39.1259C80.0953 38.7602 79.3426 38.2662 78.707 37.6423C78.0729 37.0201 77.5779 36.287 77.2253 35.4462C76.8727 34.6055 76.6956 33.703 76.6956 32.7403V32.7007C76.6956 31.738 76.8758 30.8355 77.2348 29.9948C77.5953 29.1524 78.0918 28.4146 78.7275 27.7797C79.3616 27.1432 80.1175 26.6428 80.9982 26.2755C81.8774 25.9097 82.8357 25.7261 83.8746 25.7261C84.9135 25.7261 85.8686 25.9097 86.7415 26.2755C87.6143 26.6428 88.367 27.1368 89.0011 27.7591C89.6368 28.3829 90.1301 29.116 90.4844 29.9552C90.837 30.7975 91.0141 31.6984 91.0141 32.6627V32.7007C91.0141 33.665 90.8338 34.5659 90.4733 35.4082ZM87.9148 32.7007C87.9148 32.1244 87.8167 31.5765 87.6175 31.0635C87.4183 30.5489 87.1368 30.0993 86.7699 29.7145C86.4046 29.3282 85.9714 29.0226 85.4717 28.7993C84.9704 28.5745 84.4265 28.4621 83.8351 28.4621C83.2437 28.4621 82.6839 28.5713 82.1889 28.7898C81.6956 29.0083 81.2734 29.3108 80.9192 29.6939C80.5665 30.0803 80.2914 30.5268 80.0922 31.0334C79.8929 31.5417 79.7949 32.0832 79.7949 32.6627V32.7007C79.7949 33.2786 79.8929 33.8249 80.0922 34.3395C80.2914 34.8525 80.5729 35.3021 80.9397 35.6885C81.305 36.0748 81.7351 36.3788 82.2285 36.6036C82.7218 36.8285 83.2721 36.9409 83.8746 36.9409C84.4771 36.9409 85.01 36.8316 85.5096 36.6131C86.0109 36.3931 86.4363 36.0922 86.7889 35.7075C87.1431 35.3211 87.4183 34.8762 87.6175 34.368C87.8167 33.8613 87.9148 33.3182 87.9148 32.7403V32.7007Z" fill="black"/>
<path d="M103.098 39.4442L96.5755 30.8704V39.4442H93.6501V25.9573H96.3826L102.695 34.2619V25.9573H105.619V39.4442H103.1H103.098Z" fill="black"/>
<path d="M114.948 28.6933V39.4442H111.985V28.6933H107.888V25.9573H119.049V28.6933H114.95H114.948Z" fill="black"/>
<path d="M129.496 39.4442L126.609 35.128H124.281V39.4442H121.316V25.9573H127.474C129.077 25.9573 130.325 26.3499 131.217 27.1337C132.108 27.9175 132.554 29.0084 132.554 30.4096V30.4492C132.554 31.5401 132.289 32.43 131.756 33.1156C131.223 33.8043 130.529 34.3078 129.669 34.6292L132.959 39.4458H129.498L129.496 39.4442ZM129.553 30.5616C129.553 29.9204 129.348 29.4375 128.938 29.1176C128.528 28.7962 127.958 28.6347 127.227 28.6347H124.283V32.5076H127.282C128.013 32.5076 128.576 32.335 128.968 31.9882C129.359 31.6399 129.553 31.1776 129.553 30.6012V30.5616Z" fill="black"/>
<path d="M145.254 39.4443L144.024 36.4202H138.328L137.096 39.4443H134.076L139.847 25.8608H142.58L148.353 39.4443H145.254ZM141.174 29.4249L139.384 33.7997H142.964L141.174 29.4249Z" fill="black"/>
<path d="M156.528 28.6933V39.4442H153.565V28.6933H149.468V25.9573H160.628V28.6933H156.53H156.528Z" fill="black"/>
<path d="M176.078 35.4082C175.719 36.249 175.222 36.9868 174.587 37.6233C173.953 38.2582 173.195 38.7602 172.316 39.1259C171.437 39.4932 170.478 39.6753 169.44 39.6753C168.401 39.6753 167.444 39.4932 166.573 39.1259C165.7 38.7602 164.947 38.2662 164.311 37.6423C163.677 37.0201 163.182 36.287 162.83 35.4462C162.477 34.6055 162.3 33.703 162.3 32.7403V32.7007C162.3 31.738 162.48 30.8355 162.839 29.9948C163.2 29.1524 163.696 28.4146 164.332 27.7797C164.966 27.1432 165.722 26.6428 166.603 26.2755C167.482 25.9097 168.44 25.7261 169.479 25.7261C170.518 25.7261 171.473 25.9097 172.346 26.2755C173.219 26.6428 173.971 27.1368 174.606 27.7591C175.241 28.3829 175.735 29.116 176.089 29.9552C176.441 30.7975 176.619 31.6984 176.619 32.6627V32.7007C176.619 33.665 176.438 34.5659 176.078 35.4082ZM173.519 32.7007C173.519 32.1244 173.421 31.5765 173.222 31.0635C173.023 30.5489 172.741 30.0993 172.374 29.7145C172.009 29.3282 171.576 29.0226 171.076 28.7993C170.575 28.5745 170.031 28.4621 169.44 28.4621C168.848 28.4621 168.288 28.5713 167.793 28.7898C167.3 29.0083 166.878 29.3108 166.524 29.6939C166.171 30.0803 165.896 30.5268 165.697 31.0334C165.497 31.5417 165.399 32.0832 165.399 32.6627V32.7007C165.399 33.2786 165.497 33.8249 165.697 34.3395C165.896 34.8525 166.177 35.3021 166.544 35.6885C166.909 36.0748 167.34 36.3788 167.833 36.6036C168.326 36.8285 168.877 36.9409 169.479 36.9409C170.082 36.9409 170.614 36.8316 171.114 36.6131C171.615 36.3931 172.041 36.0922 172.393 35.7075C172.748 35.3211 173.023 34.8762 173.222 34.368C173.421 33.8613 173.519 33.3182 173.519 32.7403V32.7007Z" fill="black"/>
</g>
<defs>
<clipPath id="clip0_133_1418">
<rect width="234" height="207" fill="white"/>
</clipPath>
</defs>
</svg>
