<svg width="179" height="171" viewBox="0 0 179 171" fill="none" xmlns="http://www.w3.org/2000/svg">
<g clip-path="url(#clip0_133_1020)">
<path d="M16.2213 171H58.8435L62.3794 161.483C63.6324 158.112 66.1948 155.401 69.4722 153.918C72.559 152.522 76.7135 149.986 80.7403 145.467C88.5773 136.672 92.736 127.238 92.736 127.238L66.3215 127.108C66.3215 127.108 68.6986 112.335 55.5704 92.7154C54.1657 90.615 53.5261 88.0949 53.7449 85.5779L54.9895 71.2685C54.9895 71.2685 63.9108 61.3002 58.4374 48.9343C58.4374 48.9343 53.2037 41.689 51.127 44.341C51.127 44.341 35.317 81.9831 33.8777 87.58C32.4385 93.1769 30.5187 96.6954 32.4385 114.286C32.9461 118.943 33.1293 122.825 33.123 126.02C33.1105 132.149 31.7413 138.2 29.1193 143.742L16.2224 171.002L16.2213 171Z" fill="#F7C29E"/>
<g style="mix-blend-mode:multiply" opacity="0.2">
<path d="M55.9744 146.582C52.0178 142.191 46.5224 142.884 40.7433 140.88C34.9643 138.877 33.1105 124.435 33.1105 124.435V124.433C33.1189 124.978 33.123 125.508 33.122 126.017C33.1094 132.147 31.7403 138.198 29.1182 143.74L16.2213 171H58.8435L62.3794 161.483C63.6324 158.112 66.1948 155.401 69.4722 153.918C72.0995 152.729 75.4993 150.716 78.9368 147.356C67.1976 152.29 59.9311 150.973 55.9744 146.582Z" fill="#F7C29E"/>
</g>
<path d="M37.1268 0.470947C46.9254 15.9294 71.0768 29.7051 71.0768 29.7051C71.0768 29.7051 51.8785 28.1468 42.3511 15.7411L45.8054 12.8809C45.8054 12.8809 43.0598 13.1467 40.759 13.4115C38.6404 9.89717 37.2681 5.63564 37.1268 0.470947Z" fill="#6ED04F"/>
<path d="M62.8379 6.86423C61.3474 7.5403 59.144 8.57009 59.144 8.57009L61.2678 5.51942C58.7944 3.59483 56.0718 2.31281 53.3743 1.47348C52.2805 3.06528 50.9951 4.8444 50.9951 4.8444L50.7397 0.782764C43.5088 -0.774493 37.1268 0.470894 37.1268 0.470894C46.9254 15.9294 71.0768 29.705 71.0768 29.705C70.968 18.3469 67.5085 11.2555 62.8379 6.86423Z" fill="#6EC44E"/>
<path d="M33.5292 22.283C36.4109 20.5897 39.3354 19.6771 42.1773 19.3045C43.0336 20.282 44.0835 21.43 44.0835 21.43L44.1421 19.1297C55.0638 18.6065 64.272 25.4843 64.272 25.4843C58.0219 29.2854 52.6437 30.3518 48.2118 30.0358C47.9323 29.232 47.5356 28.0337 47.5356 28.0337L46.7945 29.8851C44.6665 29.5826 42.7813 28.9662 41.1494 28.2095C41.543 27.2488 41.9544 26.151 41.9544 26.151L39.6254 27.4267C35.6279 25.1652 33.5292 22.2819 33.5292 22.2819V22.283Z" fill="#AD8DCE"/>
<path d="M48.2129 30.0358C47.9334 29.232 47.5367 28.0337 47.5367 28.0337L46.7956 29.8851C44.6676 29.5826 42.7824 28.9662 41.1505 28.2095C41.5441 27.2488 41.9555 26.151 41.9555 26.151L39.6265 27.4267C35.629 25.1652 33.5303 22.2819 33.5303 22.2819C46.2377 20.8304 64.2731 25.4833 64.2731 25.4833C58.023 29.2844 52.6448 30.3508 48.2129 30.0347V30.0358Z" fill="#9369BF"/>
<path d="M141.074 20.6943L140.153 27.637L145.086 24.0359L160.182 16.325L148.505 17.3935C148.505 17.3935 142.557 18.8377 142.235 19.1297C141.913 19.4206 141.076 20.6943 141.076 20.6943H141.074Z" fill="#9369BF"/>
<path d="M135.904 16.5018L160.181 16.325L141.074 20.6943L135.904 16.5018Z" fill="#AD8DCE"/>
<path d="M148.879 27.6789L142.517 22.5697L160.181 16.325L148.879 27.6789Z" fill="#AD8DCE"/>
<path d="M138.572 24.3112C139.501 23.9617 140.186 23.8863 140.192 23.8853L140.146 23.4541C140.116 23.4572 139.399 23.5357 138.419 23.9052L138.572 24.3112Z" fill="#292929"/>
<path d="M123.273 62.9757C124.276 62.4671 125.223 61.9187 126.083 61.3452L126.324 61.7063C125.449 62.2892 124.488 62.847 123.468 63.363L123.273 62.9768V62.9757ZM128.641 59.3547C129.457 58.6096 130.19 57.8079 130.823 56.9696L131.169 57.2302C130.521 58.0894 129.769 58.911 128.933 59.6739L128.641 59.3537V59.3547ZM132.499 54.2109C132.711 53.7651 132.907 53.3004 133.079 52.8295C133.275 52.2968 133.449 51.739 133.596 51.1728L134.015 51.2817C133.866 51.8614 133.688 52.4329 133.487 52.9792C133.309 53.4627 133.108 53.9399 132.89 54.3972L132.499 54.2109ZM134.25 44.7313L134.683 44.7219C134.71 45.8993 134.675 46.9783 134.576 48.0217L134.145 47.9809C134.242 46.9542 134.276 45.892 134.25 44.7324V44.7313ZM133.633 38.2344L134.062 38.1727C134.243 39.4411 134.373 40.4771 134.471 41.4337L134.039 41.4776C133.943 40.5274 133.814 39.4965 133.634 38.2344H133.633ZM133.149 34.9702C132.977 33.8023 132.921 32.695 132.984 31.6799L133.417 31.7071C133.356 32.6919 133.409 33.7688 133.577 34.9064L133.581 34.9315L133.152 34.9901L133.149 34.9702ZM133.693 28.423C134.129 27.3566 134.763 26.4262 135.575 25.6581L135.873 25.9731C135.106 26.6983 134.508 27.5774 134.095 28.5863L133.694 28.422L133.693 28.423Z" fill="#292929"/>
<path d="M118.814 65.3148C119.372 65.1212 119.922 64.9171 120.449 64.7099L120.29 64.307C119.769 64.5121 119.225 64.7131 118.672 64.9056L118.814 65.3148Z" fill="#292929"/>
<path d="M116.567 19.2427C116.567 19.2427 125.595 13.201 127.656 17.1821C129.717 21.1621 115.928 35.2454 115.928 35.2454L116.567 19.2427Z" fill="#F19C61"/>
<path d="M116.567 45.5643C116.567 45.5643 125.595 39.5237 127.656 43.5037C129.717 47.4837 115.928 61.567 115.928 61.567L116.567 45.5643Z" fill="#F19C61"/>
<path d="M116.567 63.4979C116.567 63.4979 125.595 57.4572 127.656 61.4373C129.717 65.4173 115.928 79.5006 115.928 79.5006L116.567 63.4979Z" fill="#F19C61"/>
<path d="M110.332 12.4737H60.7706C57.0798 12.4737 54.0872 15.4647 54.0872 19.1559V120.427C54.0872 124.147 57.1112 127.109 60.7706 127.109H110.332C114.021 127.109 117.015 124.119 117.015 120.427V19.1548C117.015 15.4312 113.988 12.4727 110.332 12.4727V12.4737Z" fill="#292929"/>
<g style="mix-blend-mode:multiply" opacity="0.2">
<path d="M58.6018 97.6237C58.6018 97.6237 49.6375 119.563 50.5073 123.712C51.3772 127.86 56.8171 133.408 70.1641 131.559C83.5111 129.71 92.736 127.238 92.736 127.238C92.736 127.238 93.2939 97.6279 92.736 96.1261C92.1781 94.6243 68.1805 83.9663 67.2363 83.9663C66.2922 83.9663 58.6018 97.6237 58.6018 97.6237Z" fill="#F7C29E"/>
</g>
<path d="M113.776 21.5797H57.3269V118.001H113.776V21.5797Z" fill="white"/>
<g style="mix-blend-mode:multiply" opacity="0.3">
<path d="M100.056 77.8188H51.0317C49.3381 77.8188 47.9658 79.1909 47.9658 80.8842V101.112C47.9658 102.805 49.3381 104.177 51.0317 104.177H89.6282C91.1899 106.356 94.0224 110.259 94.2726 110.259C94.5071 110.259 94.0559 106.573 93.7388 104.177H100.056C101.749 104.177 103.122 102.805 103.122 101.112V80.8842C103.122 79.1909 101.748 77.8188 100.056 77.8188Z" fill="#808080"/>
</g>
<g style="mix-blend-mode:multiply" opacity="0.3">
<path d="M117.603 31.9917H65.4139C63.7203 31.9917 62.348 33.3637 62.348 35.057V56.7969C62.348 58.4902 63.7203 59.8622 65.4139 59.8622H70.8329C70.5189 62.2556 70.1065 65.6883 70.3326 65.6883C70.5733 65.6883 73.2027 62.0767 74.7927 59.8622H117.602C119.296 59.8622 120.668 58.4902 120.668 56.7969V35.057C120.668 33.3637 119.296 31.9917 117.602 31.9917H117.603Z" fill="#3E82D7"/>
</g>
<path d="M74.0046 17.3412H97.1889C97.4568 17.3412 97.6746 17.5589 97.6746 17.8268V18.0643C97.6746 18.3323 97.4568 18.5499 97.1889 18.5499H74.0046C73.7366 18.5499 73.5189 18.3323 73.5189 18.0643V17.8268C73.5189 17.5589 73.7366 17.3412 74.0046 17.3412Z" fill="white"/>
<path d="M52.9641 79.9036C52.9641 79.9036 53.3042 81.1689 54.0746 81.7926L54.9895 71.2686C54.9895 71.2686 61.5526 63.9355 59.9667 54.0467C59.4235 50.6611 57.7393 47.5455 55.1643 45.2819C53.6936 43.9894 52.0785 43.126 51.127 44.3421C51.127 44.3421 43.692 62.0433 38.5557 74.9734L52.9641 79.9047V79.9036Z" fill="#F7C29E"/>
<path d="M98.0314 72.5725H49.0073C47.3137 72.5725 45.9414 73.9445 45.9414 75.6378V95.8654C45.9414 97.5587 47.3137 98.9308 49.0073 98.9308H87.6038C89.1655 101.11 91.998 105.012 92.2482 105.012C92.4826 105.012 92.0315 101.326 91.7143 98.9308H98.0314C99.725 98.9308 101.097 97.5587 101.097 95.8654V75.6378C101.097 73.9445 99.725 72.5725 98.0314 72.5725Z" fill="#808080"/>
<path opacity="0.3" d="M88.2905 122.647C88.2905 124.178 87.0491 125.419 85.5177 125.419C83.9863 125.419 82.7449 124.178 82.7449 122.647C82.7449 121.115 83.9863 119.874 85.5177 119.874C87.0491 119.874 88.2905 121.115 88.2905 122.647Z" fill="#3E82D7"/>
<path d="M86.3446 123.801H84.6918C84.5107 123.801 84.3632 123.653 84.3632 123.472V121.82C84.3632 121.639 84.5107 121.491 84.6918 121.491H86.3446C86.5257 121.491 86.6733 121.639 86.6733 121.82V123.472C86.6733 123.653 86.5257 123.801 86.3446 123.801ZM84.6918 121.58C84.5599 121.58 84.4532 121.688 84.4532 121.819V123.471C84.4532 123.603 84.5599 123.71 84.6918 123.71H86.3446C86.4765 123.71 86.5833 123.603 86.5833 123.471V121.819C86.5833 121.687 86.4765 121.58 86.3446 121.58H84.6918Z" fill="#3E82D7"/>
<path d="M113.776 112.297H57.3269V118.001H113.776V112.297Z" fill="#8ABBFA"/>
<path d="M113.776 21.5797H57.3269V26.6963H113.776V21.5797Z" fill="#8ABBFA"/>
<path d="M52.4638 54.7373C54.5185 53.7923 55.5904 48.4486 55.9745 46.0457C54.3259 44.388 52.2575 42.8956 51.1271 44.3399C51.1271 44.3399 49.49 48.2382 47.2217 53.7117C48.7729 54.5751 50.9282 55.4437 52.4638 54.7373Z" fill="#F19C61"/>
<path d="M104.227 85.084C104.227 85.084 96.6027 85.7234 96.3368 87.7495C96.0699 89.7746 96.6571 93.3464 103.855 94.0393H111.309C111.309 94.0393 109.079 87.8563 109.186 87.6428C109.292 87.4293 104.227 85.084 104.227 85.084Z" fill="#F3AA78"/>
<path d="M91.9949 115.3C90.9628 115.848 90.6028 117.152 91.1889 118.164C94.6976 124.214 108.648 148.255 109.905 150.211C111.344 152.45 114.863 157.728 126.538 160.446C138.214 163.164 143.012 171 143.012 171H178.999C178.999 171 170.522 157.568 163.484 122.706C163.484 122.706 158.046 93.7619 147.809 94.7215C147.809 94.7215 141.572 88.1649 135.493 89.4449C135.493 89.4449 123.977 82.5691 117.42 82.5691L101.669 63.9573C100.11 62.1154 97.3616 61.7544 95.445 63.2206C94.8284 63.6926 94.3585 64.3153 94.2287 65.1389C93.7493 68.177 97.7478 75.8534 104.145 85.1279C110.543 94.4023 126.377 123.827 119.5 136.78C119.5 136.78 112.463 131.503 106.384 123.027C101.295 115.93 95.3079 113.543 91.9928 115.302L91.9949 115.3Z" fill="#F7C29E"/>
<path d="M117.481 82.5754C119.571 84.364 121.53 86.3043 123.38 88.3429C125.879 91.0619 129.034 95.0911 130.887 98.2045C133.222 102.054 134.764 105.429 135.493 109.666L135.446 109.676C134.607 105.695 132.415 101.406 130.505 98.4442C129.076 96.1282 126.431 92.4475 123.096 88.591C121.421 86.6591 119.296 84.3776 117.45 82.61L117.482 82.5754H117.481Z" fill="#F19C61"/>
<path d="M135.393 89.3947C137.094 90.2643 138.609 91.4783 139.95 92.8503C141.306 94.2161 142.433 95.766 143.403 97.4562C144.351 99.1338 145.077 100.935 145.565 102.79C145.978 104.53 146.245 105.709 146.288 108.462L146.24 108.466C146.082 106.58 145.738 104.711 145.203 102.897C144.663 101.142 143.904 99.2562 142.985 97.6916C142.065 96.0412 140.944 94.5028 139.671 93.1057C138.467 91.7881 136.892 90.3648 135.369 89.4365L135.393 89.3947Z" fill="#F19C61"/>
<path d="M147.678 94.5876C149.183 95.7252 150.706 97.7377 151.444 99.0982C152.373 100.696 153.108 102.55 153.594 104.581C153.949 105.88 154.039 107.141 154.095 108.462L154.048 108.468C153.827 107.188 153.687 106.234 153.231 104.684C152.532 102.334 151.984 101.125 151.047 99.3149C150.488 98.1982 149.035 95.9869 147.657 94.6232L147.678 94.5876Z" fill="#F19C61"/>
<path d="M99.2582 122.745C99.5775 121.126 97.6902 118.559 95.9778 116.622C94.909 115.412 93.2206 114.961 91.7364 115.466C90.9073 116.081 90.654 117.243 91.1879 118.165C92.131 119.791 93.8278 122.716 95.8291 126.163C97.3281 125.4 98.962 124.245 99.2572 122.746L99.2582 122.745Z" fill="#F19C61"/>
<path d="M100.771 71.2612C101.68 71.0791 105.809 69.7071 105.556 68.9546L101.485 64.1436C100.677 63.1881 99.5471 62.6324 98.381 62.5225C98.3748 62.5225 98.3685 62.5215 98.3622 62.5205C98.3287 62.5173 98.2544 62.5121 98.1497 62.5121C97.6033 62.5121 96.2593 62.668 95.9641 64.1457C95.6721 65.6057 98.089 69.1524 99.1546 70.628C99.523 71.1377 100.155 71.3847 100.772 71.2612H100.771Z" fill="#F19C61"/>
<path d="M28.5017 145.855C33.0121 148.625 47.5314 156.908 62.5438 158.675C63.423 158.778 64.0417 159.584 63.7821 160.28L61.1589 167.304C60.9852 167.768 60.4629 168.039 59.8767 167.968C55.4521 167.431 37.1969 164.684 24.3524 154.749C23.9148 154.411 23.7306 153.898 23.8939 153.461L26.5704 146.293C26.8227 145.618 27.7679 145.404 28.5017 145.855Z" fill="#292929"/>
<path d="M27.1839 152.57L27.1347 152.552C26.8709 152.453 26.738 152.16 26.8364 151.896L27.6434 149.734C27.7418 149.471 28.0349 149.338 28.2987 149.436L28.3479 149.455C28.6117 149.553 28.7446 149.846 28.6462 150.11L27.8392 152.272C27.7408 152.535 27.4477 152.669 27.1839 152.57Z" fill="#141414"/>
<path d="M29.8845 154.235L29.8353 154.217C29.5715 154.118 29.4386 153.825 29.5369 153.561L30.344 151.399C30.4424 151.136 30.7355 151.003 30.9982 151.101L31.0474 151.12C31.3112 151.218 31.4441 151.511 31.3457 151.775L30.5387 153.937C30.4403 154.201 30.1472 154.334 29.8834 154.236L29.8845 154.235Z" fill="#141414"/>
<path d="M33.7061 152.754L33.7562 152.772C34.019 152.87 34.1531 153.164 34.0551 153.426L33.2487 155.589C33.1507 155.851 32.8571 155.985 32.5943 155.887L32.5452 155.869C32.2824 155.771 32.1483 155.478 32.2463 155.215L33.0527 153.053C33.1507 152.79 33.4443 152.656 33.7071 152.754L33.7061 152.754Z" fill="#141414"/>
<path d="M35.3725 157.232L35.3233 157.213C35.0595 157.114 34.9266 156.821 35.025 156.558L35.832 154.396C35.9304 154.132 36.2235 153.999 36.4873 154.096L36.5365 154.115C36.8003 154.213 36.9332 154.506 36.8348 154.77L36.0278 156.932C35.9294 157.196 35.6363 157.329 35.3725 157.231V157.232Z" fill="#141414"/>
<path d="M38.1119 158.794L38.0627 158.775C37.7989 158.677 37.666 158.384 37.7644 158.12L38.5714 155.958C38.6698 155.694 38.9629 155.561 39.2267 155.66L39.2759 155.679C39.5396 155.777 39.6726 156.07 39.5742 156.334L38.7671 158.496C38.6687 158.759 38.3757 158.893 38.1119 158.794Z" fill="#141414"/>
<path d="M40.9705 160.033L40.9213 160.014C40.6575 159.916 40.5246 159.623 40.623 159.359L41.43 157.197C41.5284 156.933 41.8215 156.801 42.0843 156.899L42.1335 156.918C42.3972 157.016 42.5302 157.309 42.4318 157.573L41.6247 159.735C41.5263 159.999 41.2333 160.132 40.9695 160.034L40.9705 160.033Z" fill="#141414"/>
<path d="M43.8867 161.122L43.8375 161.103C43.5737 161.004 43.4408 160.711 43.5381 160.448L44.3451 158.286C44.4435 158.022 44.7366 157.889 45.0004 157.986L45.0496 158.005C45.3134 158.103 45.4463 158.396 45.3479 158.66L44.5409 160.822C44.4425 161.086 44.1494 161.219 43.8856 161.121L43.8867 161.122Z" fill="#141414"/>
<path d="M47.9734 158.924L48.0224 158.942C48.2853 159.04 48.4194 159.334 48.3215 159.597L47.5154 161.759C47.4175 162.022 47.124 162.156 46.8611 162.058L46.8111 162.039C46.5482 161.941 46.4141 161.648 46.512 161.385L47.3181 159.223C47.416 158.96 47.7096 158.826 47.9724 158.924L47.9734 158.924Z" fill="#141414"/>
<path d="M49.9505 162.673L49.9013 162.654C49.6375 162.555 49.5046 162.262 49.603 161.999L50.41 159.837C50.5084 159.574 50.8015 159.44 51.0653 159.538L51.1145 159.557C51.3783 159.655 51.5112 159.949 51.4128 160.212L50.6058 162.374C50.5074 162.638 50.2143 162.771 49.9505 162.674V162.673Z" fill="#141414"/>
<path d="M52.962 163.506L52.9128 163.487C52.649 163.388 52.5161 163.095 52.6145 162.832L53.4215 160.67C53.5199 160.406 53.813 160.273 54.0757 160.371L54.1249 160.39C54.3887 160.488 54.5216 160.782 54.4232 161.045L53.6162 163.207C53.5178 163.471 53.2247 163.604 52.9609 163.506H52.962Z" fill="#141414"/>
<path d="M56.0875 164.029L56.0383 164.01C55.7745 163.912 55.6416 163.619 55.7399 163.356L56.547 161.194C56.6454 160.93 56.9385 160.797 57.2022 160.895L57.2514 160.913C57.5152 161.012 57.6482 161.305 57.5498 161.569L56.7427 163.731C56.6443 163.994 56.3512 164.127 56.0875 164.029Z" fill="#141414"/>
<path d="M59.2183 164.542L59.1691 164.523C58.9054 164.425 58.7724 164.132 58.8708 163.869L59.6778 161.707C59.7762 161.443 60.0693 161.31 60.3321 161.408L60.3813 161.427C60.645 161.526 60.778 161.819 60.6796 162.081L59.8725 164.243C59.7741 164.507 59.4811 164.64 59.2173 164.542H59.2183Z" fill="#141414"/>
<path d="M37.4136 162.118L37.4262 162.085C37.378 162.078 37.3309 162.068 37.2838 162.05L33.7312 160.724C33.3805 160.593 33.2099 160.178 33.3512 159.799L36.5553 151.219C36.6966 150.84 37.0975 150.638 37.4482 150.769L41.0008 152.095C41.2091 152.173 41.3525 152.351 41.4059 152.561C41.6843 152.682 41.9659 152.805 42.2496 152.925C42.3448 152.204 41.9743 151.503 41.3127 151.256L37.7601 149.93C36.9813 149.639 36.0926 150.087 35.7786 150.928L32.5746 159.508C32.2605 160.349 32.6384 161.269 33.4172 161.56L36.9698 162.886C37.5026 163.085 38.0867 162.937 38.5033 162.555C38.1401 162.412 37.7758 162.266 37.4115 162.116L37.4136 162.118Z" fill="#7FBF43"/>
<path d="M36.6338 155.31L35.0878 154.734C34.8104 154.63 34.4953 154.789 34.3833 155.088C34.2713 155.388 34.4053 155.714 34.6827 155.818L36.2287 156.394L36.6338 155.311V155.31Z" fill="white"/>
<g style="mix-blend-mode:multiply" opacity="0.2">
<path d="M143.013 171H179C179 171 173.443 162.192 167.592 140.334C165.024 156.429 150.857 155.501 145.235 156.394C138.762 157.422 113.634 152.184 110.114 150.534C111.68 152.923 115.392 157.85 126.539 160.446C138.215 163.165 143.013 171 143.013 171Z" fill="#F7C29E"/>
</g>
<g style="mix-blend-mode:multiply" opacity="0.2">
<path d="M106.05 88.0447C113.106 99.3798 125.765 125.418 119.501 136.778L123.658 140.88C123.658 140.88 134.161 129.247 117.448 103.591C113.558 97.6206 109.692 92.4559 106.05 88.0447Z" fill="#F7C29E"/>
</g>
<path d="M64.1495 85.7517C64.1495 89.9954 60.7079 93.4364 56.4633 93.4364C52.2188 93.4364 48.7771 89.9954 48.7771 85.7517C48.7771 81.5079 52.2188 78.0669 56.4633 78.0669C60.7079 78.0669 64.1495 81.5079 64.1495 85.7517Z" fill="white"/>
<path fill-rule="evenodd" clip-rule="evenodd" d="M55.4038 89.5999C55.7822 89.5354 56.1519 89.3966 56.4886 89.176C57.9167 88.2409 58.2395 86.2987 57.2321 84.9509C57.1449 84.8341 57.0503 84.7257 56.9511 84.6247C56.8778 84.5518 56.772 84.5219 56.6714 84.5458C56.5707 84.5696 56.4896 84.6439 56.4562 84.742C56.4562 84.742 56.4562 84.742 56.4566 84.742C56.42 84.8491 56.4483 84.9678 56.529 85.0467C56.6106 85.1276 56.6876 85.2154 56.7586 85.3103C57.5573 86.3791 57.3059 87.9171 56.1802 88.6653C55.9446 88.8218 55.6885 88.9279 55.4246 88.9877C55.3861 88.7676 55.298 88.5526 55.1556 88.362C54.6728 87.7156 53.76 87.5862 53.1185 88.0727C53.0981 88.0881 53.08 88.1054 53.0605 88.1218C52.3347 87.1535 52.4715 85.7987 53.3416 84.9953C53.4381 84.9061 53.4678 84.7645 53.407 84.6481C53.4033 84.6406 53.3991 84.6332 53.3954 84.6262C53.3054 84.4593 53.0842 84.4238 52.945 84.5518C51.811 85.5945 51.6644 87.3824 52.6858 88.6059C52.4562 89.0844 52.4928 89.6723 52.8319 90.1261C53.3147 90.7724 54.228 90.9019 54.869 90.4154C55.1454 90.2056 55.3263 89.9149 55.4042 89.6008L55.4038 89.5999ZM53.2614 89.799C53.0874 89.5667 53.0401 89.2779 53.106 89.0162C53.1171 88.9728 53.1315 88.9302 53.1487 88.8886C53.151 88.8835 53.1528 88.8779 53.1552 88.8727C53.1621 88.8564 53.1705 88.84 53.1783 88.8241C53.1825 88.8162 53.1867 88.8078 53.1909 88.7998C53.1992 88.7844 53.208 88.7695 53.2173 88.7545C53.2224 88.7461 53.2275 88.7382 53.2331 88.7302C53.2428 88.7157 53.253 88.7012 53.2637 88.6867C53.2693 88.6793 53.2753 88.6723 53.2809 88.6648C53.2924 88.6503 53.304 88.6358 53.3166 88.6223C53.3207 88.6176 53.3249 88.6134 53.3291 88.6092C53.3611 88.5755 53.3954 88.5433 53.433 88.5138C53.4362 88.5115 53.439 88.5087 53.4423 88.5059C53.8462 88.1993 54.4214 88.2811 54.7256 88.6882C54.8073 88.7975 54.8606 88.9199 54.888 89.0457C54.9093 89.1447 54.9144 89.2466 54.9033 89.3461C54.9033 89.3475 54.9033 89.3494 54.9033 89.3508C54.901 89.3723 54.8973 89.3938 54.8931 89.4153C54.8922 89.4205 54.8912 89.4261 54.8903 89.4312C54.8861 89.4513 54.8815 89.4709 54.8759 89.4905C54.8741 89.4966 54.8722 89.5032 54.8704 89.5092C54.8648 89.5284 54.8583 89.548 54.8513 89.5667C54.8495 89.5723 54.8472 89.5775 54.8449 89.5826C54.837 89.6027 54.8291 89.6223 54.8198 89.642C54.7586 89.7719 54.6663 89.8892 54.5448 89.9817C54.1408 90.2883 53.5656 90.2065 53.2614 89.7995V89.799Z" fill="#6ED04F"/>
<path fill-rule="evenodd" clip-rule="evenodd" d="M59.3402 83.2139C59.632 82.7181 59.6176 82.0727 59.2521 81.5839C58.7693 80.9376 57.856 80.8081 57.215 81.2946C56.9196 81.5189 56.7345 81.8353 56.6663 82.1746C56.2633 82.233 55.869 82.3774 55.5114 82.6115C54.0833 83.5466 53.7605 85.4888 54.7679 86.8366C54.8551 86.9534 54.9497 87.0619 55.049 87.1628C55.1223 87.2357 55.228 87.2656 55.3287 87.2418C55.4293 87.218 55.5105 87.1436 55.5439 87.0455C55.5439 87.0455 55.5439 87.0455 55.5434 87.0455C55.5796 86.9385 55.5518 86.8198 55.4711 86.7408C55.3894 86.66 55.3124 86.5721 55.2415 86.4772C54.4428 85.4085 54.6942 83.8705 55.8198 83.1223C56.0838 82.9471 56.3736 82.834 56.671 82.7798C56.7141 82.9798 56.7985 83.1737 56.9284 83.3476C57.4038 83.9836 58.2948 84.1177 58.9339 83.6583C59.6668 84.6271 59.5309 85.9875 58.6584 86.7927C58.5619 86.8819 58.5323 87.0235 58.593 87.1399C58.5967 87.1474 58.6009 87.1549 58.6046 87.1619C58.6946 87.3287 58.9158 87.3642 59.055 87.2362C60.1793 86.2025 60.3333 84.4364 59.3398 83.2139H59.3402ZM57.3579 83.0209C57.2939 82.9354 57.2479 82.8419 57.2178 82.7456C57.1798 82.6251 57.1672 82.4994 57.1793 82.376C57.1793 82.3722 57.1798 82.3685 57.1802 82.3648C57.1826 82.3437 57.1858 82.3227 57.1895 82.3017C57.1904 82.2965 57.1914 82.2909 57.1923 82.2858C57.1965 82.2652 57.2011 82.2447 57.2062 82.2246C57.2076 82.2199 57.209 82.2152 57.2104 82.2106C57.2164 82.1895 57.2229 82.1685 57.2303 82.1479C57.2888 81.9862 57.3922 81.839 57.5388 81.7283C57.9428 81.4217 58.5179 81.5035 58.8222 81.9105C59.0221 82.1778 59.0545 82.5195 58.9395 82.8092C58.9186 82.862 58.8927 82.9129 58.862 82.962C58.8579 82.9686 58.8542 82.9751 58.8495 82.9812C58.8412 82.9938 58.8324 83.0069 58.8231 83.019C58.8115 83.0345 58.7994 83.0499 58.7869 83.0648C58.7795 83.0737 58.7721 83.0821 58.7642 83.0905C58.7507 83.105 58.7373 83.1195 58.7229 83.1331C58.7169 83.1391 58.7108 83.1447 58.7043 83.1503C58.6839 83.1686 58.6635 83.1868 58.6413 83.2036C58.6125 83.2251 58.5828 83.2447 58.5527 83.2625C58.1566 83.4966 57.6403 83.3999 57.3574 83.0214L57.3579 83.0209Z" fill="#6ED04F"/>
<path d="M120.099 26.2128H67.9105C66.2169 26.2128 64.8446 27.5848 64.8446 29.2781V51.0179C64.8446 52.7113 66.2169 54.0833 67.9105 54.0833H73.3295C73.0155 56.4767 72.6031 59.9094 72.8291 59.9094C73.0699 59.9094 75.6993 56.2978 77.2904 54.0833H120.1C121.794 54.0833 123.166 52.7102 123.166 51.0179V29.2781C123.166 27.5848 121.794 26.2128 120.1 26.2128H120.099Z" fill="#6ED04F"/>
<path d="M81.7672 43.7696C83.7253 40.0039 82.2594 35.3641 78.4931 33.4064C74.7267 31.4486 70.0861 32.9142 68.1279 36.6798C66.1698 40.4455 67.6356 45.0853 71.402 47.043C75.1684 49.0008 79.809 47.5352 81.7672 43.7696Z" fill="white"/>
<path d="M76.164 44.0981H73.9072V46.3514H76.164V44.0981Z" fill="#F7C29E"/>
<path d="M76.164 45.4483V44.0972H73.9072V45.2463C74.3929 45.5069 75.1131 45.6565 76.164 45.4483Z" fill="#F19A5E"/>
<path d="M79.7229 40.0648C79.4874 39.9486 79.2142 39.9696 78.9661 40.0952C79.0509 37.8723 77.2348 36.0021 74.9477 36.0817C72.6605 36.0021 70.8444 37.8723 70.9292 40.0952C70.6822 39.9696 70.4079 39.9497 70.1724 40.0648C69.7202 40.2867 69.58 40.9251 69.8584 41.4881C70.1368 42.0522 70.7293 42.3285 71.1804 42.1056C71.2432 42.0742 71.2987 42.0355 71.35 41.9894C71.6085 43.8271 73.1452 45.2054 74.9466 45.1793C76.7491 45.2044 78.2847 43.8271 78.5432 41.9894C78.5934 42.0355 78.65 42.0742 78.7128 42.1056C79.165 42.3285 79.7564 42.0512 80.0348 41.4881C80.3132 40.924 80.173 40.2867 79.7208 40.0648H79.7229Z" fill="#F7C29E"/>
<path d="M72.1989 35.2005C72.1989 35.2005 73.3314 34.2418 75.9064 34.3967C78.4814 34.5516 78.9713 35.8943 79.1168 37.8126L78.9661 40.0951C78.9661 40.0951 78.2972 39.4086 77.4273 37.5028C77.4273 37.5028 75.986 39.1198 75.3579 38.9282C74.7299 38.7367 75.5955 37.5719 75.5955 37.5719C75.5955 37.5719 72.6584 40.0983 70.9292 40.0941C70.9292 40.0941 70.0133 37.1376 71.2987 36.0523C71.2987 36.0523 70.3304 36.0984 70.2791 35.9079C70.2279 35.7174 70.7408 35.4328 71.6713 35.5406C71.6713 35.5406 71.0087 34.2439 71.3782 34.1089C71.7488 33.9739 72.1989 35.1984 72.1989 35.1984V35.2005Z" fill="#050505"/>
<path d="M76.4246 42.6917C76.3252 43.1375 75.8154 43.4881 75.1895 43.5069C74.5635 43.5257 74.0328 43.2076 73.9072 42.7691L76.4246 42.6927V42.6917Z" fill="white"/>
<path d="M85.9144 32.4774H115.237C115.587 32.4774 115.871 32.7621 115.871 33.1116V33.1776C115.871 33.5281 115.586 33.8118 115.237 33.8118H85.9144C85.5637 33.8118 85.28 33.5271 85.28 33.1776V33.1116C85.28 32.761 85.5647 32.4774 85.9144 32.4774Z" fill="white"/>
<path d="M85.9144 36.0011H91.8693C92.2199 36.0011 92.5036 36.2858 92.5036 36.6353V36.7012C92.5036 37.0518 92.2189 37.3354 91.8693 37.3354H85.9144C85.5637 37.3354 85.28 37.0508 85.28 36.7012V36.6353C85.28 36.2847 85.5647 36.0011 85.9144 36.0011Z" fill="white"/>
<path d="M95.8658 36.0011H115.237C115.587 36.0011 115.871 36.2858 115.871 36.6353V36.7012C115.871 37.0518 115.586 37.3354 115.237 37.3354H95.8658C95.5151 37.3354 95.2314 37.0508 95.2314 36.7012V36.6353C95.2314 36.2847 95.5162 36.0011 95.8658 36.0011Z" fill="white"/>
<path d="M100.448 39.5259H85.9134C85.563 39.5259 85.2791 39.8098 85.2791 40.1601V40.2271C85.2791 40.5773 85.563 40.8613 85.9134 40.8613H100.448C100.799 40.8613 101.083 40.5773 101.083 40.2271V40.1601C101.083 39.8098 100.799 39.5259 100.448 39.5259Z" fill="white"/>
<path d="M104.03 39.5259H115.238C115.588 39.5259 115.872 39.8105 115.872 40.1601V40.226C115.872 40.5766 115.587 40.8602 115.238 40.8602H104.03C103.68 40.8602 103.396 40.5756 103.396 40.226V40.1601C103.396 39.8095 103.681 39.5259 104.03 39.5259Z" fill="white"/>
<path d="M85.9144 43.0496H115.237C115.587 43.0496 115.871 43.3342 115.871 43.6838V43.7497C115.871 44.1003 115.586 44.3839 115.237 44.3839H85.9134C85.5627 44.3839 85.2791 44.0992 85.2791 43.7497V43.6838C85.2791 43.3332 85.5638 43.0496 85.9134 43.0496H85.9144Z" fill="white"/>
<path d="M66.2828 79.1301H75.3109C75.6616 79.1301 75.9452 79.4148 75.9452 79.7643V79.8303C75.9452 80.1809 75.6605 80.4645 75.3109 80.4645H66.2828C65.9321 80.4645 65.6484 80.1798 65.6484 79.8303V79.7643C65.6484 79.4137 65.9332 79.1301 66.2828 79.1301Z" fill="white"/>
<path d="M66.2828 82.6539H71.9687C72.3193 82.6539 72.603 82.9386 72.603 83.2881V83.3541C72.603 83.7047 72.3183 83.9883 71.9687 83.9883H66.2828C65.9321 83.9883 65.6484 83.7036 65.6484 83.3541V83.2881C65.6484 82.9375 65.9332 82.6539 66.2828 82.6539Z" fill="white"/>
<path d="M74.4379 82.6539H81.7285C82.0791 82.6539 82.3628 82.9386 82.3628 83.2881V83.3541C82.3628 83.7047 82.0781 83.9883 81.7285 83.9883H74.4379C74.0873 83.9883 73.8036 83.7036 73.8036 83.3541V83.2881C73.8036 82.9375 74.0883 82.6539 74.4379 82.6539Z" fill="white"/>
<path d="M84.1967 82.6539H94.4663C94.8169 82.6539 95.1006 82.9386 95.1006 83.2881V83.3541C95.1006 83.7047 94.8159 83.9883 94.4663 83.9883H84.1967C83.846 83.9883 83.5624 83.7036 83.5624 83.3541V83.2881C83.5624 82.9375 83.8471 82.6539 84.1967 82.6539Z" fill="white"/>
<path d="M94.4673 79.1301H78.2868C77.9365 79.1301 77.6525 79.4141 77.6525 79.7643V79.8313C77.6525 80.1816 77.9365 80.4655 78.2868 80.4655H94.4673C94.8176 80.4655 95.1016 80.1816 95.1016 79.8313V79.7643C95.1016 79.4141 94.8176 79.1301 94.4673 79.1301Z" fill="white"/>
<path d="M66.2828 89.561H94.4653C94.8159 89.561 95.0996 89.8457 95.0996 90.1952V90.2612C95.0996 90.6118 94.8149 90.8954 94.4653 90.8954H66.2818C65.9311 90.8954 65.6475 90.6107 65.6475 90.2612V90.1952C65.6475 89.8446 65.9322 89.561 66.2818 89.561H66.2828Z" fill="white"/>
<path d="M66.2828 86.1776H80.2285C80.5792 86.1776 80.8628 86.4623 80.8628 86.8118V86.8778C80.8628 87.2283 80.5781 87.512 80.2285 87.512H66.2828C65.9321 87.512 65.6484 87.2273 65.6484 86.8778V86.8118C65.6484 86.4612 65.9332 86.1776 66.2828 86.1776Z" fill="white"/>
<path d="M83.7236 86.1776H94.4652C94.8159 86.1776 95.0995 86.4623 95.0995 86.8118V86.8778C95.0995 87.2283 94.8148 87.512 94.4652 87.512H83.7236C83.3729 87.512 83.0892 87.2273 83.0892 86.8778V86.8118C83.0892 86.4612 83.3739 86.1776 83.7236 86.1776Z" fill="white"/>
<path d="M20.5978 81.8564C19.8463 81.2076 19.2297 80.9009 19.2245 80.8978L19.416 80.5095C19.4433 80.5231 20.0891 80.8444 20.8815 81.5289L20.5978 81.8564Z" fill="#292929"/>
<path d="M21.2855 123.72C20.5067 122.884 19.7981 122.029 19.1784 121.18L19.5291 120.925C20.1383 121.761 20.8364 122.602 21.6037 123.425L21.2865 123.72H21.2855ZM17.4293 118.373C16.9091 117.37 16.4872 116.338 16.1753 115.308L16.5898 115.183C16.8934 116.187 17.3058 117.193 17.8134 118.174L17.4282 118.373H17.4293ZM15.5389 112.055C15.4918 111.55 15.4688 111.033 15.4688 110.518C15.4688 109.936 15.4991 109.339 15.5588 108.742L15.99 108.785C15.9314 109.367 15.9021 109.95 15.9021 110.517C15.9021 111.018 15.9251 111.523 15.9701 112.015L15.5389 112.054V112.055ZM16.5772 105.6L16.1586 105.489C16.4265 104.476 16.7657 103.452 17.198 102.356L17.601 102.515C17.176 103.594 16.841 104.604 16.5772 105.6ZM18.923 99.5346L18.5336 99.3452C18.9544 98.4808 19.4338 97.5525 20.043 96.4254L20.424 96.6305C19.819 97.7524 19.3417 98.6754 18.923 99.5346ZM21.9962 93.7525L21.6131 93.5484L21.6257 93.5264C22.1752 92.5176 22.5981 91.5254 22.8807 90.5794L23.2963 90.7039C23.0053 91.6782 22.5709 92.6986 22.0056 93.7347L21.9962 93.7525ZM23.3224 87.4178C23.2837 86.3283 23.0252 85.2964 22.5562 84.3514L22.9446 84.1588C23.4418 85.1593 23.715 86.2509 23.7558 87.4031L23.3224 87.4188V87.4178Z" fill="#292929"/>
<path d="M24.9784 127.159C24.522 126.785 24.0761 126.404 23.6532 126.028L23.9411 125.704C24.3597 126.077 24.8004 126.454 25.2526 126.824L24.9773 127.159H24.9784Z" fill="#292929"/>
<path d="M17.7433 74.5244L17.1697 81.5038L13.1146 76.9377L0 66.1991L11.1834 69.7218C11.1834 69.7218 16.6892 72.3957 16.9425 72.7494C17.1948 73.1021 17.7433 74.5244 17.7433 74.5244Z" fill="#5CB30B"/>
<path d="M23.6867 71.525L0 66.1991L17.7433 74.5244L23.6867 71.525Z" fill="#7FBF43"/>
<path d="M8.63456 79.6932L15.9345 76.0513L0 66.1991L8.63456 79.6932Z" fill="#7FBF43"/>
</g>
<defs>
<clipPath id="clip0_133_1020">
<rect width="179" height="171" fill="white"/>
</clipPath>
</defs>
</svg>
