<svg width="258" height="146" viewBox="0 0 258 146" fill="none" xmlns="http://www.w3.org/2000/svg">
<path d="M42.4382 85.0636C42.4382 85.0636 39.3502 81.4739 42.2479 79.1932C42.2479 79.1932 44.3645 77.9168 46.0906 78.0202C46.0906 78.0202 43.6453 82.1062 44.4364 82.5126C45.2276 82.919 46.8316 77.7635 46.8316 77.7635C46.8316 77.7635 51.6484 77.2981 53.1979 78.0402C53.1979 78.0402 49.0803 81.3977 49.9478 81.5973C50.8154 81.7968 55.2626 78.5019 55.2626 78.5019C55.2626 78.5019 59.7453 79.2621 59.5059 81.9874C59.2664 84.7126 57.7224 85.5535 57.0433 85.4819C56.3642 85.4093 52.3931 83.8988 52.3066 84.4531C52.2201 85.0074 54.6108 86.8191 56.285 86.9034C56.285 86.9034 53.1241 90.3771 51.0239 89.3746C48.9237 88.3722 48.7443 86.7837 47.4352 86.1877C46.1261 85.5916 45.0082 85.5934 45.5489 86.2013C46.0897 86.8091 48.4594 87.3997 49.2077 88.7196C49.956 90.0396 50.6279 90.9296 48.4548 90.6039C46.2818 90.2782 42.7495 88.6933 42.5938 86.8789L42.4391 85.0645L42.4382 85.0636Z" fill="#C8DBF4"/>
<path d="M57.3019 82.0618C57.3019 82.0618 45.1265 81.5946 42.4373 85.0637C42.4373 85.0637 41.8428 86.8382 40.013 88.4548L39.728 89.2295C39.728 89.2295 41.8383 87.0124 42.593 86.879C42.593 86.879 41.4122 82.5798 57.3019 82.0618Z" fill="#C8DBF4"/>
<path d="M40.0138 88.4547C40.0138 88.4547 37.4002 90.3807 37.219 93.8217L37.6933 93.8643C37.6933 93.8643 38.5281 90.3063 40.0366 88.9147C41.5451 87.5231 40.0138 88.4547 40.0138 88.4547Z" fill="#C8DBF4"/>
<path d="M31.6411 80.5494C31.6411 80.5494 36.5535 77.8078 34.2612 74.0884C34.2612 74.0884 32.4277 71.804 30.4622 71.2171C30.4622 71.2171 31.51 76.7646 30.4622 76.8952C29.4143 77.0258 29.7421 70.6292 29.7421 70.6292C29.7421 70.6292 24.5675 68.149 22.5374 68.3449C22.5374 68.3449 25.7464 73.7618 24.6986 73.6311C23.6507 73.5005 20.0484 68.0183 20.0484 68.0183C20.0484 68.0183 14.7436 67.0395 13.8915 70.172C13.0403 73.3045 14.4159 74.8713 15.2016 75.0672C15.9872 75.2632 21.0307 75.1978 20.8996 75.8501C20.7685 76.5024 17.3628 77.5475 15.4637 76.9596C15.4637 76.9596 17.5594 82.1152 20.3106 81.8548C23.0617 81.5936 23.9129 79.8971 25.6153 79.7665C27.3186 79.6358 28.5622 80.0931 27.711 80.5494C26.8598 81.0066 23.9776 80.6991 22.602 81.8648C21.2264 83.0296 20.113 83.7481 22.6675 84.2698C25.222 84.7923 29.8067 84.4657 30.7234 82.508L31.6402 80.5503L31.6411 80.5494Z" fill="#C8DBF4"/>
<path d="M16.3159 71.1509C16.3159 71.1509 30.0698 75.5889 31.6421 80.5494C31.6421 80.5494 31.5765 82.7684 32.9521 85.314V86.2928C32.9521 86.2928 31.511 82.9643 30.7253 82.5071C30.7253 82.5071 33.8033 78.1998 16.3159 71.1509Z" fill="#C8DBF4"/>
<path d="M32.9512 85.3139C32.9512 85.3139 35.0724 88.5236 33.8634 92.4308L33.3181 92.2848C33.3181 92.2848 33.8479 87.9811 32.7382 85.8165C31.6284 83.6519 32.9521 85.3139 32.9521 85.3139H32.9512Z" fill="#C8DBF4"/>
<path d="M39.4566 76.7692C39.4566 76.7692 32.9811 73.1559 36.0036 68.2516C36.0036 68.2516 38.4206 65.2406 41.0106 64.4659C41.0106 64.4659 39.6296 71.7788 41.0106 71.9511C42.3917 72.1235 41.9601 63.692 41.9601 63.692C41.9601 63.692 48.7807 60.4225 51.4572 60.6811C51.4572 60.6811 47.2267 67.8216 48.6077 67.6501C49.9887 67.4778 54.7372 60.2511 54.7372 60.2511C54.7372 60.2511 61.7307 58.9601 62.8523 63.0906C63.9748 67.2201 62.1613 69.2849 61.1253 69.5434C60.0893 69.8011 53.4418 69.7158 53.6138 70.5758C53.7868 71.4358 58.2759 72.813 60.7794 72.0382C60.7794 72.0382 58.0164 78.8349 54.3904 78.4911C50.7644 78.1473 49.6419 75.9101 47.3969 75.7377C45.1519 75.5654 43.5114 76.1678 44.6339 76.7701C45.7564 77.3725 49.5554 76.9679 51.368 78.5038C53.1805 80.0397 54.6489 80.9859 51.2815 81.6744C47.914 82.363 41.8709 81.9321 40.662 79.3511L39.453 76.7701L39.4566 76.7692Z" fill="#D4E4F8"/>
<path d="M59.6587 64.3796C59.6587 64.3796 41.5286 70.2301 39.4566 76.7683C39.4566 76.7683 39.5431 79.6931 37.7296 83.0488V84.3397C37.7296 84.3397 39.6287 79.9516 40.6647 79.3501C40.6647 79.3501 36.6071 73.672 59.6587 64.3805V64.3796Z" fill="#D4E4F8"/>
<path d="M37.7297 83.0496C37.7297 83.0496 34.9339 87.2807 36.528 92.4309L37.2472 92.2386C37.2472 92.2386 36.5489 86.5659 38.0119 83.7128C39.4748 80.8596 37.7297 83.0496 37.7297 83.0496Z" fill="#D4E4F8"/>
<path d="M39.2382 103.599C46.2435 103.599 51.9215 97.9403 51.9215 90.9595H26.554C26.554 97.9403 32.2329 103.599 39.2373 103.599H39.2382Z" fill="#D4E4F8"/>
<path d="M27.9441 102.683H50.5323C51.3962 102.683 52.0972 103.382 52.0972 104.243H26.3792C26.3792 103.382 27.0801 102.683 27.9441 102.683Z" fill="#D4E4F8"/>
<path d="M52.2101 90.9595H26.137V91.3468H52.2101V90.9595Z" fill="url(#paint0_linear_198_4)"/>
<path d="M104.686 145.292H104.749C105.262 145.281 105.658 144.863 105.61 144.384L102.19 110.357L99.2069 110.622L104.117 144.832C104.155 145.099 104.401 145.297 104.686 145.292Z" fill="#808080"/>
<path d="M71.7646 145.292H71.7018C71.1893 145.281 70.7933 144.863 70.8415 144.384L74.2609 110.357L77.2442 110.622L72.3345 144.832C72.2963 145.099 72.0505 145.297 71.7646 145.292Z" fill="#808080"/>
<path d="M128.807 145.292H128.87C129.382 145.281 129.778 144.863 129.73 144.384L126.311 110.357L123.327 110.622L128.237 144.832C128.275 145.099 128.521 145.297 128.807 145.292Z" fill="#808080"/>
<path d="M72.7833 105.408L66.7148 75.5429C65.9355 71.4996 69.2984 67.8018 73.6637 67.9016L85.3683 68.1683C89.4058 68.26 92.9162 70.9534 94.0387 74.819L102.918 105.409H72.7833V105.408Z" fill="#808080"/>
<path d="M76.4548 105.408L70.3863 75.5429C69.607 71.4996 72.9699 67.8018 77.3352 67.9016L89.0398 68.1683C93.0774 68.26 96.5878 70.9534 97.7103 74.819L106.589 105.409H76.4548V105.408Z" fill="#808080"/>
<path d="M120.781 110.854H74.4739C73.5398 110.854 72.7824 110.099 72.7824 109.169V105.408H120.781C121.715 105.408 122.472 106.163 122.472 107.093V109.169C122.472 110.099 121.714 110.854 120.781 110.854Z" fill="#808080"/>
<path d="M96.2055 110.854H125.724C126.477 110.854 127.087 110.246 127.087 109.496V106.766C127.087 106.016 126.477 105.408 125.724 105.408H96.2055C95.4528 105.408 94.8426 106.016 94.8426 106.766V109.496C94.8426 110.246 95.4528 110.854 96.2055 110.854Z" fill="#808080"/>
<path d="M58.9665 105.018V106.037C58.9665 106.394 58.8509 106.685 58.7089 106.685H21.3963C21.2552 106.685 21.1387 106.394 21.1387 106.037V105.018C21.1387 104.662 21.2543 104.371 21.3963 104.371H58.7089C58.85 104.371 58.9665 104.663 58.9665 105.018Z" fill="#6ED04F"/>
<path d="M58.9665 105.018V106.037C58.9665 106.394 58.86 106.685 58.7308 106.685H29.1081C28.9779 106.685 28.8723 106.394 28.8723 106.037V105.018C28.8723 104.662 28.9788 104.371 29.1081 104.371H58.7299C58.86 104.371 58.9656 104.663 58.9656 105.018H58.9665Z" fill="url(#paint1_linear_198_4)"/>
<path d="M49.5224 106.686H23.0332V145.161H49.5224V106.686Z" fill="url(#paint2_linear_198_4)"/>
<path d="M56.9455 106.686H30.4563V145.161H56.9455V106.686Z" fill="#DFEBFD"/>
<path d="M55.5225 143.036H31.8801V107.772H55.5225V143.036ZM32.135 142.782H55.2667V108.027H32.135V142.782Z" fill="url(#paint3_linear_198_4)"/>
<path d="M55.3951 119.438H32.0076V119.692H55.3951V119.438Z" fill="url(#paint4_linear_198_4)"/>
<path d="M55.3951 131.331H32.0076V131.585H55.3951V131.331Z" fill="url(#paint5_linear_198_4)"/>
<path d="M46.0974 110.047H41.7577C41.5474 110.047 41.3744 109.875 41.3744 109.665C41.3744 109.455 41.5464 109.283 41.7577 109.283H46.0974C46.3077 109.283 46.4807 109.454 46.4807 109.665C46.4807 109.874 46.3086 110.047 46.0974 110.047Z" fill="url(#paint6_linear_198_4)"/>
<path d="M46.0974 121.677H41.7577C41.5474 121.677 41.3744 121.505 41.3744 121.295C41.3744 121.085 41.5464 120.913 41.7577 120.913H46.0974C46.3077 120.913 46.4807 121.085 46.4807 121.295C46.4807 121.505 46.3086 121.677 46.0974 121.677Z" fill="url(#paint7_linear_198_4)"/>
<path d="M46.0974 133.8H41.7577C41.5474 133.8 41.3744 133.628 41.3744 133.418C41.3744 133.208 41.5464 133.036 41.7577 133.036H46.0974C46.3077 133.036 46.4807 133.207 46.4807 133.418C46.4807 133.627 46.3086 133.8 46.0974 133.8Z" fill="url(#paint8_linear_198_4)"/>
<path d="M146.166 18.5657H162.956C163.73 18.5657 164.357 19.1916 164.357 19.9618V36.1108C164.357 36.8819 163.729 37.507 162.956 37.507H146.166C145.392 37.507 144.765 36.881 144.765 36.1108V19.9628C144.765 19.1916 145.393 18.5666 146.166 18.5666V18.5657Z" fill="url(#paint9_linear_198_4)"/>
<path d="M162.229 19.3867H146.893C146.186 19.3867 145.613 19.9578 145.613 20.6622V35.4123C145.613 36.1167 146.186 36.6878 146.893 36.6878H162.229C162.936 36.6878 163.509 36.1167 163.509 35.4123V20.6622C163.509 19.9578 162.936 19.3867 162.229 19.3867Z" fill="#DFEBFD"/>
<path d="M154.561 21.5194C154.785 21.5194 154.967 21.3383 154.967 21.1148C154.967 20.8914 154.785 20.7102 154.561 20.7102C154.337 20.7102 154.155 20.8914 154.155 21.1148C154.155 21.3383 154.337 21.5194 154.561 21.5194Z" fill="url(#paint10_linear_198_4)"/>
<path d="M157.43 21.6873C157.54 21.4923 157.786 21.4215 157.982 21.5304C158.178 21.6393 158.249 21.8851 158.14 22.0801C158.03 22.2752 157.784 22.346 157.588 22.2371C157.392 22.1282 157.321 21.8824 157.43 21.6873Z" fill="url(#paint11_linear_198_4)"/>
<path d="M160.236 23.908C160.425 23.7873 160.676 23.8408 160.797 24.0286C160.918 24.2164 160.864 24.4668 160.676 24.5874C160.487 24.7081 160.236 24.6546 160.115 24.4668C159.993 24.279 160.048 24.0286 160.236 23.908Z" fill="url(#paint12_linear_198_4)"/>
<path d="M161.625 27.3464C161.849 27.3464 162.031 27.5279 162.031 27.751C162.031 27.9742 161.849 28.1557 161.625 28.1557C161.401 28.1557 161.219 27.9742 161.219 27.751C161.219 27.5279 161.401 27.3464 161.625 27.3464Z" fill="url(#paint13_linear_198_4)"/>
<path d="M160.916 31.3362C161.074 31.494 161.074 31.7498 160.916 31.9077C160.758 32.0655 160.501 32.0655 160.343 31.9077C160.184 31.7498 160.184 31.494 160.343 31.3362C160.501 31.1783 160.758 31.1783 160.916 31.3362Z" fill="url(#paint14_linear_198_4)"/>
<path d="M158.367 33.8825C158.525 34.0404 158.525 34.2962 158.367 34.4541C158.209 34.6119 157.952 34.6119 157.793 34.4541C157.635 34.2962 157.635 34.0404 157.793 33.8825C157.952 33.7247 158.209 33.7247 158.367 33.8825Z" fill="url(#paint15_linear_198_4)"/>
<path d="M154.155 35.1954C154.155 34.9722 154.337 34.7908 154.561 34.7908C154.785 34.7908 154.967 34.9722 154.967 35.1954C154.967 35.4185 154.785 35.6 154.561 35.6C154.337 35.6 154.155 35.4185 154.155 35.1954Z" fill="url(#paint16_linear_198_4)"/>
<path d="M151.679 21.6873C151.569 21.4923 151.323 21.4215 151.127 21.5304C150.931 21.6393 150.86 21.8851 150.969 22.0801C151.079 22.2752 151.325 22.346 151.521 22.2371C151.717 22.1282 151.788 21.8824 151.679 21.6873Z" fill="url(#paint17_linear_198_4)"/>
<path d="M148.874 23.9082C148.685 23.7875 148.434 23.8411 148.313 24.0289C148.191 24.2166 148.246 24.467 148.434 24.5877C148.622 24.7083 148.874 24.6548 148.995 24.467C149.116 24.2792 149.062 24.0289 148.874 23.9082Z" fill="url(#paint18_linear_198_4)"/>
<path d="M147.484 27.3464C147.26 27.3464 147.078 27.5279 147.078 27.751C147.078 27.9742 147.26 28.1557 147.484 28.1557C147.708 28.1557 147.89 27.9742 147.89 27.751C147.89 27.5279 147.708 27.3464 147.484 27.3464Z" fill="url(#paint19_linear_198_4)"/>
<path d="M148.193 31.3362C148.034 31.494 148.034 31.7498 148.193 31.9077C148.351 32.0655 148.608 32.0655 148.766 31.9077C148.925 31.7498 148.925 31.494 148.766 31.3362C148.608 31.1783 148.351 31.1783 148.193 31.3362Z" fill="url(#paint20_linear_198_4)"/>
<path d="M150.742 33.8828C150.583 34.0406 150.583 34.2965 150.742 34.4543C150.9 34.6122 151.157 34.6122 151.315 34.4543C151.474 34.2965 151.474 34.0406 151.315 33.8828C151.157 33.7249 150.9 33.7249 150.742 33.8828Z" fill="url(#paint21_linear_198_4)"/>
<path d="M154.452 27.751C154.452 27.5279 154.634 27.3464 154.858 27.3464C155.082 27.3464 155.264 27.5279 155.264 27.751C155.264 27.9742 155.082 28.1557 154.858 28.1557C154.634 28.1557 154.452 27.9742 154.452 27.751Z" fill="url(#paint22_linear_198_4)"/>
<path d="M154.913 22.698H154.802V27.7511H154.913V22.698Z" fill="url(#paint23_linear_198_4)"/>
<path d="M157.394 25.5149L154.705 27.6177L154.91 27.8781L157.599 25.7754L157.394 25.5149Z" fill="url(#paint24_linear_198_4)"/>
<path d="M113.124 99.1577C110.619 103.502 107.468 105.18 107.468 105.18H94.3594C94.3594 105.18 115.035 95.8429 113.124 99.1577Z" fill="#233862"/>
<path d="M129.291 142.324C129.149 143.695 131.063 144.048 133.282 144.183C135.5 144.317 134.825 144.762 137.861 145.344C140.897 145.925 142.125 145.109 142.35 144.702C142.55 144.34 141.142 143.757 139.641 143.099C139.452 143.016 139.264 142.932 139.074 142.847C137.386 142.086 136.451 140.559 135.143 139.14C133.905 137.795 132.761 133.519 132.761 133.519L128.637 132.596C128.637 132.596 129.757 136.445 130.142 138.087C130.368 139.053 130.007 140.127 129.687 140.943C129.515 141.388 129.341 141.842 129.292 142.325L129.291 142.324Z" fill="#FFB27D"/>
<path d="M133.282 144.182C135.5 144.316 134.825 144.762 137.861 145.343C140.897 145.925 142.125 145.108 142.35 144.701C142.55 144.34 141.142 143.756 139.641 143.098L139.618 143.123C139.618 143.123 137.471 143.824 135.009 143.129C133.003 142.563 131.07 141.343 129.687 140.941C129.515 141.386 129.342 141.84 129.292 142.323C129.15 143.694 131.064 144.048 133.283 144.182H133.282Z" fill="#0F2549"/>
<path d="M123.043 94.7071C120.823 93.154 106.142 90.3861 98.6509 89.5851L90.3701 82.4219C90.3701 82.4219 83.322 92.8247 83.2656 100.783C83.2392 104.495 84.9543 104.863 84.9552 104.864C84.9552 104.864 111.5 105.06 112.664 105.18C114.569 105.376 117.081 110.104 117.709 114.41C118.337 118.717 129.406 136.232 129.406 136.232C129.406 136.232 131.715 136.969 132.782 136.907C133.93 136.84 134.461 136.457 134.461 136.457C134.461 136.457 128.047 98.2098 123.042 94.708L123.043 94.7071Z" fill="#233862"/>
<path d="M122.425 142.324C122.283 143.695 124.197 144.048 126.416 144.183C128.634 144.317 127.959 144.762 130.995 145.344C134.031 145.925 135.259 145.109 135.484 144.702C135.684 144.34 134.276 143.757 132.775 143.099C132.587 143.016 132.398 142.932 132.208 142.847C130.52 142.086 129.585 140.559 128.277 139.14C127.039 137.795 125.895 133.519 125.895 133.519L121.77 132.596C121.77 132.596 122.89 136.445 123.275 138.087C123.501 139.053 123.14 140.127 122.82 140.943C122.648 141.388 122.475 141.842 122.425 142.325V142.324Z" fill="#FFB27D"/>
<path d="M126.416 144.182C128.634 144.316 127.959 144.762 130.995 145.343C134.031 145.925 135.259 145.108 135.484 144.701C135.684 144.34 134.276 143.756 132.775 143.098L132.752 143.123C132.752 143.123 130.605 143.824 128.143 143.129C126.137 142.563 124.204 141.343 122.821 140.941C122.649 141.386 122.475 141.84 122.426 142.323C122.284 143.694 124.198 144.048 126.416 144.182H126.416Z" fill="#233862"/>
<path d="M116.116 94.7071C114.187 93.3581 108.388 92.3121 101.987 91.5355C100.218 91.3205 98.7647 90.0387 98.3323 88.315L83.4431 82.4219C83.4431 82.4219 76.395 92.8247 76.3386 100.783C76.3122 104.495 78.0273 104.863 78.0282 104.864C78.0282 104.864 104.573 105.06 105.737 105.18C107.642 105.376 110.154 110.104 110.782 114.41C111.41 118.717 122.479 136.232 122.479 136.232C122.479 136.232 124.788 136.969 125.855 136.907C127.003 136.84 127.534 136.457 127.534 136.457C127.534 136.457 121.12 98.2098 116.115 94.708L116.116 94.7071Z" fill="#2B478B"/>
<path d="M96.1929 39.1987C94.1473 38.1282 91.0338 37.9831 90.5277 37.916C84.4755 37.1058 80.8331 45.8693 80.6182 48.5247C80.2231 53.419 77.6249 54.1656 73.9679 57.231C66.6349 63.3772 68.7852 70.5196 72.7954 73.1731C75.2015 74.7652 79.442 73.1731 79.442 73.1731C79.5021 73.2148 91.0402 66.7456 96.7273 63.6249C105.254 62.4174 101.407 41.9276 96.1929 39.1987Z" fill="#233862"/>
<path d="M94.9302 60.6093C94.9566 60.6229 92.2409 61.854 90.28 61.2081C88.4356 60.603 86.8115 57.836 86.837 57.8315C87.6372 57.7163 88.4511 56.9288 88.6787 52.2659L89.0328 52.3548L94.993 53.8562C94.993 53.8562 94.7572 55.7377 94.6598 57.5167C94.5779 59.0099 94.5943 60.4315 94.9293 60.6093H94.9302Z" fill="#FFB27D"/>
<path d="M94.994 53.8562C94.994 53.8562 94.994 54.2435 94.771 55.9935C91.3998 55.1462 89.9141 54.0322 88.8654 52.7576L94.9931 53.8562H94.994Z" fill="#ED975D"/>
<path d="M96.2657 54.094C96.2657 54.094 88.3846 55.3732 87.6609 50.4698C86.9371 45.5664 85.4332 42.4293 90.4339 41.406C95.4355 40.3827 96.6918 42.11 97.3327 43.6876C97.9736 45.2661 98.2977 53.6359 96.2657 54.0949V54.094Z" fill="#FFB27D"/>
<path d="M96.273 41.1991C96.273 41.1991 92.6934 46.8291 89.4989 48.1627C86.3035 49.4962 84.734 48.8195 84.734 48.8195C84.734 48.8195 86.1879 46.6232 86.5666 43.6739C86.6786 42.8048 87.2466 42.0591 88.0632 41.7334C90.3565 40.818 94.7909 39.3756 96.2739 41.1991H96.273Z" fill="#233862"/>
<path d="M93.1285 41.7435C93.1285 41.7435 95.226 42.8149 96.09 43.8201C96.9239 44.7889 97.8871 47.4198 97.8179 48.601C97.8179 48.601 98.853 42.9401 96.6972 40.9942C94.4113 38.9312 93.1285 41.7435 93.1285 41.7435Z" fill="#233862"/>
<path d="M101.236 72.588C100.996 88.5528 101.17 85.2161 99.4175 86.7311C98.9951 87.0958 97.808 87.3135 96.2458 87.416C91.3334 87.7408 82.6985 86.9343 82.3698 86.0299C81.2364 82.9 82.0366 81.9275 81.0917 77.1348C80.9933 76.625 80.8714 76.0734 80.7284 75.4729C79.94 72.1816 79.1735 71.0612 81.9693 65.7731C84.5056 60.9832 87.487 57.0922 87.7247 57.2319C94.415 61.19 94.6444 57.8724 94.6444 57.8724C94.6444 57.8724 101.354 64.8006 101.236 72.588H101.236Z" fill="white"/>
<path d="M94.6434 57.8733C94.6434 57.8733 101.491 59.03 102.3 61.9838C103.108 64.9376 107.866 82.3022 107.866 82.3022C107.866 82.3022 104.366 82.9291 102.749 81.3179C101.133 79.7067 97.1233 66.3701 97.1233 66.3701L94.6443 57.8742L94.6434 57.8733Z" fill="white"/>
<path d="M96.2458 87.4168C91.3334 87.7416 82.6985 86.9351 82.3698 86.0307C81.2364 82.9008 82.0366 81.9283 81.0917 77.1356L83.4614 70.4868C83.4614 70.4868 83.0699 77.8904 85.2603 79.8382C87.4488 81.785 94.2311 83.5976 95.2962 85.2242C95.8097 86.0053 96.1474 86.7882 96.2467 87.4168H96.2458Z" fill="#EBF3FF"/>
<path d="M90.6178 84.3025C90.6178 84.3025 95.4646 83.2275 96.2457 83.6557C97.0277 84.0839 98.9386 85.6452 99.178 86.1886C99.4175 86.732 97.4374 85.7767 96.7929 85.6043C96.3759 85.4928 95.278 85.8729 94.7345 86.0534C92.4476 86.8136 91.0457 86.4226 91.0457 86.4226L90.6178 84.3034V84.3025Z" fill="#FFB27D"/>
<path d="M87.7237 57.2329C87.7237 57.2329 80.8649 57.6321 78.6118 60.7637C75.4409 65.1708 69.1502 83.9543 72.7553 86.459C76.8156 89.2804 91.2332 87.1975 91.2332 87.1975C91.2332 87.1975 91.7129 84.9631 91.0456 83.8817C90.3783 82.8003 79.5294 81.054 79.0287 80.555C78.528 80.0561 85.2875 70.8254 85.2875 69.3285C85.2875 67.8316 87.7237 57.2329 87.7237 57.2329Z" fill="white"/>
<path d="M96.4806 85.0002C96.4806 85.0002 97.4957 86.3057 97.8288 86.4617C98.162 86.6178 98.3769 86.5788 98.3769 86.5788L97.6923 85.3513L96.4806 85.0002Z" fill="#FFB27D"/>
<path d="M96.2457 83.6558L99.1981 85.0846C99.1981 85.0846 99.0724 85.2896 98.7092 85.2733C98.346 85.257 97.4283 84.9222 97.4283 84.9222L96.2457 83.6558Z" fill="#FFB27D"/>
<path d="M107.122 87.0432H93.4097C93.4097 86.4417 93.8994 85.9536 94.503 85.9536H107.122V87.0432Z" fill="#6ED04F"/>
<path d="M107.082 72.1616H128.282L123.196 87.0432H101.86L107.082 72.1616Z" fill="#6ED04F"/>
<path d="M128.594 72.1616L123.508 87.0432H102.171L107.394 72.1616H128.594Z" fill="#6ED04F"/>
<path d="M117.164 79.4645C117.032 80.0333 116.463 80.4941 115.892 80.4941C115.322 80.4941 114.966 80.0333 115.098 79.4645C115.23 78.8957 115.799 78.4348 116.369 78.4348C116.94 78.4348 117.295 78.8957 117.164 79.4645Z" fill="#6ED04F"/>
<path d="M88.6704 87.0435H181.573C181.964 87.0435 182.28 87.3592 182.28 87.7483V89.6861C182.28 90.0753 181.964 90.391 181.573 90.391H88.6704C88.2798 90.391 87.963 90.0753 87.963 89.6861V87.7483C87.963 87.3592 88.2798 87.0435 88.6704 87.0435Z" fill="#182D4F"/>
<path d="M183.847 145.54L183.887 145.536C184.363 145.477 184.7 145.054 184.64 144.59L176.361 88.7471L173.331 88.8333L183.072 144.979C183.134 145.338 183.477 145.586 183.848 145.54H183.847Z" fill="#182D4F"/>
<path d="M85.5587 145.54L85.5186 145.536C85.0425 145.477 84.7056 145.054 84.7657 144.59L93.0447 88.7471L96.0753 88.8333L86.3343 144.979C86.2724 145.338 85.9292 145.586 85.5578 145.54H85.5587Z" fill="#182D4F"/>
<path d="M104.725 145.54L104.685 145.536C104.209 145.477 103.872 145.054 103.932 144.59L112.211 88.7471L115.241 88.8333L105.5 144.979C105.438 145.338 105.095 145.586 104.724 145.54H104.725Z" fill="#182D4F"/>
<path d="M257.649 145.013H0.351404C0.157329 145.013 0 145.17 0 145.363V145.651C0 145.844 0.157329 146.001 0.351404 146.001H257.649C257.843 146.001 258 145.844 258 145.651V145.363C258 145.17 257.843 145.013 257.649 145.013Z" fill="#2E3552"/>
<path d="M153.566 145.495H169.994C170.784 144.534 170.493 140.989 170.374 139.83C170.349 139.597 170.332 139.461 170.332 139.461C170.332 139.461 164.722 134.989 163.951 138.413C163.927 138.52 163.899 138.625 163.868 138.729C162.898 141.931 158.542 143.386 156.028 143.792C154.393 144.056 153.789 144.903 153.565 145.494L153.566 145.495Z" fill="#233862"/>
<path d="M198.392 92.3005C197.8 92.3005 170.252 97.4543 165.695 103.075C163.419 105.883 163.081 138.312 163.081 138.312C163.081 138.312 165.896 141.791 171.979 139.77C171.979 139.77 176.438 117.583 176.109 110.854C176.018 108.994 194.931 110.585 198.392 109.692C201.854 108.8 210.312 101.295 208.448 97.6403C206.585 93.9843 198.392 92.3005 198.392 92.3005Z" fill="#233862"/>
<path d="M165.814 84.3599C165.814 84.3599 160.257 84.4342 158.943 84.9958C157.629 85.5574 154.963 86.8456 155.677 87.0433C156.39 87.2411 159.794 86.9617 160.53 87.0742C161.265 87.1867 162.172 87.0433 162.623 87.0433C163.073 87.0433 165.175 87.0433 165.175 87.0433L165.814 84.3599Z" fill="#FFB27D"/>
<path d="M159.317 71.0712C159.317 71.0712 157.423 69.7222 155.583 69.4601C154.533 69.3104 153.514 69.1244 152.897 68.9076C151.199 68.3116 147.803 65.2679 148.06 64.9114C148.884 63.7674 152.85 66.1887 153.542 65.9284C154.234 65.668 152.212 64.2355 152.914 63.7311C153.282 63.4681 154.142 64.7871 154.844 64.9196C155.794 65.0992 156.537 66.4364 156.824 66.5062C157.381 66.6423 159.821 68.4504 159.821 68.4504L159.318 71.0703L159.317 71.0712Z" fill="#FFB27D"/>
<path d="M195.648 55.3168C195.648 55.3168 191.419 56.6232 187.251 68.0593C183.083 79.4953 181.501 80.1131 179.986 80.5613C178.471 81.0103 165.174 83.6485 165.174 83.6485V87.0423H185.662C185.662 87.0423 193.345 79.7593 195.648 74.8569C197.952 69.9544 195.648 55.3159 195.648 55.3159V55.3168Z" fill="#57A33B"/>
<path d="M146.306 145.495H162.734C163.524 144.534 163.233 140.989 163.113 139.83C163.089 139.597 163.072 139.461 163.072 139.461C163.072 139.461 157.462 134.989 156.691 138.413C156.667 138.52 156.639 138.625 156.608 138.729C155.637 141.931 151.282 143.386 148.768 143.792C147.133 144.056 146.529 144.903 146.305 145.494L146.306 145.495Z" fill="#1B3051"/>
<path d="M190.275 92.3005C189.682 92.3005 162.135 97.4543 157.578 103.075C155.302 105.883 154.964 138.312 154.964 138.312C154.964 138.312 157.78 141.791 163.862 139.77C163.862 139.77 168.321 117.583 167.992 110.854C167.901 108.994 186.814 110.585 190.275 109.692C193.737 108.8 202.195 101.295 200.331 97.6403C198.468 93.9843 190.275 92.3005 190.275 92.3005Z" fill="#2B478B"/>
<path d="M191.999 58.941C193.981 58.7778 196.058 58.2516 197.854 57.671C200.099 56.9452 201.908 55.8838 200.743 53.8399C199.669 51.9557 197.929 47.7463 198.046 44.259L193.87 47.6138L191.032 49.8918C191.032 49.8918 191.044 51.2353 191.354 53.5895C191.411 54.0186 191.477 54.4822 191.555 54.9766C191.618 55.3767 191.434 55.7758 191.089 55.989C191.067 56.0026 191.046 56.0153 191.026 56.029C189.615 56.9117 190.341 59.078 192.001 58.941H191.999Z" fill="#FFB27D"/>
<path d="M191.032 49.3377C191.032 49.3377 190.887 49.8257 191.137 51.6265C193.667 51.2156 196.031 49.2043 196.031 49.2043C194.743 48.8523 194.275 47.4652 193.315 47.595L191.032 49.3377Z" fill="#ED975D"/>
<path d="M188.691 49.7487C188.691 49.7487 198.421 51.3598 199.335 45.3052C200.248 39.2515 202.12 35.3823 195.946 34.0978C189.772 32.8132 188.213 34.9424 187.416 36.8892C186.617 38.836 186.184 49.1735 188.692 49.7487H188.691Z" fill="#FFB27D"/>
<path d="M185.985 34.2093C185.567 35.6671 186.685 37.4425 188.562 38.0276C191.349 38.8949 190.732 42.3014 191.987 42.2552C193.24 42.2089 193.747 40.2974 194.866 41.8242C195.821 43.127 194.072 44.671 194.192 45.3859C194.398 46.6124 196.327 49.1217 198.064 48.9956C199.801 48.8695 203.052 40.6422 202.402 38.0966C201.752 35.551 199.151 32.8666 196.689 32.4965C194.227 32.1263 190.809 33.185 190.02 33.185C189.23 33.185 186.21 33.4209 185.984 34.2084L185.985 34.2093Z" fill="#2B478B"/>
<path d="M208.578 63.7195C207.172 58.0785 203.285 52.16 200.656 52.1646C196.177 52.1727 189.739 53.3512 187.14 59.7414C185.226 64.4479 182.672 91.5213 185.558 93.4464C192.155 97.8481 207.449 106.833 210.165 97.6703C212.654 89.2742 211.019 73.5099 208.578 63.7195H208.578Z" fill="#6ED04F"/>
<path d="M197.7 58.1057C196.423 54.7935 192.302 53.6487 189.491 55.8277C187.971 57.0062 186.11 58.6845 183.862 61.0704C175.504 69.94 173.805 69.8847 172.235 69.7015C170.666 69.5182 157.403 66.7132 157.403 66.7132C157.403 66.7132 156.724 67.2121 156.325 68.0195C155.791 69.0973 156.06 69.8321 156.06 69.8321C155.54 69.4973 160.761 73.0835 163.359 74.5132C166.791 76.4011 171.962 78.1719 174.021 78.8441C174.605 79.0346 175.235 79.0256 175.813 78.8178C178.87 77.7201 189.136 73.7185 197.493 66.7767C199.695 64.9478 198.886 61.1775 197.701 58.1066L197.7 58.1057Z" fill="#6ED04F"/>
<path d="M201.107 52.2188L200.093 49.9426C200.093 49.9426 191.016 50.6802 189.491 55.8276C189.491 55.8276 196.526 52.3285 201.106 52.2188H201.107Z" fill="white"/>
<path opacity="0.18" d="M19.7737 145.553C19.7737 145.553 -10.844 108.8 4.11979 70.9622C13.8735 46.2984 50.4615 32.7839 71.1097 46.2984C79.9039 52.0545 108.119 46.4925 123.184 22.6624C152.459 -23.6453 254.629 4.47767 236.028 75.5762C227.027 109.982 263.423 111.233 244.878 145.626L19.7746 145.553H19.7737Z" fill="url(#paint25_linear_198_4)"/>
<path d="M172.508 145.292H172.445C171.932 145.281 171.536 144.863 171.585 144.384L175.004 110.357L177.987 110.622L173.078 144.832C173.039 145.099 172.794 145.297 172.508 145.292Z" fill="#808080"/>
<path d="M174.126 105.408H222.125V109.169C222.125 110.1 221.367 110.854 220.433 110.854H174.126C173.192 110.854 172.435 110.099 172.435 109.169V107.093C172.435 106.162 173.193 105.408 174.126 105.408Z" fill="#808080"/>
<path d="M222.125 109.546V105.541L222.177 105.537L225.421 77.1179C225.846 73.0228 224.472 69.0121 218.541 68.7019L208.107 68.0686C201.923 67.8146 199.132 72.943 198.349 76.8911L192.635 105.706C192.342 105.947 192.154 106.31 192.154 106.717V109.546C192.154 110.266 192.745 110.855 193.468 110.855H200.097L204.973 144.832C205.012 145.099 205.257 145.297 205.543 145.292H205.606C206.119 145.281 206.515 144.863 206.466 144.384L203.097 110.855H217.695L222.571 144.832C222.609 145.099 222.855 145.297 223.141 145.292H223.204C223.716 145.281 224.112 144.863 224.064 144.384L220.695 110.855H220.809C221.532 110.855 222.123 110.266 222.123 109.546H222.125Z" fill="#929392"/>
<defs>
<linearGradient id="paint0_linear_198_4" x1="26.137" y1="91.1536" x2="52.2101" y2="91.1536" gradientUnits="userSpaceOnUse">
<stop stop-color="#A4EB63"/>
<stop offset="1" stop-color="#6ED04F"/>
</linearGradient>
<linearGradient id="paint1_linear_198_4" x1="28.8723" y1="105.528" x2="58.9665" y2="105.528" gradientUnits="userSpaceOnUse">
<stop stop-color="#A4EB63"/>
<stop offset="1" stop-color="#6ED04F"/>
</linearGradient>
<linearGradient id="paint2_linear_198_4" x1="23.0332" y1="125.923" x2="49.5224" y2="125.923" gradientUnits="userSpaceOnUse">
<stop stop-color="#A4EB63"/>
<stop offset="1" stop-color="#6ED04F"/>
</linearGradient>
<linearGradient id="paint3_linear_198_4" x1="31.8801" y1="125.405" x2="55.5225" y2="125.405" gradientUnits="userSpaceOnUse">
<stop stop-color="#A4EB63"/>
<stop offset="1" stop-color="#6ED04F"/>
</linearGradient>
<linearGradient id="paint4_linear_198_4" x1="32.0076" y1="119.565" x2="55.3951" y2="119.565" gradientUnits="userSpaceOnUse">
<stop stop-color="#A4EB63"/>
<stop offset="1" stop-color="#6ED04F"/>
</linearGradient>
<linearGradient id="paint5_linear_198_4" x1="32.0076" y1="131.458" x2="55.3951" y2="131.458" gradientUnits="userSpaceOnUse">
<stop stop-color="#A4EB63"/>
<stop offset="1" stop-color="#6ED04F"/>
</linearGradient>
<linearGradient id="paint6_linear_198_4" x1="41.3753" y1="109.665" x2="46.4807" y2="109.665" gradientUnits="userSpaceOnUse">
<stop stop-color="#A4EB63"/>
<stop offset="1" stop-color="#6ED04F"/>
</linearGradient>
<linearGradient id="paint7_linear_198_4" x1="41.3753" y1="121.295" x2="46.4807" y2="121.295" gradientUnits="userSpaceOnUse">
<stop stop-color="#A4EB63"/>
<stop offset="1" stop-color="#6ED04F"/>
</linearGradient>
<linearGradient id="paint8_linear_198_4" x1="41.3753" y1="133.419" x2="46.4807" y2="133.419" gradientUnits="userSpaceOnUse">
<stop stop-color="#A4EB63"/>
<stop offset="1" stop-color="#6ED04F"/>
</linearGradient>
<linearGradient id="paint9_linear_198_4" x1="144.764" y1="28.0368" x2="164.357" y2="28.0368" gradientUnits="userSpaceOnUse">
<stop stop-color="#A4EB63"/>
<stop offset="1" stop-color="#6ED04F"/>
</linearGradient>
<linearGradient id="paint10_linear_198_4" x1="154.155" y1="21.1148" x2="154.967" y2="21.1148" gradientUnits="userSpaceOnUse">
<stop stop-color="#A4EB63"/>
<stop offset="1" stop-color="#6ED04F"/>
</linearGradient>
<linearGradient id="paint11_linear_198_4" x1="157.379" y1="21.8833" x2="158.191" y2="21.8833" gradientUnits="userSpaceOnUse">
<stop stop-color="#A4EB63"/>
<stop offset="1" stop-color="#6ED04F"/>
</linearGradient>
<linearGradient id="paint12_linear_198_4" x1="160.05" y1="24.2482" x2="160.862" y2="24.2482" gradientUnits="userSpaceOnUse">
<stop stop-color="#A4EB63"/>
<stop offset="1" stop-color="#6ED04F"/>
</linearGradient>
<linearGradient id="paint13_linear_198_4" x1="161.22" y1="27.751" x2="162.031" y2="27.751" gradientUnits="userSpaceOnUse">
<stop stop-color="#A4EB63"/>
<stop offset="1" stop-color="#6ED04F"/>
</linearGradient>
<linearGradient id="paint14_linear_198_4" x1="160.223" y1="31.6219" x2="161.035" y2="31.6219" gradientUnits="userSpaceOnUse">
<stop stop-color="#A4EB63"/>
<stop offset="1" stop-color="#6ED04F"/>
</linearGradient>
<linearGradient id="paint15_linear_198_4" x1="157.674" y1="34.1683" x2="158.486" y2="34.1683" gradientUnits="userSpaceOnUse">
<stop stop-color="#A4EB63"/>
<stop offset="1" stop-color="#6ED04F"/>
</linearGradient>
<linearGradient id="paint16_linear_198_4" x1="154.155" y1="35.1954" x2="154.967" y2="35.1954" gradientUnits="userSpaceOnUse">
<stop stop-color="#A4EB63"/>
<stop offset="1" stop-color="#6ED04F"/>
</linearGradient>
<linearGradient id="paint17_linear_198_4" x1="150.918" y1="21.8833" x2="151.73" y2="21.8833" gradientUnits="userSpaceOnUse">
<stop stop-color="#A4EB63"/>
<stop offset="1" stop-color="#6ED04F"/>
</linearGradient>
<linearGradient id="paint18_linear_198_4" x1="148.247" y1="24.2484" x2="149.059" y2="24.2484" gradientUnits="userSpaceOnUse">
<stop stop-color="#A4EB63"/>
<stop offset="1" stop-color="#6ED04F"/>
</linearGradient>
<linearGradient id="paint19_linear_198_4" x1="147.078" y1="27.751" x2="147.89" y2="27.751" gradientUnits="userSpaceOnUse">
<stop stop-color="#A4EB63"/>
<stop offset="1" stop-color="#6ED04F"/>
</linearGradient>
<linearGradient id="paint20_linear_198_4" x1="148.074" y1="31.6219" x2="148.886" y2="31.6219" gradientUnits="userSpaceOnUse">
<stop stop-color="#A4EB63"/>
<stop offset="1" stop-color="#6ED04F"/>
</linearGradient>
<linearGradient id="paint21_linear_198_4" x1="150.622" y1="34.1686" x2="151.435" y2="34.1686" gradientUnits="userSpaceOnUse">
<stop stop-color="#A4EB63"/>
<stop offset="1" stop-color="#6ED04F"/>
</linearGradient>
<linearGradient id="paint22_linear_198_4" x1="154.452" y1="27.751" x2="155.264" y2="27.751" gradientUnits="userSpaceOnUse">
<stop stop-color="#A4EB63"/>
<stop offset="1" stop-color="#6ED04F"/>
</linearGradient>
<linearGradient id="paint23_linear_198_4" x1="154.802" y1="25.2245" x2="154.913" y2="25.2245" gradientUnits="userSpaceOnUse">
<stop stop-color="#A4EB63"/>
<stop offset="1" stop-color="#6ED04F"/>
</linearGradient>
<linearGradient id="paint24_linear_198_4" x1="154.706" y1="26.6919" x2="157.599" y2="26.6919" gradientUnits="userSpaceOnUse">
<stop stop-color="#A4EB63"/>
<stop offset="1" stop-color="#6ED04F"/>
</linearGradient>
<linearGradient id="paint25_linear_198_4" x1="0.000349877" y1="72.8129" x2="250.222" y2="72.8129" gradientUnits="userSpaceOnUse">
<stop stop-color="#A4EB63"/>
<stop offset="1" stop-color="#6ED04F"/>
</linearGradient>
</defs>
</svg>
