<svg width="149" height="44" viewBox="0 0 149 44" fill="none" xmlns="http://www.w3.org/2000/svg">
<path d="M49.3126 34.3308C48.9784 34.3308 48.703 34.2143 48.4865 33.9835C48.2679 33.7505 48.1607 33.4795 48.1607 33.1703V18.4958H45.8549C45.548 18.4958 45.279 18.3857 45.0477 18.1654C44.8165 17.9473 44.7009 17.6678 44.7009 17.3331V14.5461C44.7009 14.2115 44.8165 13.9277 45.0477 13.6947C45.279 13.4617 45.548 13.3453 45.8549 13.3453H52.6568C52.9889 13.3453 53.2705 13.4617 53.5017 13.6947C53.733 13.9277 53.8486 14.2115 53.8486 14.5461V33.1703C53.8486 33.4795 53.733 33.7505 53.5017 33.9835C53.2705 34.2165 52.9889 34.3308 52.6568 34.3308H49.3126ZM51.0025 9.8212C49.9768 9.8212 49.1003 9.46753 48.3709 8.75593C47.6415 8.04646 47.2758 7.17392 47.2758 6.14253C47.2758 5.62578 47.3725 5.14927 47.5638 4.71088C47.755 4.27249 48.0241 3.88493 48.3709 3.5482C48.7177 3.21358 49.1129 2.94885 49.5627 2.75401C50.0104 2.56129 50.4918 2.46387 51.0025 2.46387C51.5133 2.46387 51.9883 2.56129 52.4255 2.75401C52.8606 2.94673 53.2516 3.21358 53.5984 3.5482C53.9452 3.88493 54.2122 4.27037 54.4056 4.71088C54.5968 5.14927 54.6935 5.6279 54.6935 6.14253C54.6935 6.65717 54.5968 7.14427 54.4056 7.59537C54.2143 8.04646 53.9452 8.43402 53.5984 8.75593C53.2516 9.07996 52.8606 9.33622 52.4255 9.53106C51.9904 9.72378 51.5154 9.8212 51.0025 9.8212Z" fill="#606060"/>
<path d="M68.1039 12.7247C69.3336 12.7247 70.5569 12.9386 71.7739 13.3643C72.991 13.79 74.0924 14.4359 75.0782 15.3C76.064 16.1662 76.8585 17.2696 77.4618 18.6102C78.0629 19.9529 78.3656 21.5391 78.3656 23.3732V33.1702C78.3656 33.4795 78.25 33.7505 78.0188 33.9835C77.7876 34.2165 77.5059 34.3308 77.1738 34.3308H73.8296C73.4954 34.3308 73.2138 34.2143 72.9846 33.9835C72.7555 33.7527 72.6378 33.4795 72.6378 33.1702V22.7548C72.6378 22.058 72.5033 21.4375 72.2343 20.8953C71.9652 20.3531 71.6058 19.8957 71.1581 19.5208C70.7104 19.1481 70.2038 18.8686 69.6405 18.6885C69.0771 18.5085 68.5012 18.4175 67.9106 18.4175C67.3725 18.4175 66.8281 18.5022 66.2774 18.6695C65.7267 18.8368 65.2264 19.1015 64.7787 19.4637C64.331 19.8258 63.9715 20.2769 63.7025 20.8191C63.4334 21.3612 63.2989 22.0072 63.2989 22.7548V33.1702C63.2989 33.4795 63.1896 33.7505 62.9731 33.9835C62.7545 34.2165 62.4792 34.3308 62.1471 34.3308H58.765C58.4582 34.3308 58.1891 34.2143 57.9579 33.9835C57.7267 33.7505 57.6111 33.4795 57.6111 33.1702V23.6061C57.6111 21.7467 57.918 20.135 58.5338 18.7669C59.1497 17.3988 59.9568 16.27 60.9553 15.3784C61.9537 14.4868 63.0803 13.8239 64.3373 13.3834C65.5921 12.945 66.847 12.7247 68.1039 12.7247Z" fill="#606060"/>
<path d="M101.729 13.3834C102.164 13.3834 102.498 13.5655 102.727 13.9256C102.958 14.2877 102.983 14.6753 102.805 15.0861L91.0844 40.4874C90.9562 40.7966 90.7502 41.0486 90.4685 41.2434C90.1868 41.4361 89.8673 41.5336 89.5079 41.5336H85.8947C85.4596 41.5336 85.1254 41.3535 84.8963 40.9914C84.6651 40.6293 84.6398 40.2417 84.8185 39.8287L88.3161 32.2405L80.0156 15.0882C79.8096 14.7007 79.8243 14.3195 80.0534 13.9467C80.2846 13.5719 80.6167 13.3855 81.0518 13.3855H84.6651C85.0245 13.3855 85.344 13.4766 85.6256 13.6566C85.9073 13.8387 86.1112 14.0823 86.2415 14.3915L91.5447 25.2729L96.5032 14.4317C96.6566 14.1225 96.8731 13.8705 97.1569 13.6778C97.4385 13.485 97.758 13.3876 98.1174 13.3876H101.731L101.729 13.3834Z" fill="#606060"/>
<path d="M114.603 12.6866C115.858 12.6866 117.1 12.9005 118.33 13.3262C119.559 13.7519 120.667 14.3978 121.655 15.2619C122.641 16.1281 123.442 17.2315 124.057 18.5721C124.671 19.9148 124.98 21.501 124.98 23.3351V24.0318C124.98 25.8913 124.667 27.5051 124.039 28.8711C123.41 30.2392 122.597 31.368 121.598 32.2596C120.6 33.1512 119.465 33.8162 118.197 34.2525C116.93 34.6909 115.654 34.9111 114.374 34.9111C113.094 34.9111 111.908 34.6993 110.666 34.2715C109.424 33.8458 108.316 33.1999 107.343 32.3358C106.37 31.4718 105.575 30.3684 104.959 29.0257C104.343 27.683 104.036 26.1094 104.036 24.3008V23.5659C104.036 21.7064 104.35 20.0948 104.978 18.7267C105.607 17.3585 106.42 16.2297 107.419 15.3381C108.417 14.4465 109.552 13.7837 110.819 13.3453C112.087 12.9069 113.348 12.6866 114.605 12.6866H114.603ZM119.484 22.7145C119.484 22.0178 119.336 21.3972 119.042 20.8551C118.748 20.3129 118.363 19.8555 117.888 19.4806C117.413 19.1079 116.875 18.8283 116.274 18.6483C115.671 18.4683 115.063 18.3772 114.449 18.3772C113.836 18.3772 113.27 18.4619 112.682 18.6292C112.091 18.7965 111.561 19.0613 111.086 19.4234C110.611 19.7856 110.229 20.2367 109.935 20.7788C109.64 21.321 109.493 21.9669 109.493 22.7145V24.8832C109.493 25.6054 109.64 26.2386 109.935 26.7808C110.229 27.3229 110.613 27.774 111.086 28.1362C111.559 28.4983 112.097 28.7694 112.701 28.9494C113.302 29.1315 113.924 29.2205 114.565 29.2205C115.154 29.2205 115.742 29.1379 116.333 28.9685C116.921 28.8012 117.447 28.5364 117.909 28.1743C118.37 27.8121 118.748 27.361 119.042 26.8189C119.336 26.2767 119.484 25.6329 119.484 24.8832V22.7145Z" fill="#606060"/>
<path d="M139.313 34.9513C138.161 34.9513 137.014 34.7523 135.875 34.352C134.733 33.9517 133.691 33.3248 132.743 32.4735C131.744 33.7124 130.885 34.3329 130.168 34.3329H129.398C129.092 34.3329 128.823 34.2165 128.591 33.9856C128.36 33.7526 128.245 33.4689 128.245 33.1342V5.13655C128.245 4.80194 128.36 4.5245 128.591 4.30425C128.823 4.08611 129.092 3.97598 129.398 3.97598H132.78C133.113 3.97598 133.388 4.08611 133.607 4.30425C133.823 4.5245 133.932 4.80194 133.932 5.13655V14.3131C134.906 13.7201 135.925 13.2944 136.986 13.0361C138.05 12.7777 139.095 12.6866 140.118 12.765C141.195 12.8687 142.246 13.1462 143.269 13.5973C144.293 14.0484 145.216 14.6816 146.035 15.4949C146.855 16.3081 147.528 17.3141 148.053 18.5149C148.579 19.7157 148.879 21.1156 148.957 22.7166H148.995V24.4977H148.957C148.957 26.1751 148.701 27.6469 148.188 28.9113C147.675 30.1778 147.002 31.2346 146.17 32.0859C145.337 32.9373 144.396 33.6023 143.345 34.0788C142.294 34.5553 141.218 34.8349 140.116 34.9111C139.988 34.9365 139.854 34.9492 139.713 34.9492H139.309L139.313 34.9513ZM138.544 18.4175C138.006 18.4175 137.461 18.5022 136.911 18.6695C136.36 18.8368 135.86 19.1015 135.412 19.4637C134.964 19.8258 134.605 20.2769 134.336 20.8191C134.067 21.3612 133.932 22.0072 133.932 22.7548V24.9234C133.932 25.6731 134.067 26.317 134.336 26.8591C134.605 27.4013 134.964 27.8524 135.412 28.2145C135.86 28.5767 136.36 28.8478 136.911 29.0278C137.461 29.2099 138.006 29.2989 138.544 29.2989C139.185 29.2989 139.793 29.1951 140.368 28.9897C140.944 28.7842 141.445 28.4941 141.867 28.1192C142.29 27.7465 142.63 27.2869 142.887 26.7448C143.143 26.2026 143.271 25.5969 143.271 24.9255V22.795C143.271 22.1237 143.143 21.518 142.887 20.9758C142.63 20.4336 142.292 19.9762 141.867 19.6013C141.445 19.2286 140.944 18.9363 140.368 18.7309C139.793 18.5255 139.183 18.4217 138.544 18.4217V18.4175Z" fill="#606060"/>
<path fill-rule="evenodd" clip-rule="evenodd" d="M15.4253 38.9731C17.1404 38.6809 18.8157 38.0519 20.3417 37.0522C26.8135 32.8145 28.2765 24.0128 23.7111 17.905C23.3159 17.3755 22.8871 16.8842 22.4373 16.4267C22.1052 16.0963 21.626 15.9608 21.1698 16.0688C20.7137 16.1768 20.3459 16.5135 20.1945 16.9583C20.1945 16.9583 20.1945 16.9583 20.1966 16.9583C20.0306 17.4433 20.1588 17.9812 20.5245 18.3391C20.8945 18.7055 21.2434 19.1036 21.565 19.5336C25.1845 24.377 24.0453 31.3468 18.9439 34.7375C17.8761 35.4469 16.7158 35.9277 15.5198 36.1988C15.3454 35.2013 14.946 34.2271 14.3007 33.363C12.1126 30.434 7.97599 29.8474 5.06901 32.0521C4.97652 32.1219 4.89455 32.2003 4.80626 32.2744C1.51673 27.8863 2.13681 21.7467 6.08004 18.1062C6.51724 17.7016 6.65177 17.0599 6.37641 16.5326C6.3596 16.4987 6.34068 16.4648 6.32386 16.4331C5.91609 15.677 4.91346 15.516 4.28288 16.0963C-0.856353 20.8212 -1.52056 28.924 3.1079 34.4685C2.06744 36.6371 2.23349 39.3014 3.77001 41.3578C5.95813 44.2867 10.0968 44.8734 13.0017 42.6687C14.2545 41.7178 15.0742 40.4005 15.4274 38.9774L15.4253 38.9731ZM5.7164 39.8753C4.92818 38.8227 4.71378 37.5139 5.01226 36.3279C5.0627 36.131 5.12786 35.9383 5.20563 35.7498C5.21614 35.7265 5.22455 35.7011 5.23506 35.6778C5.26659 35.6037 5.30442 35.5295 5.34016 35.4575C5.35907 35.4215 5.37799 35.3834 5.39691 35.3474C5.43474 35.2775 5.47468 35.2097 5.51672 35.142C5.53984 35.1038 5.56296 35.0678 5.58819 35.0318C5.63233 34.9662 5.67857 34.9005 5.72691 34.8349C5.75214 34.801 5.77946 34.7692 5.80469 34.7353C5.85723 34.6697 5.90978 34.604 5.96653 34.5426C5.98545 34.5214 6.00437 34.5024 6.02329 34.4833C6.16832 34.3308 6.32386 34.1847 6.49412 34.0513C6.50883 34.0407 6.52145 34.028 6.53616 34.0153C8.36695 32.626 10.9733 32.9966 12.3522 34.8412C12.7222 35.3368 12.9639 35.8917 13.0879 36.4614C13.1846 36.9103 13.2077 37.372 13.1573 37.8231C13.1573 37.8295 13.1573 37.838 13.1573 37.8443C13.1468 37.9417 13.1299 38.0392 13.111 38.1366C13.1068 38.1599 13.1026 38.1853 13.0984 38.2086C13.0795 38.2996 13.0585 38.3886 13.0332 38.4775C13.0248 38.5051 13.0164 38.5347 13.008 38.5623C12.9828 38.6491 12.9534 38.738 12.9218 38.8228C12.9134 38.8482 12.9029 38.8715 12.8924 38.8948C12.8567 38.9858 12.821 39.0748 12.7789 39.1637C12.5015 39.7525 12.0832 40.284 11.5325 40.7034C9.70168 42.0927 7.09527 41.7221 5.7164 39.8774V39.8753Z" fill="#6ED04F"/>
<path fill-rule="evenodd" clip-rule="evenodd" d="M33.2643 10.033C34.5864 7.78598 34.5212 4.86126 32.8649 2.64601C30.6768 -0.282945 26.5381 -0.869583 23.6332 1.33508C22.2943 2.35163 21.4556 3.7854 21.1466 5.32295C19.32 5.58768 17.5334 6.24208 15.9128 7.30312C9.44094 11.5409 7.97799 20.3426 12.5434 26.4504C12.9386 26.9799 13.3674 27.4712 13.8172 27.9286C14.1493 28.259 14.6285 28.3946 15.0846 28.2866C15.5408 28.1785 15.9086 27.8418 16.0599 27.3971C16.0599 27.3971 16.0599 27.3971 16.0578 27.3971C16.2218 26.9121 16.0957 26.3742 15.7299 26.0162C15.36 25.6499 15.0111 25.2517 14.6895 24.8218C11.0699 19.9783 12.2092 13.0085 17.3106 9.6179C18.5066 8.82372 19.8203 8.3112 21.1676 8.06553C21.3631 8.97196 21.7457 9.85086 22.3342 10.6387C24.4887 13.5211 28.5265 14.1289 31.423 12.0471C34.7441 16.4373 34.1282 22.6023 30.1744 26.2513C29.7372 26.6558 29.6027 27.2975 29.8781 27.8249C29.8949 27.8588 29.9138 27.8926 29.9306 27.9244C30.3384 28.6805 31.341 28.8414 31.9716 28.2611C37.0667 23.5765 37.7645 15.5732 33.2622 10.033H33.2643ZM24.2806 9.15833C23.9905 8.77077 23.7825 8.34721 23.6458 7.91093C23.4735 7.36453 23.4167 6.79484 23.4714 6.23573C23.4714 6.21879 23.4735 6.20185 23.4756 6.1849C23.4861 6.0896 23.5008 5.9943 23.5176 5.899C23.5218 5.8757 23.526 5.85029 23.5302 5.82699C23.5491 5.73381 23.5702 5.64062 23.5933 5.54955C23.5996 5.52838 23.6059 5.5072 23.6122 5.48602C23.6395 5.39072 23.6689 5.29541 23.7026 5.20223C23.9674 4.46946 24.4362 3.80235 25.1004 3.30042C26.9312 1.91113 29.5376 2.28174 30.9164 4.12637C31.8224 5.33777 31.9695 6.8859 31.4482 8.19896C31.3536 8.43827 31.2359 8.66912 31.0972 8.89149C31.0783 8.92114 31.0615 8.95079 31.0404 8.97832C31.0026 9.0355 30.9627 9.0948 30.9206 9.14986C30.8681 9.21975 30.8134 9.28964 30.7567 9.35741C30.723 9.39765 30.6894 9.43577 30.6537 9.47389C30.5927 9.53954 30.5318 9.6052 30.4666 9.66661C30.4393 9.69415 30.412 9.71956 30.3825 9.74497C30.29 9.82757 30.1976 9.91016 30.0967 9.9864C29.9664 10.0838 29.8318 10.1728 29.6952 10.2533C27.9001 11.3143 25.5607 10.8759 24.2785 9.16045L24.2806 9.15833Z" fill="#6ED04F"/>
</svg>
