<svg width="83" height="85" viewBox="0 0 83 85" fill="none" xmlns="http://www.w3.org/2000/svg">
<path d="M10.9141 16.1823C7.18233 12.0993 7.6699 5.13956 11.9831 1.7061C12.2831 1.46483 12.7144 1.50195 12.9957 1.76178C15.6774 4.43431 16.5212 8.4431 15.3773 12.025C16.0712 11.4497 16.8025 10.9115 17.5339 10.3918C18.0777 4.1188 24.4349 -0.873638 30.7546 0.128562C31.1297 0.184239 31.3922 0.518306 31.3735 0.889491C31.1672 5.69634 27.4354 9.9464 22.7847 11.2641C21.3032 11.691 19.8217 11.8023 18.3778 11.5982C13.2207 15.2172 8.96385 20.0241 6.01966 25.5918C-2.10032 40.9403 0.900136 59.7223 13.2207 71.8972C28.8418 87.357 54.1769 87.357 69.798 71.8972C85.4191 56.4373 85.4191 31.3638 69.798 15.9039C62.5407 8.75861 52.5454 4.34151 41.5 4.34151C40.5061 4.34151 40.5061 2.85677 41.5 2.85677C64.4159 2.85677 83 21.249 83 43.9284C83 66.6078 64.4159 85 41.5 85C18.584 85 0 66.6078 0 43.9284C0 33.4795 3.95685 23.6802 10.9141 16.1823ZM24.1911 30.7513L18.4715 28.7655C17.8339 28.5428 17.1401 28.8768 16.915 29.5078L9.90149 49.2549C9.67646 49.8859 10.014 50.5726 10.6516 50.7953L16.3712 52.7811C17.0088 53.0039 17.7027 52.6698 17.9277 52.0388L24.9413 32.2917C25.1475 31.6607 24.8287 30.974 24.1911 30.7513ZM26.0289 33.6651L19.6717 51.6305L22.7284 53.8205C29.2357 60.1492 30.2483 61.4854 36.5493 67.7213C39.2309 70.3939 42.6439 67.4058 41.5938 65.9211L36.5117 61.0957C35.7991 60.4276 36.8305 59.3511 37.5432 60.0378C39.8498 62.2278 42.1563 64.4735 44.5192 66.5892C46.4132 68.2224 50.0513 64.9931 48.401 63.3785L42.6252 57.9035C41.9126 57.2354 42.9627 56.1589 43.6753 56.8456L49.4512 62.3206C51.2515 64.0466 54.7207 60.5018 52.9955 58.8315C52.9955 58.8129 52.9767 58.8129 52.9767 58.7943L47.2009 53.3194C46.4883 52.6327 47.5197 51.5748 48.2323 52.2429L54.0081 57.7179C54.0269 57.7365 54.0456 57.7365 54.0644 57.755C55.8084 59.481 59.0714 55.9733 57.7587 54.6742L49.7512 46.8051C47.2571 44.3552 45.0818 43.6129 42.4189 45.3946C38.6683 47.9001 35.1991 47.6588 32.9487 46.4524C31.636 45.7472 30.4921 44.5594 30.2296 43.186C30.0045 42.0539 30.3983 40.9775 31.561 40.2908L38.2558 36.3562L26.0289 33.6651ZM63.1408 51.1108L56.9711 33.6651C53.1643 34.3333 41.8376 35.8551 40.5811 36.6346L40.4873 36.7274C40.4123 36.8016 40.3373 36.8573 40.2436 36.913L32.3111 41.5528C29.7982 43.0375 34.974 48.5868 41.575 44.1697C44.8755 41.9611 47.8197 42.8148 50.8202 45.7657L58.6401 53.4493L63.1408 51.1108ZM64.5472 28.7655L58.8276 30.7513C58.115 30.9926 57.8337 31.7535 58.1338 32.4959L58.2088 32.7186C60.3091 39.1772 63.0282 45.6173 65.0723 52.0573C65.2786 52.6698 65.9912 53.0224 66.6288 52.7997L72.3484 50.8139C72.986 50.5912 73.3235 49.9045 73.0985 49.2734L66.1037 29.5078C65.8787 28.8768 65.1848 28.5428 64.5472 28.7655Z" fill="#6ED04F"/>
</svg>
