<svg width="270" height="299" viewBox="0 0 270 299" fill="none" xmlns="http://www.w3.org/2000/svg">
<path fill-rule="evenodd" clip-rule="evenodd" d="M66.881 37.0983L63.4798 28.7913L60.2016 36.7926C59.9615 37.5541 59.4981 38.2259 58.8715 38.7212C58.245 39.2164 57.4841 39.5123 56.6874 39.5705L47.7538 40.2351L54.6028 46.0267C55.165 46.5019 55.5837 47.1241 55.8121 47.8236C56.0405 48.5231 56.0696 49.2724 55.8961 49.9875L53.755 58.7232L61.3287 54.0347C61.9589 53.6275 62.6916 53.4073 63.442 53.3996C64.1923 53.392 64.9295 53.5972 65.5678 53.9915L73.2147 58.7232L71.1234 50.1935C70.9038 49.4531 70.9041 48.6648 71.1243 47.9245C71.3444 47.1843 71.7749 46.5238 72.3635 46.0234L79.2125 40.2317L70.2789 39.5672C69.5402 39.5149 68.831 39.2568 68.2316 38.8222C67.6322 38.3876 67.1666 37.7939 66.8877 37.1083L66.881 37.0983ZM67.1503 16.8292L73.2878 31.835L89.4793 33.0312C90.2779 33.0941 91.0392 33.3959 91.6639 33.8973C92.2886 34.3986 92.7477 35.0763 92.9816 35.8422C93.2155 36.608 93.2133 37.4265 92.9753 38.191C92.7372 38.9556 92.2744 39.6308 91.647 40.1287L79.3654 50.4893L83.2321 66.2593C83.4203 67.0333 83.3708 67.846 83.0901 68.5915C82.8094 69.3369 82.3106 69.9806 81.6585 70.4386C81.0065 70.8966 80.2315 71.1477 79.4346 71.1591C78.6378 71.1705 77.8559 70.9417 77.191 70.5026L63.4798 62.0161L49.6689 70.5657C48.9986 70.9794 48.2202 71.1843 47.433 71.1545C46.6457 71.1247 45.8851 70.8614 45.248 70.3982C44.611 69.935 44.1262 69.2928 43.8554 68.5534C43.5847 67.814 43.5402 67.0108 43.7276 66.246L47.5943 50.4893L35.193 40.0058C34.6025 39.4909 34.1768 38.8137 33.969 38.0586C33.7612 37.3035 33.7805 36.504 34.0244 35.7597C34.2684 35.0155 34.7262 34.3596 35.3408 33.8737C35.9555 33.3879 36.6996 33.0937 37.4804 33.0279L53.6719 31.8317L59.8093 16.8258C60.1064 16.0965 60.6143 15.4723 61.2681 15.0328C61.9219 14.5934 62.6919 14.3586 63.4798 14.3586C64.2677 14.3586 65.0378 14.5934 65.6915 15.0328C66.3453 15.4723 66.8532 16.0998 67.1503 16.8292ZM209.05 37.0983L205.649 28.7913L202.371 36.8059C202.13 37.5674 201.667 38.2392 201.04 38.7344C200.414 39.2297 199.653 39.5256 198.856 39.5838L189.923 40.2484L196.772 46.04C197.335 46.5147 197.754 47.1369 197.982 47.8365C198.211 48.5362 198.239 49.2857 198.065 50.0008L195.924 58.7365L203.498 54.0314C204.128 53.6242 204.861 53.404 205.611 53.3963C206.361 53.3887 207.098 53.5939 207.737 53.9882L215.384 58.7199L213.292 50.1902C213.073 49.4498 213.073 48.6615 213.293 47.9212C213.513 47.1809 213.944 46.5205 214.532 46.0201L221.381 40.2284L212.448 39.5639C211.709 39.5122 210.999 39.2544 210.399 38.8197C209.799 38.3851 209.333 37.791 209.053 37.105L209.05 37.0983ZM209.319 16.8292L215.467 31.8217L231.658 33.0179C232.457 33.0808 233.218 33.3826 233.843 33.884C234.467 34.3853 234.927 35.063 235.161 35.8289C235.394 36.5947 235.392 37.4132 235.154 38.1777C234.916 38.9423 234.453 39.6175 233.826 40.1154L221.534 50.4893L225.401 66.2593C225.589 67.0333 225.54 67.846 225.259 68.5915C224.978 69.3369 224.48 69.9806 223.827 70.4386C223.175 70.8966 222.4 71.1477 221.604 71.1591C220.807 71.1705 220.025 70.9417 219.36 70.5026L205.649 62.0161L191.838 70.5657C191.167 70.9794 190.389 71.1843 189.602 71.1545C188.815 71.1247 188.054 70.8614 187.417 70.3982C186.78 69.935 186.295 69.2928 186.024 68.5534C185.754 67.814 185.709 67.0108 185.897 66.246L189.763 50.4893L177.362 40.0058C176.771 39.4909 176.346 38.8137 176.138 38.0586C175.93 37.3035 175.949 36.504 176.193 35.7597C176.437 35.0155 176.895 34.3596 177.51 33.8737C178.124 33.3879 178.869 33.0937 179.649 33.0279L195.841 31.8317L201.978 16.8258C202.275 16.0965 202.783 15.4723 203.437 15.0328C204.091 14.5934 204.861 14.3586 205.649 14.3586C206.437 14.3586 207.207 14.5934 207.86 15.0328C208.514 15.4723 209.022 16.0998 209.319 16.8292ZM137.967 22.7504L134.563 14.4434L131.288 22.458C131.047 23.2199 130.584 23.8921 129.956 24.3874C129.329 24.8827 128.568 25.1783 127.77 25.2359L118.837 25.9004L125.686 31.6888C126.246 32.1656 126.663 32.7879 126.891 33.4869C127.119 34.1859 127.15 34.9344 126.979 35.6496L124.834 44.3853L132.412 39.6968C133.041 39.2895 133.773 39.0692 134.523 39.0615C135.273 39.0539 136.01 39.2592 136.647 39.6536L144.294 44.3853L142.2 35.8556C141.98 35.1148 141.981 34.3264 142.202 33.5861C142.423 32.8458 142.854 32.1855 143.443 31.6855L150.302 25.9004L141.368 25.2359C140.63 25.184 139.92 24.9261 139.321 24.4914C138.721 24.0568 138.256 23.4628 137.977 22.777L137.967 22.7504ZM138.236 2.48125L144.371 17.4871L160.562 18.6833C161.361 18.7456 162.123 19.047 162.748 19.5481C163.373 20.0492 163.833 20.7269 164.067 21.4929C164.301 22.2588 164.299 23.0775 164.061 23.8423C163.823 24.6072 163.361 25.2827 162.733 25.7808L150.448 36.1646L154.318 51.9347C154.505 52.7088 154.455 53.5213 154.174 54.2664C153.892 55.0115 153.393 55.6547 152.741 56.1125C152.089 56.5702 151.314 56.8212 150.518 56.8329C149.721 56.8446 148.939 56.6164 148.274 56.1779L134.566 47.6915L120.752 56.2411C120.082 56.6554 119.303 56.8608 118.516 56.8312C117.728 56.8016 116.968 56.5383 116.331 56.0749C115.694 55.6115 115.209 54.9689 114.939 54.2292C114.669 53.4894 114.625 52.686 114.814 51.9214L118.68 36.1513L106.279 25.6678C105.683 25.1544 105.252 24.4763 105.041 23.7188C104.83 22.9613 104.847 22.1582 105.091 21.4107C105.335 20.6631 105.795 20.0043 106.413 19.5173C107.031 19.0302 107.779 18.7366 108.563 18.6733L124.758 17.4771L130.892 2.47128C131.189 1.74094 131.697 1.11565 132.351 0.675408C133.005 0.235166 133.776 0 134.564 0C135.353 0 136.124 0.235166 136.778 0.675408C137.432 1.11565 137.94 1.74094 138.236 2.47128V2.48125ZM119.555 179.102C110.804 182.805 103.608 189.426 99.1942 197.837C94.7803 206.248 93.4211 215.928 95.3484 225.229C97.2756 234.529 102.37 242.874 109.763 248.841C117.157 254.808 126.392 258.028 135.894 257.952C145.397 257.877 154.58 254.511 161.878 248.427C169.175 242.344 174.137 233.919 175.916 224.59C177.695 215.26 176.183 205.602 171.636 197.263C167.089 188.923 159.789 182.417 150.98 178.853C145.984 176.823 140.636 175.8 135.243 175.842C129.849 175.885 124.518 176.993 119.555 179.102ZM116.117 171.951C116.344 171.828 116.582 171.726 116.829 171.649C128.767 166.697 142.181 166.664 154.143 171.558C166.106 176.452 175.646 185.876 180.683 197.773C183.195 203.691 184.516 210.045 184.57 216.473C184.623 222.902 183.409 229.277 180.996 235.236C178.583 241.195 175.019 246.62 170.507 251.201C165.995 255.783 160.624 259.431 154.701 261.937H154.681C142.782 266.981 129.37 267.118 117.371 262.317C105.371 257.517 95.7586 248.168 90.6296 236.311C90.5071 236.084 90.4058 235.846 90.3271 235.6C85.397 223.73 85.3381 210.398 90.1633 198.485C94.9885 186.572 104.31 177.035 116.114 171.935L116.117 171.951ZM211.869 252.473L206.989 261.93C206.802 262.285 206.648 262.657 206.53 263.04C206.417 263.422 206.338 263.813 206.294 264.209C206.142 265.561 206.402 266.928 207.039 268.13C207.669 269.316 208.647 270.282 209.841 270.898L247.444 290.33C249.014 291.136 250.839 291.288 252.52 290.754C254.202 290.22 255.604 289.042 256.421 287.479L261.315 278.022C262.12 276.453 262.272 274.63 261.738 272.949C261.203 271.269 260.026 269.867 258.462 269.051L220.859 249.619C219.642 248.993 218.261 248.761 216.906 248.954C215.538 249.142 214.261 249.747 213.249 250.685C212.972 250.942 212.716 251.221 212.484 251.52C212.257 251.821 212.058 252.142 211.889 252.48L211.869 252.473ZM85.197 190.838C88.6159 184.226 93.3047 178.353 98.9956 173.552C104.686 168.752 111.268 165.119 118.364 162.862C125.46 160.604 132.931 159.766 140.352 160.395C147.772 161.025 154.995 163.109 161.609 166.529C174.945 173.411 185.006 185.298 189.586 199.582C194.166 213.867 192.892 229.384 186.043 242.731L185.95 242.91C179.059 256.238 167.16 266.29 152.863 270.861C138.566 275.432 123.038 274.149 109.687 267.293L109.531 267.213C102.914 263.796 97.0362 259.11 92.2328 253.422C87.4293 247.733 83.7946 241.155 81.5363 234.062C79.278 226.969 78.4404 219.501 79.0713 212.084C79.7023 204.668 81.7895 197.448 85.2136 190.838H85.197ZM189.168 253.035L199.99 258.165L204.691 249.081L194.405 243.691C193.961 244.652 193.498 245.605 193.015 246.549L192.935 246.701L192.716 247.123C191.64 249.15 190.459 251.118 189.178 253.021L189.168 253.035ZM149.042 76.0749C145.695 72.7238 141.289 70.6362 136.574 70.168C131.86 69.6998 127.129 70.88 123.187 73.5073C119.246 76.1346 116.338 80.0466 114.959 84.5766C113.58 89.1066 113.815 93.9743 115.625 98.3502C117.435 102.726 120.707 106.34 124.883 108.575C129.06 110.81 133.883 111.528 138.53 110.608C143.178 109.687 147.362 107.185 150.37 103.526C153.378 99.8682 155.023 95.2808 155.026 90.5458C155.031 87.8587 154.505 85.1971 153.478 82.7138C152.451 80.2305 150.944 77.9744 149.042 76.0749ZM134.563 62.1191C141.143 62.1228 147.518 64.4068 152.602 68.5818C157.686 72.7569 161.164 78.5646 162.443 85.0154C163.723 91.4661 162.725 98.1607 159.619 103.958C156.513 109.756 151.492 114.298 145.411 116.81C139.33 119.322 132.565 119.649 126.27 117.736C119.975 115.822 114.538 111.785 110.887 106.314C107.236 100.843 105.596 94.2764 106.246 87.7324C106.897 81.1883 109.798 75.0721 114.455 70.4262C117.094 67.7865 120.229 65.6937 123.68 64.2682C127.13 62.8426 130.829 62.1123 134.563 62.1191ZM67.9715 98.9558C65.0105 95.9952 61.1138 94.1524 56.9455 93.7414C52.7773 93.3303 48.5954 94.3765 45.1125 96.7017C41.6296 99.0269 39.0612 102.487 37.8449 106.493C36.6286 110.499 36.8398 114.802 38.4424 118.669C40.045 122.537 42.9398 125.729 46.6337 127.703C50.3275 129.676 54.5918 130.308 58.6998 129.492C62.8078 128.675 66.5053 126.46 69.1624 123.224C71.8194 119.988 73.2715 115.931 73.2712 111.745C73.2741 109.37 72.8074 107.017 71.8979 104.822C70.9885 102.627 69.6541 100.634 67.9715 98.9558ZM55.1713 85.6978C61.2008 85.6947 67.0448 87.7811 71.7078 91.6014C76.3707 95.4218 79.564 100.74 80.7436 106.649C81.9232 112.559 81.0162 118.694 78.1771 124.01C75.338 129.327 70.7424 133.494 65.1733 135.804C59.6042 138.113 53.4062 138.422 47.6352 136.676C41.8642 134.931 36.8773 131.239 33.5242 126.231C30.171 121.223 28.659 115.208 29.2458 109.21C29.8326 103.213 32.4819 97.6044 36.7423 93.3403C39.1583 90.915 42.0303 88.9912 45.1931 87.6796C48.3559 86.368 51.7471 85.6945 55.1713 85.6978ZM7.96011 207.313H21.801V195.484C21.801 194.426 22.2213 193.412 22.9695 192.664C23.7177 191.916 24.7325 191.496 25.7907 191.496C26.8488 191.496 27.8636 191.916 28.6118 192.664C29.36 193.412 29.7803 194.426 29.7803 195.484V207.313H71.6288C72.1369 203.933 72.9152 200.6 73.9561 197.344C73.9225 197.134 73.9059 196.922 73.9062 196.71V165.259C73.8999 160.785 74.6161 156.34 76.0274 152.094H31.7619C28.5914 152.138 25.4665 152.856 22.5947 154.199C19.7229 155.543 17.1698 157.481 15.105 159.886C10.4426 165.23 7.90492 172.099 7.97341 179.188V207.306L7.96011 207.313ZM183.735 150.174C186.079 154.856 187.291 160.023 187.273 165.259V178.045C181.571 170.456 174.261 164.221 165.865 159.787L165.263 159.478C151.149 152.192 134.847 150.352 119.463 154.308C104.079 158.264 90.6892 167.738 81.8457 180.926V165.259C81.8283 160.023 83.0423 154.855 85.3898 150.174L85.4463 150.064C86.6348 147.724 88.1199 145.546 89.8649 143.585C92.1923 140.876 95.0692 138.693 98.305 137.181C101.541 135.669 105.061 134.861 108.633 134.812H160.499C164.071 134.861 167.591 135.669 170.827 137.181C174.063 138.693 176.94 140.876 179.267 143.585C181.011 145.548 182.497 147.727 183.689 150.067L183.739 150.167L183.735 150.174ZM226.771 98.9558C223.81 95.9952 219.913 94.1524 215.745 93.7414C211.577 93.3303 207.395 94.3765 203.912 96.7017C200.429 99.0269 197.86 102.487 196.644 106.493C195.428 110.499 195.639 114.802 197.242 118.669C198.844 122.537 201.739 125.729 205.433 127.703C209.127 129.676 213.391 130.308 217.499 129.492C221.607 128.675 225.305 126.46 227.962 123.224C230.619 119.988 232.071 115.931 232.07 111.745C232.073 109.37 231.607 107.017 230.697 104.822C229.788 102.627 228.453 100.634 226.771 98.9558ZM213.971 85.6978C220 85.6947 225.844 87.7811 230.507 91.6014C235.17 95.4218 238.363 100.74 239.543 106.649C240.723 112.559 239.815 118.694 236.976 124.01C234.137 129.327 229.542 133.494 223.973 135.804C218.403 138.113 212.205 138.422 206.434 136.676C200.663 134.931 195.677 131.239 192.323 126.231C188.97 121.223 187.458 115.208 188.045 109.21C188.632 103.213 191.281 97.6044 195.542 93.3403C197.958 90.915 200.83 88.9912 203.992 87.6796C207.155 86.368 210.546 85.6945 213.971 85.6978ZM265.135 215.268H200.223C200.407 222.375 199.41 229.464 197.27 236.245L210.237 243.043C211.944 242.02 213.841 241.351 215.812 241.076C218.794 240.655 221.833 241.169 224.51 242.548L262.113 261.98C265.546 263.768 268.133 266.841 269.308 270.528C270.483 274.215 270.152 278.217 268.386 281.661L263.492 291.117C261.704 294.549 258.63 297.134 254.941 298.308C251.252 299.483 247.249 299.152 243.803 297.388L206.201 277.969C203.574 276.612 201.425 274.486 200.04 271.875C199.099 270.11 198.526 268.172 198.354 266.18L184.214 259.474C174.686 270.323 161.8 277.674 147.607 280.355C133.415 283.037 118.733 280.895 105.9 274.271L105.744 274.194C95.0134 268.603 86.0651 260.119 79.9137 249.703C73.7622 239.288 70.6537 227.359 70.9405 215.268H3.99038C2.93225 215.268 1.91745 214.848 1.16924 214.1C0.421034 213.352 0.000693437 212.338 0.000693437 211.28V179.182C-0.0547211 170.138 3.21285 161.389 9.18361 154.593C11.9873 151.349 15.4498 148.738 19.3409 146.934C23.232 145.13 27.4627 144.174 31.7519 144.129H78.5841C78.9166 144.129 79.2756 144.129 79.6547 144.153C80.8989 142.071 82.3383 140.111 83.9535 138.301C87.0191 134.752 90.8052 131.896 95.0603 129.922C99.3154 127.947 103.942 126.901 108.633 126.851H160.499C165.19 126.901 169.817 127.947 174.072 129.922C178.327 131.896 182.113 134.752 185.178 138.301C186.793 140.112 188.232 142.071 189.477 144.153C189.856 144.136 190.212 144.129 190.548 144.129H237.367C241.656 144.175 245.886 145.132 249.777 146.936C253.668 148.74 257.13 151.35 259.935 154.593C265.906 161.389 269.173 170.138 269.118 179.182V211.28C269.118 212.338 268.698 213.352 267.949 214.1C267.201 214.848 266.186 215.268 265.128 215.268H265.135ZM199.508 207.306H239.348V195.477C239.348 194.419 239.769 193.405 240.517 192.657C241.265 191.91 242.28 191.49 243.338 191.49C244.396 191.49 245.411 191.91 246.159 192.657C246.907 193.405 247.328 194.419 247.328 195.477V207.306H261.172V179.188C261.238 172.098 258.698 165.229 254.034 159.886C251.969 157.481 249.416 155.543 246.544 154.199C243.672 152.856 240.547 152.138 237.377 152.094H193.115C194.524 156.34 195.24 160.786 195.236 165.259V191.978C195.96 193.717 196.61 195.489 197.184 197.295C198.224 200.569 199.002 203.922 199.511 207.319L199.508 207.306ZM115.219 220.813C114.488 220.132 114.04 219.201 113.963 218.204C113.887 217.208 114.187 216.219 114.805 215.434C115.423 214.648 116.313 214.123 117.3 213.963C118.287 213.802 119.298 214.018 120.133 214.567L131.873 223.791L150.734 202.01C151.073 201.607 151.488 201.276 151.955 201.036C152.423 200.796 152.934 200.65 153.458 200.609C153.982 200.567 154.509 200.63 155.009 200.794C155.509 200.958 155.971 201.219 156.369 201.563C156.766 201.907 157.092 202.326 157.326 202.797C157.56 203.267 157.699 203.78 157.733 204.304C157.767 204.829 157.697 205.355 157.527 205.852C157.356 206.349 157.088 206.807 156.739 207.2L135.543 231.666L135.52 231.699C134.866 232.525 133.911 233.058 132.865 233.182C131.818 233.307 130.765 233.012 129.935 232.363L115.219 220.813Z" fill="#6ED04F"/>
</svg>
