<svg width="117" height="158" viewBox="0 0 117 158" fill="none" xmlns="http://www.w3.org/2000/svg">
<g clip-path="url(#clip0_133_1001)">
<path d="M94.186 0H19.2921C14.7687 0 11.1017 3.65774 11.1017 8.16979V149.83C11.1017 154.342 14.7687 158 19.2921 158H94.186C98.7094 158 102.376 154.342 102.376 149.83V8.16979C102.376 3.65774 98.7094 0 94.186 0Z" fill="#808080"/>
<path d="M71.4204 10.216C71.4204 10.8993 70.8507 11.4526 70.1434 11.4526H46.2125C45.5089 11.4526 44.9355 10.8993 44.9355 10.216C44.9355 9.53269 45.5089 8.97937 46.2125 8.97937H70.1434C70.847 8.97937 71.4204 9.53269 71.4204 10.216Z" fill="#9A98A0"/>
<path d="M43.4799 10.2159C43.4799 10.9289 42.8992 11.5082 42.1844 11.5082C41.4696 11.5082 40.8888 10.9289 40.8888 10.2159C40.8888 9.5029 41.4696 8.92358 42.1844 8.92358C42.8992 8.92358 43.4799 9.5029 43.4799 10.2159Z" fill="#9A98A0"/>
<path d="M62.5226 151.019C62.5226 153.811 60.2516 156.076 57.452 156.076C54.6523 156.076 52.3813 153.811 52.3813 151.019C52.3813 148.226 54.6523 145.961 57.452 145.961C60.2516 145.961 62.5226 148.226 62.5226 151.019Z" fill="#D6D9E0"/>
<path d="M61.5063 151.018C61.5063 153.254 59.6895 155.066 57.4483 155.066C55.2071 155.066 53.394 153.254 53.394 151.018C53.394 148.783 55.2108 146.971 57.4483 146.971C59.6858 146.971 61.5063 148.783 61.5063 151.018Z" fill="#9A98A0"/>
<path d="M97.5739 136.06C97.5925 139.005 95.2136 141.408 92.2613 141.423L22.7843 141.857C19.832 141.876 17.4233 139.503 17.4047 136.558L16.6861 21.9396C16.6675 18.9948 19.0465 16.5921 21.9987 16.5736L91.4758 16.1428C94.428 16.1242 96.8367 18.4972 96.8554 21.442L97.5739 136.06Z" fill="#D6D9E0"/>
<path d="M106.613 81.8167C106.594 78.961 103.724 76.6623 100.195 76.6846L37.4897 77.0745C33.9641 77.0968 31.1198 79.4289 31.1384 82.2846L31.1831 89.3961C29.854 90.1796 28.3649 91.238 28.3649 91.238L31.6112 91.2157C32.5345 93.1653 34.8688 94.543 37.6014 94.5245L100.306 94.1345C103.832 94.1123 106.676 91.7802 106.658 88.9244L106.613 81.813V81.8167Z" fill="url(#paint0_linear_133_1001)" fill-opacity="0.8"/>
<path d="M90.1876 111.135C90.1876 111.135 87.4996 109.163 86.2674 108.677L86.286 105.58C86.312 101.138 83.84 97.5213 80.7649 97.5028L26.0567 97.15C22.9778 97.1314 20.4649 100.715 20.4388 105.156L20.3718 116.215C20.3457 120.657 22.8177 124.274 25.8929 124.292L80.6011 124.645C83.6762 124.664 86.1929 121.08 86.219 116.639L86.2525 111.113L90.1876 111.135Z" fill="#F3F3F3"/>
<path d="M90.1876 66.4315L87.4438 64.9796V64.2554C87.4252 61.9679 84.1044 60.1297 80.0166 60.1557L7.37142 60.6087C3.28366 60.6347 -0.0148414 62.5101 5.02253e-05 64.8013L0.0335565 70.4979C0.0484481 72.7891 3.37301 74.6236 7.45705 74.5976L80.1023 74.1483C84.1863 74.1223 87.4885 72.247 87.4736 69.9557L87.4587 67.5493L90.1876 66.4353V66.4315Z" fill="#F3F3F3"/>
<path d="M116.937 40.0654C116.911 36.1068 113.672 32.9131 109.703 32.9391L39.0981 33.3773C35.1295 33.4033 31.9278 36.6341 31.9538 40.5927L31.9724 43.3519C30.8369 43.7864 28.3612 45.5429 28.3612 45.5429L31.9836 45.5206L32.0134 50.4485C32.0394 54.4071 35.2747 57.597 39.247 57.5747L109.852 57.1366C113.824 57.1106 117.022 53.8798 116.996 49.9211L116.933 40.0617L116.937 40.0654Z" fill="url(#paint1_linear_133_1001)" fill-opacity="0.8"/>
<path d="M88.1995 24.0897V24.3051C88.0915 21.9396 86.0886 20.0531 83.6278 20.0531H74.8342C72.3027 20.0531 70.2513 22.0473 70.2513 24.5093V26.7263C70.2513 29.1884 72.3027 31.1826 74.8342 31.1826H83.6278C86.1594 31.1826 88.2107 29.1884 88.2107 26.7263V25.9502L90.1875 25.1406L88.1995 24.0897Z" fill="#F3F3F3"/>
<path d="M29.6455 132.406L31.6224 133.216L31.6373 131.355L29.6455 132.406Z" fill="url(#paint2_linear_133_1001)"/>
<path d="M62.2322 127.556H36.1048C33.6375 127.556 31.6373 129.552 31.6373 132.013V132.562C31.6373 135.023 33.6375 137.019 36.1048 137.019H62.2322C64.6996 137.019 66.6997 135.023 66.6997 132.562V132.013C66.6997 129.552 64.6996 127.556 62.2322 127.556Z" fill="url(#paint3_linear_133_1001)"/>
</g>
<defs>
<linearGradient id="paint0_linear_133_1001" x1="28.3649" y1="85.6045" x2="106.658" y2="85.6045" gradientUnits="userSpaceOnUse">
<stop stop-color="#6ED04F"/>
<stop offset="1" stop-color="#A1EA64"/>
</linearGradient>
<linearGradient id="paint1_linear_133_1001" x1="5.06783e-05" y1="45.2569" x2="117" y2="45.2569" gradientUnits="userSpaceOnUse">
<stop stop-color="#6ED04F"/>
<stop offset="1" stop-color="#A1EA64"/>
</linearGradient>
<linearGradient id="paint2_linear_133_1001" x1="29.6455" y1="132.287" x2="31.6373" y2="132.287" gradientUnits="userSpaceOnUse">
<stop stop-color="#6ED04F"/>
<stop offset="1" stop-color="#A1EA64"/>
</linearGradient>
<linearGradient id="paint3_linear_133_1001" x1="31.6373" y1="132.287" x2="66.696" y2="132.287" gradientUnits="userSpaceOnUse">
<stop stop-color="#6ED04F"/>
<stop offset="1" stop-color="#A1EA64"/>
</linearGradient>
<clipPath id="clip0_133_1001">
<rect width="117" height="158" fill="white"/>
</clipPath>
</defs>
</svg>
