<svg width="707" height="798" viewBox="0 0 707 798" fill="none" xmlns="http://www.w3.org/2000/svg">
<path d="M306.75 170.35C369.8 170.35 426.89 195.91 468.21 237.23C509.53 278.55 535.09 335.64 535.09 398.69C535.09 455.65 514.23 507.74 479.73 547.74L507.26 575.27L531.39 551.14C538 544.53 548.72 544.53 555.33 551.14L579.04 574.85V34.5202H34.4501V764.14H512.19C521.54 764.14 529.12 771.72 529.12 781.07C529.12 790.42 521.54 798 512.19 798H17.5201C8.17009 798 0.590088 790.42 0.590088 781.07V17.5902C0.590088 8.24016 8.17009 0.660156 17.5201 0.660156H595.97C605.32 0.660156 612.9 8.24016 612.9 17.5902V608.71L701.1 696.92C707.71 703.53 707.71 714.25 701.1 720.86L628.92 793.04C622.31 799.65 611.59 799.65 604.98 793.04L459.2 647.27C452.59 640.66 452.59 629.94 459.2 623.33L483.32 599.21L455.79 571.68C415.8 606.17 363.71 627.03 306.75 627.03C243.7 627.03 186.61 601.47 145.29 560.15C103.97 518.83 78.4101 461.74 78.4101 398.69C78.4101 335.64 103.97 278.55 145.29 237.23C186.61 195.91 243.7 170.35 306.75 170.35ZM95.3401 150.79C85.9901 150.79 78.4101 143.21 78.4101 133.86C78.4101 124.51 85.9901 116.93 95.3401 116.93H296.07C305.42 116.93 313 124.51 313 133.86C313 143.21 305.42 150.79 296.07 150.79H95.3401ZM95.3401 107.8C85.9901 107.8 78.4101 100.22 78.4101 90.8702C78.4101 81.5202 85.9901 73.9402 95.3401 73.9402H206.77C216.12 73.9402 223.7 81.5202 223.7 90.8702C223.7 100.22 216.12 107.8 206.77 107.8H95.3401ZM204.93 512.21V468.13C204.93 454.52 210.81 442.19 220.23 433.3C229.4 424.67 241.98 419.3 255.72 419.3H357.78C371.52 419.3 384.11 424.67 393.26 433.3C402.7 442.19 408.57 454.54 408.57 468.13V512.21C410.62 510.37 412.63 508.47 414.58 506.52C442.17 478.93 459.24 440.8 459.24 398.69C459.24 356.59 442.17 318.45 414.58 290.86C386.99 263.27 348.86 246.2 306.75 246.2C264.65 246.2 226.51 263.27 198.92 290.86C171.33 318.45 154.26 356.59 154.26 398.69C154.26 440.8 171.33 478.93 198.92 506.52C200.87 508.47 202.88 510.37 204.93 512.21ZM374.71 535.24V468.13C374.71 464.2 372.95 460.56 370.12 457.9C367.03 454.98 362.65 453.16 357.78 453.16H255.72C250.85 453.16 246.47 454.99 243.37 457.9C240.56 460.55 238.79 464.19 238.79 468.13V535.23C259.25 545.43 282.33 551.18 306.75 551.18C331.16 551.18 354.25 545.44 374.71 535.24ZM306.75 281.11C323.02 281.11 337.75 287.71 348.41 298.37C359.07 309.03 365.67 323.77 365.67 340.04C365.67 356.31 359.07 371.04 348.41 381.7C337.75 392.36 323.02 398.96 306.75 398.96C290.48 398.96 275.74 392.36 265.08 381.7C254.42 371.04 247.82 356.31 247.82 340.04C247.82 323.77 254.42 309.03 265.08 298.37C275.74 287.71 290.48 281.11 306.75 281.11ZM324.47 322.31C319.94 317.78 313.67 314.97 306.75 314.97C299.83 314.97 293.55 317.78 289.02 322.31C284.49 326.84 281.68 333.12 281.68 340.04C281.68 346.96 284.49 353.23 289.02 357.76C293.55 362.29 299.83 365.1 306.75 365.1C313.67 365.1 319.94 362.29 324.47 357.76C329 353.23 331.81 346.96 331.81 340.04C331.81 333.12 329 326.84 324.47 322.31ZM306.75 212.34C358.21 212.34 404.8 233.2 438.52 266.92C472.24 300.64 493.1 347.24 493.1 398.69C493.1 450.15 472.24 496.74 438.52 530.46C404.8 564.18 358.21 585.04 306.75 585.04C255.3 585.04 208.7 564.18 174.98 530.46C141.26 496.74 120.4 450.15 120.4 398.69C120.4 347.24 141.26 300.64 174.98 266.92C208.7 233.2 255.3 212.34 306.75 212.34ZM495.11 635.3L616.95 757.13L665.19 708.89C624.58 668.28 583.97 627.66 543.36 587.05C527.28 603.13 511.19 619.22 495.11 635.3ZM444.27 261.17C409.08 225.98 360.45 204.21 306.75 204.21C253.05 204.21 204.42 225.98 169.23 261.17C134.04 296.36 112.27 344.99 112.27 398.69C112.27 452.39 134.04 501.02 169.23 536.21C204.42 571.4 253.05 593.17 306.75 593.17C360.45 593.17 409.08 571.4 444.27 536.21C479.46 501.02 501.23 452.39 501.23 398.69C501.23 344.99 479.46 296.36 444.27 261.17Z" fill="#6ED04F"/>
</svg>
