<svg width="656" height="1024" viewBox="0 0 656 1024" fill="none" xmlns="http://www.w3.org/2000/svg">
<g filter="url(#filter0_d_198_2)">
<path d="M199.903 968.399V1041.85C199.903 1056.78 212.281 1069 227.41 1069H447.493C462.623 1069 475 1056.78 475 1041.85V934.335C475 919.401 462.623 907.182 447.493 907.182H256.861C225.397 907.182 199.903 882.005 199.903 850.958V677.676C199.903 661.357 186.376 648 169.836 648H34.0673C17.5276 648 4 661.357 4 677.676V889.835C4 906.154 17.5276 919.511 34.0673 919.511H151.27C178.133 919.511 199.903 941 199.903 967.507V968.385V968.399Z" fill="url(#paint0_linear_198_2)"/>
<path d="M675.738 275.046L770.991 275.597C790.358 275.703 806.292 259.961 806.399 240.613L807.999 -40.8248C808.106 -60.1737 792.349 -76.0934 772.982 -76.2L633.554 -76.9995C614.187 -77.1061 598.252 -61.364 598.146 -42.0152L596.759 200.867V201.755C596.527 241.981 563.698 274.406 523.416 274.193H522.758L298.713 272.914C277.55 272.79 260.121 290.006 259.997 311.15L259.001 484.756C258.876 505.899 276.109 523.311 297.272 523.436L572.412 524.999C593.575 525.124 611.004 507.907 611.128 486.764L611.982 337.321V336.895C612.177 302.55 640.205 274.868 674.582 275.064H675.72L675.738 275.046Z" fill="url(#paint1_linear_198_2)" fill-opacity="0.8"/>
</g>
<defs>
<filter id="filter0_d_198_2" x="0" y="-77" width="812" height="1154" filterUnits="userSpaceOnUse" color-interpolation-filters="sRGB">
<feFlood flood-opacity="0" result="BackgroundImageFix"/>
<feColorMatrix in="SourceAlpha" type="matrix" values="0 0 0 0 0 0 0 0 0 0 0 0 0 0 0 0 0 0 127 0" result="hardAlpha"/>
<feOffset dy="4"/>
<feGaussianBlur stdDeviation="2"/>
<feComposite in2="hardAlpha" operator="out"/>
<feColorMatrix type="matrix" values="0 0 0 0 0 0 0 0 0 0 0 0 0 0 0 0 0 0 0.25 0"/>
<feBlend mode="normal" in2="BackgroundImageFix" result="effect1_dropShadow_198_2"/>
<feBlend mode="normal" in="SourceGraphic" in2="effect1_dropShadow_198_2" result="shape"/>
</filter>
<linearGradient id="paint0_linear_198_2" x1="239.5" y1="648" x2="239.5" y2="1069" gradientUnits="userSpaceOnUse">
<stop stop-color="#6ED04F"/>
<stop offset="1" stop-color="#A1EA64"/>
</linearGradient>
<linearGradient id="paint1_linear_198_2" x1="533.5" y1="-77" x2="533.5" y2="525" gradientUnits="userSpaceOnUse">
<stop stop-color="#6ED04F"/>
<stop offset="1" stop-color="#A1EA64"/>
</linearGradient>
</defs>
</svg>
