<svg width="97" height="195" viewBox="0 0 97 195" fill="none" xmlns="http://www.w3.org/2000/svg">
<g clip-path="url(#clip0_133_1122)">
<path d="M20.9915 176.415C22.3516 172.283 23.7036 168.149 25.0736 164.02C29.1854 151.63 33.3021 139.241 37.4188 126.854C38.9369 122.285 40.4582 117.718 41.9714 113.148C42.0816 112.818 42.2658 112.499 42.2148 112.129C48.0321 112.122 53.8494 112.117 59.6668 112.111C59.4168 112.385 59.6651 112.627 59.7424 112.86C63.0779 122.93 66.4232 132.997 69.7653 143.063C71.2061 147.4 72.6402 151.74 74.0827 156.076C76.3096 162.772 78.5398 169.467 80.7651 176.164C80.798 176.263 80.8029 176.374 80.8227 176.479C80.6911 176.448 80.5513 176.438 80.4312 176.384C78.9822 175.728 77.6517 176 76.3622 176.833C75.8524 177.163 75.7323 177.836 75.1567 178.085C74.4445 176.528 74.0317 174.867 73.4774 173.256C72.6271 170.792 71.808 168.315 71.0169 165.829C70.8459 165.294 70.6057 165.129 70.0433 165.13C64.9266 165.153 59.8099 165.158 54.6932 165.125C54.009 165.12 53.8922 165.348 53.8955 165.957C53.9202 169.191 53.9037 172.425 53.8988 175.659C53.8988 175.929 53.8659 176.198 53.8478 176.468C53.3264 176.515 53.1702 175.948 52.7524 175.822C51.7689 175.31 50.7492 175.225 49.685 175.545C49.0535 175.734 48.5979 176.237 47.9861 176.456C47.8035 176.152 47.889 175.817 47.889 175.499C47.8824 172.291 47.8742 169.081 47.8989 165.873C47.9038 165.315 47.7542 165.13 47.1686 165.132C41.9944 165.15 36.8201 165.148 31.6459 165.117C31.039 165.114 30.9288 165.432 30.7841 165.869C29.5061 169.753 28.22 173.634 26.9256 177.511C26.8417 177.761 26.8203 178.05 26.5983 178.243C25.8384 177.15 24.9157 176.316 23.5325 176.045C22.6181 175.865 21.8368 176.281 20.9947 176.414L20.9915 176.415ZM54.0633 114.855C54.0172 114.866 53.9728 114.876 53.9268 114.887C53.9218 114.913 53.9119 114.941 53.9119 114.967C53.9119 130.86 53.9136 146.751 53.8971 162.644C53.8971 163.245 54.1044 163.355 54.6537 163.352C59.5303 163.332 64.4085 163.329 69.285 163.353C69.9857 163.356 70.1699 163.278 69.9166 162.52C65.3575 148.873 60.8296 135.218 56.2935 121.563C55.5501 119.327 54.8067 117.091 54.0633 114.855ZM47.8874 114.788C47.792 114.851 47.7278 114.869 47.7163 114.904C42.4253 130.828 37.1409 146.755 31.8383 162.674C31.5949 163.404 31.9666 163.348 32.4485 163.348C37.2149 163.34 41.9812 163.342 46.7492 163.337C47.9269 163.337 47.8874 163.561 47.8874 162.2C47.889 147.916 47.889 133.63 47.889 119.346C47.889 117.839 47.889 116.331 47.889 114.788H47.8874Z" fill="#69BC4B"/>
<path d="M46.5256 67.6776C49.4285 67.6825 52.3315 67.6874 55.236 67.6923C55.236 74.3353 55.236 80.9799 55.236 87.6229C55.236 87.8385 55.2163 88.0557 55.2048 88.2713C54.4235 88.3889 53.6374 88.42 52.8479 88.4036C50.7558 88.3595 48.6605 88.4984 46.57 88.2877C46.5618 83.5361 46.5536 78.783 46.5437 74.0315C46.5388 71.913 46.5322 69.7961 46.5256 67.6776Z" fill="#69BC4B"/>
<path d="M59.6651 112.111C53.8478 112.117 48.0304 112.122 42.2131 112.129C41.6687 112.102 41.1177 112.174 40.5799 112.021C39.0569 111.586 38.0964 110.154 38.2905 108.592C38.4763 107.093 39.746 105.923 41.3134 105.889C43.0387 105.851 44.764 105.876 46.4893 105.874C49.4136 105.869 52.3363 105.863 55.2606 105.858C56.9003 105.868 58.5401 105.886 60.1782 105.887C62.1272 105.887 63.5302 107.191 63.5302 109.014C63.5302 110.819 62.1108 112.125 60.1536 112.12C59.9891 112.12 59.8263 112.112 59.6618 112.109L59.6651 112.111Z" fill="#808080"/>
<path d="M46.5633 97.0476C46.981 96.8598 47.4251 96.948 47.856 96.9496C50.3379 96.9578 52.8197 96.9806 55.3 96.997C55.1635 99.9501 55.2408 102.905 55.2605 105.86C52.3362 105.865 49.4119 105.871 46.4893 105.876C46.5073 103.366 46.5238 100.855 46.5419 98.3445C46.5452 97.9133 46.555 97.4804 46.5616 97.0492L46.5633 97.0476Z" fill="#69BC4B"/>
<path d="M96.9506 37.4682C96.9243 37.4715 96.8963 37.4797 96.87 37.4797C96.4621 37.4633 96.4621 38.2539 96.092 38.0072C95.5394 37.6397 94.9424 37.1644 94.6842 36.5927C94.4802 36.1403 95.1299 35.8234 95.5427 35.5686C95.7121 35.7728 95.5986 35.9132 95.5592 36.0668C95.4769 36.3837 95.5263 36.5862 95.9078 36.3575C96.0493 36.2742 96.1759 36.1501 96.3354 36.3036C96.5065 36.467 96.2976 36.5715 96.2779 36.7022C96.1414 37.5842 96.7647 36.7708 96.9423 36.9815C96.9456 37.1448 96.9473 37.3065 96.9506 37.4699V37.4682Z" fill="#808080"/>
<path d="M59.4974 89.921C59.4924 88.7842 59.0681 88.3889 57.8987 88.3546C57.0007 88.3285 56.0978 88.4559 55.2047 88.2729C54.4235 88.3906 53.6373 88.4216 52.8478 88.4053C50.7558 88.3612 48.6604 88.5 46.57 88.2893L44.0371 88.4036C43.2723 88.2615 42.672 88.4314 42.4039 89.2415C42.371 89.3444 42.3102 89.4457 42.3102 89.5486C42.3036 91.6083 42.2839 93.668 42.3102 95.7261C42.32 96.5117 42.8151 96.9462 43.6276 96.9789C44.6062 97.0165 45.5848 97.0246 46.565 97.0459C46.9828 96.858 47.4269 96.9462 47.8578 96.9479C50.3396 96.956 52.8215 96.9789 55.3017 96.9952C56.1504 96.992 56.9991 96.9903 57.8477 96.9838C59.0681 96.9756 59.4941 96.5689 59.499 95.3847C59.504 93.5635 59.5056 91.7406 59.499 89.9194L59.4974 89.921Z" fill="#808080"/>
<path d="M73.6419 58.0047C73.7784 57.6927 73.1024 57.7907 73.3459 57.5C73.6551 57.1308 74.0301 56.7944 74.5629 56.7601C74.9478 56.7356 75.0498 57.0688 75.1962 57.3105C75.3228 57.518 75.2208 57.6797 74.9675 57.7009C74.7488 57.7189 74.5152 57.6976 74.4708 57.9982C74.1945 58.0733 73.9182 58.0847 73.6419 58.0047Z" fill="#808080"/>
<path d="M96.9408 35.8381C96.4128 35.9083 95.9803 35.5588 95.9819 35.1815C95.9836 34.7617 96.4079 34.3974 96.9424 34.368C97.0214 34.8581 97.0197 35.3481 96.9424 35.8381H96.9408Z" fill="#808080"/>
<path d="M0.0229492 34.796C0.174262 34.7585 0.365049 34.6931 0.397943 34.9104C0.439061 35.1799 0.202222 35.1554 0.0262386 35.175C0.0262386 35.0476 0.0229492 34.9218 0.0229492 34.7944V34.796Z" fill="#808080"/>
<path d="M65.4298 58.2073C65.4117 58.1567 65.3936 58.1044 65.3755 58.0538C65.4215 58.0293 65.4725 58.0195 65.5252 58.026C65.4939 58.0865 65.4627 58.1469 65.4298 58.2073Z" fill="#4C7198"/>
<path d="M47.4959 53.9784C34.7001 53.9784 21.9042 53.9784 9.10674 53.9784C7.83045 53.9784 7.73999 53.8951 7.73999 52.6554C7.73999 40.0555 7.73999 27.4555 7.73999 14.854C7.73999 13.8511 7.91597 13.6845 9.12648 13.6779C12.8254 13.66 16.5244 13.6534 20.2233 13.6534C26.4979 13.6551 32.7725 13.673 39.047 13.6747C54.5829 13.6779 70.1205 13.6763 85.6564 13.6779C87.1383 13.6779 87.2633 13.7955 87.2633 15.2362C87.2633 27.7006 87.2633 40.1649 87.2633 52.6293C87.2633 53.8347 87.1186 53.9752 85.8834 53.9752C73.0876 53.9752 60.2901 53.9752 47.4942 53.9752L47.4959 53.9784ZM28.9995 15.914C22.8088 15.914 16.6198 15.914 10.4291 15.914C9.70871 15.914 9.34742 16.2805 9.34523 17.0133C9.34523 22.4264 9.34523 27.8394 9.34523 33.2524C9.34523 35.3464 9.34523 37.4421 9.34523 39.5361C9.34523 40.503 9.37977 40.5553 10.1774 40.0914C11.8106 39.1424 13.4126 38.1379 15.0178 37.1399C17.3385 35.696 19.6625 34.257 21.9832 32.8114C23.595 31.8069 25.2446 30.8612 26.8301 29.806C29.1771 28.2445 31.6573 26.8806 34.0619 25.4024C37.5109 23.2839 40.9319 21.1213 44.389 19.0158C45.6818 18.2286 46.9795 17.4478 48.2393 16.6082C48.3939 16.5053 48.6225 16.4433 48.5781 16.2048C48.5271 15.9304 48.2837 15.9222 48.06 15.9157C47.8692 15.9108 47.6768 15.9124 47.4844 15.9124C41.3217 15.9124 35.1589 15.9124 28.9962 15.9124L28.9995 15.914ZM37.899 33.8094C37.95 40.2188 43.0354 45.3101 49.3413 45.266C55.8083 45.2219 60.8723 40.0783 60.8246 33.6052C60.7786 27.3951 55.5698 22.4019 49.1768 22.4411C43.0042 22.4786 37.8497 27.6761 37.899 33.8094Z" fill="#6ED04F"/>
<path d="M93.8848 33.8748C93.8848 34.9904 93.8848 36.106 93.8848 37.2216C93.8865 38.4287 93.1792 39.2388 92.1135 39.247C91.125 39.2552 90.4063 38.4319 90.4013 37.2559C90.3931 34.9691 90.3931 32.684 90.4046 30.3973C90.4095 29.2082 91.1118 28.4519 92.1579 28.4683C93.2105 28.4846 93.8585 29.2311 93.8651 30.4447C93.8717 31.588 93.8651 32.7314 93.8651 33.8731C93.8717 33.8731 93.8766 33.8731 93.8832 33.8731L93.8848 33.8748Z" fill="#93C8FE"/>
<path d="M4.76802 33.8764C4.76802 36.2693 4.76802 38.6605 4.76638 41.0534C4.76638 41.2707 4.77131 41.4945 4.72033 41.7019C4.64796 41.9959 4.4177 42.156 4.11836 42.1674C3.81245 42.1805 3.57725 42.0188 3.49831 41.7313C3.43581 41.501 3.43745 41.2478 3.43745 41.0061C3.43416 36.248 3.43416 31.4916 3.43416 26.7336C3.43416 26.5702 3.42594 26.4069 3.44074 26.2452C3.47693 25.8515 3.6562 25.5477 4.0904 25.5445C4.56408 25.5412 4.76144 25.8515 4.76473 26.2925C4.77296 27.4621 4.77625 28.6299 4.77953 29.7994C4.78118 31.1584 4.77953 32.5174 4.77953 33.8764C4.77625 33.8764 4.77131 33.8764 4.76802 33.8764Z" fill="#93C8FE"/>
<path d="M0.301025 32.6008C0.332275 31.6616 0.861871 31.3169 1.44739 31.1422C1.99014 30.9805 2.37994 31.5146 2.18422 32.0552C2.03948 32.457 1.69245 32.7004 1.4112 32.9944C1.15298 33.2639 0.78128 33.4877 1.1941 33.9287C1.34377 34.0872 1.26976 34.2995 1.09213 34.4253C0.865161 34.5853 0.679308 34.4677 0.516482 34.2979C0.185896 33.9565 0.251684 33.326 0.633257 33.0549C0.832266 32.9144 1.03786 32.7706 1.1941 32.5893C1.36351 32.3917 1.81251 32.2218 1.46383 31.8837C1.16779 31.5946 1.00167 31.9899 0.804306 32.1369C0.677664 32.2316 0.569113 32.3509 0.301025 32.6008Z" fill="#808080"/>
<path d="M65.4299 58.2073C65.4118 58.1566 65.3937 58.1044 65.3756 58.0537C55.3988 57.8397 45.422 58.1632 35.437 57.8071C25.0688 57.4379 14.6775 57.7238 4.29609 57.7287C4.00662 57.7287 3.68919 57.6258 3.43262 57.8659C3.93261 58.0603 4.45727 58.0162 4.97535 58.0162C15.1906 58.0194 25.4076 58.0243 35.6245 58.008C36.187 58.008 36.3679 58.1256 36.3597 58.7136C36.3235 60.9432 36.3449 63.1744 36.3449 65.404C36.3449 67.021 36.9978 67.6597 38.6409 67.6613C41.2691 67.6646 43.899 67.6711 46.5273 67.6776C49.4302 67.6825 52.3331 67.6874 55.2377 67.6923C57.9728 67.6809 60.7063 67.6744 63.4415 67.6564C64.7276 67.6482 65.4332 66.9573 65.4349 65.7029C65.4398 63.2038 65.4349 60.7047 65.4316 58.2056L65.4299 58.2073Z" fill="#808080"/>
<path d="M96.8702 37.4796C96.4623 37.4633 96.4623 38.2539 96.0922 38.0072C95.5396 37.6397 94.9426 37.1644 94.6844 36.5927C94.4804 36.1403 95.1301 35.8234 95.5429 35.5686C95.7123 35.7728 95.5988 35.9132 95.5593 36.0668C95.4771 36.3836 95.5265 36.5862 95.908 36.3575C96.0495 36.2742 96.1761 36.1501 96.3356 36.3036C96.5067 36.4669 96.2978 36.5715 96.2781 36.7022C96.1416 37.5842 96.7649 36.7708 96.9425 36.9815C96.9425 36.6009 96.9425 36.2203 96.9409 35.8381C96.4129 35.9083 95.9804 35.5588 95.982 35.1815C95.9837 34.7617 96.408 34.3974 96.9425 34.368C96.9524 34.2325 96.9689 34.0969 96.9689 33.9613C96.9722 27.302 96.9902 20.6427 96.9672 13.9834C96.959 11.5611 95.0824 9.72844 92.6268 9.68434C90.7667 9.65004 88.9049 9.67617 87.0447 9.67454C79.8474 9.66801 72.6502 9.66147 65.453 9.65331C65.4349 8.74514 65.4168 7.83861 65.3987 6.93045C65.323 5.80832 64.7145 5.03899 63.7606 4.50324C62.8297 3.98056 61.8181 4.1341 60.8215 4.1635C59.2853 4.1635 57.7475 4.1635 56.2113 4.1635C55.8923 4.04263 55.5222 4.2468 55.2229 4.00669L55.2212 3.99363C55.2196 3.93809 55.2179 3.88419 55.2146 3.82865C55.2245 3.50361 55.2426 3.17857 55.241 2.85352C55.236 1.03393 54.2426 0.031035 52.4104 0.0130678C51.3167 0.00326749 50.223 -0.0130664 49.1309 0.0228681C47.598 0.0751364 46.6046 1.09927 46.552 2.62485C46.5421 2.92376 46.5158 3.22594 46.552 3.51994C46.6161 4.03609 46.4007 4.1537 45.9056 4.14716C43.8283 4.12103 41.7511 4.12756 39.6738 4.13736C37.7199 4.14553 36.3877 5.46041 36.3465 7.40087C36.3301 8.16039 36.3186 8.91992 36.3038 9.67944C32.2775 9.68107 28.2513 9.68597 24.225 9.68597C17.6511 9.68597 11.0772 9.67127 4.50334 9.68107C1.99022 9.68434 0.0247968 11.45 0.0149285 13.825C-0.0146762 20.8159 0.0165732 27.8067 0.0247968 34.7976C0.17611 34.7601 0.366896 34.6947 0.39979 34.912C0.440908 35.1815 0.20407 35.157 0.0280862 35.1766C0.0198626 41.4292 -0.0146762 47.6818 0.0165732 53.9344C0.0264415 55.8732 1.57082 57.5523 3.43263 57.8676C3.68756 57.6258 4.00499 57.7304 4.29611 57.7304C14.6775 57.7255 25.0688 57.4396 35.437 57.8088C45.4221 58.1648 55.3989 57.8414 65.3757 58.0554C65.4217 58.0309 65.4727 58.0211 65.5253 58.0276C68.2309 58.0211 70.9364 58.0146 73.642 58.0064C73.7785 57.6944 73.1025 57.7924 73.3459 57.5017C73.6551 57.1325 74.0318 56.7961 74.563 56.7618C74.9479 56.7373 75.0498 57.0705 75.1962 57.3122C75.3229 57.5196 75.2209 57.6814 74.9676 57.7026C74.7489 57.7206 74.5153 57.6993 74.4709 57.9999C80.5761 58.008 86.6829 58.0472 92.788 58.0064C95.0873 57.9917 96.9442 56.0986 96.959 53.7874C96.9952 48.3482 96.959 42.9107 96.9508 37.4715C96.9245 37.4747 96.8965 37.4829 96.8702 37.4829V37.4796ZM2.1843 32.0552C2.03957 32.457 1.69253 32.7004 1.41129 32.9944C1.15471 33.2639 0.781363 33.4877 1.19418 33.9287C1.34385 34.0871 1.26984 34.2994 1.09221 34.4252C0.865243 34.5853 0.679391 34.4677 0.516565 34.2978C0.185978 33.9564 0.251767 33.326 0.633339 33.0548C0.832349 32.9143 1.03794 32.7706 1.19418 32.5893C1.36359 32.3917 1.8126 32.2218 1.46392 31.8837C1.16787 31.5946 1.00175 31.9898 0.804389 32.1368C0.677746 32.2316 0.569195 32.3508 0.301108 32.6007C0.332357 31.6615 0.861954 31.3169 1.44747 31.1421C1.99022 30.9804 2.38002 31.5145 2.1843 32.0552ZM65.0599 6.64461C65.0961 6.42247 65.0697 6.2428 65.004 6.09089C65.0714 6.2428 65.0977 6.42084 65.0599 6.64461ZM62.0237 5.75932C61.9925 5.75115 61.9662 5.72011 61.9382 5.69071C61.9662 5.72175 61.9925 5.75115 62.0237 5.75932ZM36.8942 11.6264C36.9419 11.664 36.9913 11.6983 37.0406 11.7277C36.9913 11.6967 36.9419 11.6624 36.8942 11.6264ZM36.3893 10.4684C36.4386 10.3263 36.4058 10.1564 36.3646 9.98488C36.4041 10.1564 36.437 10.3263 36.3893 10.4684ZM4.76814 33.8764C4.76814 36.2693 4.76814 38.6606 4.76649 41.0535C4.76649 41.2707 4.77143 41.4945 4.72044 41.7019C4.64807 41.996 4.41781 42.156 4.11848 42.1675C3.81256 42.1805 3.57737 42.0188 3.49842 41.7313C3.43428 41.501 3.43757 41.2479 3.43757 41.0061C3.43428 36.2481 3.43428 31.4917 3.43428 26.7336C3.43428 26.5703 3.42605 26.4069 3.44086 26.2452C3.47704 25.8516 3.65631 25.5478 4.09052 25.5445C4.56419 25.5412 4.76156 25.8516 4.76485 26.2926C4.77307 27.4621 4.77636 28.63 4.77965 29.7995C4.78129 31.1584 4.77965 32.5174 4.77965 33.8764C4.77636 33.8764 4.77143 33.8764 4.76814 33.8764ZM87.2634 52.6326C87.2634 53.838 87.1187 53.9785 85.8835 53.9785C73.0877 53.9785 60.2902 53.9785 47.4944 53.9785C34.6985 53.9785 21.9027 53.9785 9.10523 53.9785C7.82894 53.9785 7.73848 53.8952 7.73848 52.6554C7.73848 40.0555 7.73848 27.4556 7.73848 14.854C7.73848 13.8511 7.91446 13.6845 9.12497 13.678C12.8239 13.66 16.5229 13.6535 20.2218 13.6535C26.4964 13.6551 32.7709 13.6731 39.0455 13.6747C54.5814 13.678 70.119 13.6763 85.6549 13.678C87.1368 13.678 87.2618 13.7956 87.2618 15.2362C87.2618 27.7006 87.2618 40.1649 87.2618 52.6293L87.2634 52.6326ZM92.1153 39.2486C91.1269 39.2568 90.4081 38.4335 90.4032 37.2575C90.395 34.9708 90.395 32.6857 90.4065 30.3989C90.4114 29.2098 91.1137 28.4536 92.1597 28.4699C93.2124 28.4862 93.8604 29.2327 93.8669 30.4463C93.8735 31.5897 93.8669 32.733 93.8669 33.8748C93.8735 33.8748 93.8785 33.8748 93.885 33.8748C93.885 34.9904 93.885 36.106 93.885 37.2216C93.8867 38.4286 93.1795 39.2388 92.1137 39.247L92.1153 39.2486Z" fill="#808080"/>
<path d="M28.9996 15.914C35.1623 15.914 41.3251 15.914 47.4878 15.914C47.6802 15.914 47.871 15.9108 48.0634 15.9173C48.2855 15.9238 48.5305 15.932 48.5815 16.2064C48.6259 16.4449 48.3973 16.5053 48.2427 16.6098C46.9829 17.4494 45.6852 18.2302 44.3924 19.0175C40.9353 21.1229 37.5143 23.2855 34.0653 25.404C31.6608 26.8806 29.1805 28.2461 26.8335 29.8076C25.248 30.8628 23.6 31.8085 21.9866 32.813C19.6659 34.2569 17.3419 35.6976 15.0212 37.1415C13.416 38.1395 11.8141 39.144 10.1809 40.093C9.38317 40.5569 9.35028 40.503 9.34863 39.5377C9.34863 37.4437 9.34863 35.348 9.34863 33.254C9.34863 27.841 9.34863 22.428 9.34863 17.0149C9.34863 16.2843 9.70992 15.9178 10.4325 15.9157C16.6232 15.9157 22.8122 15.9157 29.0029 15.9157L28.9996 15.914Z" fill="#85D663"/>
<path d="M37.8973 33.8094C37.848 27.676 43.0041 22.4802 49.1751 22.441C55.5664 22.4018 60.7769 27.3951 60.8229 33.6052C60.8706 40.0783 55.8066 45.2202 49.3396 45.2659C43.0337 45.31 37.9483 40.2188 37.8973 33.8094ZM55.9891 34.3549C55.8477 34.2259 55.7967 34.1573 55.7276 34.1181C52.3428 32.1744 48.9531 30.2388 45.5732 28.2853C44.9712 27.9374 45.0222 28.3147 45.0222 28.6969C45.0238 31.686 45.0238 34.6767 45.0255 37.6658C45.0255 38.6083 45.0255 39.5507 45.0255 40.6467C48.731 38.5201 52.3165 36.462 55.9891 34.3549Z" fill="white"/>
<path d="M55.9892 34.355C52.3166 36.4621 48.7328 38.5201 45.0256 40.6468C45.0256 39.5508 45.0256 38.6083 45.0256 37.6659C45.0256 34.6768 45.0256 31.6861 45.0223 28.697C45.0223 28.3131 44.9713 27.9374 45.5733 28.2853C48.9532 30.2389 52.3429 32.1744 55.7277 34.1182C55.7968 34.1574 55.8478 34.226 55.9892 34.355Z" fill="#85D663"/>
<path d="M27.0218 181.257C27.8498 178.869 26.5716 176.266 24.1668 175.444C21.762 174.621 19.1412 175.891 18.3132 178.279L14.6185 188.935C13.7904 191.324 15.0687 193.926 17.4735 194.749C19.8783 195.571 22.499 194.302 23.3271 191.913L27.0218 181.257Z" fill="#808080"/>
<path d="M55.6996 179.137C55.6996 176.611 53.6378 174.563 51.0944 174.563C48.5511 174.563 46.4893 176.611 46.4893 179.137V190.407C46.4893 192.933 48.5511 194.98 51.0944 194.98C53.6378 194.98 55.6996 192.933 55.6996 190.407V179.137Z" fill="#808080"/>
<path d="M77.5031 191.842C78.3311 194.23 80.9518 195.5 83.3567 194.678C85.7615 193.855 87.0397 191.253 86.2116 188.864L82.5169 178.208C81.6889 175.82 79.0681 174.55 76.6633 175.373C74.2585 176.195 72.9803 178.798 73.8083 181.186L77.5031 191.842Z" fill="#808080"/>
</g>
<defs>
<clipPath id="clip0_133_1122">
<rect width="97" height="195" fill="white"/>
</clipPath>
</defs>
</svg>
